<?xml version="1.0" encoding="UTF-8"?>
<svg xmlns="http://www.w3.org/2000/svg" xmlns:xlink="http://www.w3.org/1999/xlink" width="30px" height="30px" viewBox="0 0 30 30" version="1.1">
<g id="surface1">
<path style=" stroke:none;fill-rule:nonzero;fill:white;fill-opacity:1;" d="M 14.988281 29.980469 C 6.710938 29.980469 0 23.269531 0 14.988281 C 0 6.710938 6.710938 0 14.988281 0 C 23.269531 0 29.980469 6.710938 29.980469 14.988281 C 29.980469 23.269531 23.269531 29.980469 14.988281 29.980469 Z M 14.988281 1 C 7.261719 1 1 7.261719 1 14.988281 C 1 22.71875 7.261719 28.980469 14.988281 28.980469 C 22.71875 28.980469 28.980469 22.71875 28.980469 14.988281 C 28.980469 7.261719 22.71875 1 14.988281 1 Z M 14.988281 1 "/>
<path style=" stroke:none;fill-rule:nonzero;fill:white;fill-opacity:1;" d="M 7.164062 23.085938 L 8.542969 18.828125 C 6.339844 15.542969 6.945312 11.132812 9.949219 8.5625 C 12.953125 5.992188 17.40625 6.074219 20.308594 8.761719 C 23.210938 11.445312 23.644531 15.875 21.316406 19.074219 C 18.988281 22.269531 14.636719 23.214844 11.191406 21.277344 Z M 14.988281 7.484375 L 14.710938 7.484375 C 12.164062 7.605469 9.886719 9.097656 8.761719 11.386719 C 7.636719 13.671875 7.84375 16.390625 9.304688 18.476562 L 9.421875 18.648438 L 8.496094 21.527344 L 11.222656 20.304688 L 11.402344 20.417969 C 14.242188 22.113281 17.882812 21.585938 20.125 19.15625 C 21.964844 17.113281 22.433594 14.179688 21.328125 11.664062 C 20.21875 9.144531 17.738281 7.511719 14.988281 7.484375 Z M 14.988281 7.484375 "/>
<path style=" stroke:none;fill-rule:nonzero;fill:white;fill-opacity:1;" d="M 14.351562 15.160156 C 14.699219 15.546875 15.125 15.859375 15.597656 16.078125 C 15.988281 16.167969 16.269531 15.949219 16.597656 15.691406 C 16.753906 15.496094 16.976562 15.367188 17.21875 15.328125 C 17.617188 15.25 18.757812 16.007812 19.027344 16.328125 C 19.375 16.714844 19.460938 17.269531 19.242188 17.742188 C 19.023438 18.214844 18.546875 18.511719 18.027344 18.496094 C 16.640625 18.617188 14.800781 17.359375 13.5 16.058594 C 12.203125 14.761719 10.894531 12.921875 10.992188 11.53125 C 10.980469 11.011719 11.277344 10.535156 11.746094 10.316406 C 12.21875 10.101562 12.773438 10.183594 13.160156 10.53125 C 13.480469 10.804688 14.242188 11.941406 14.160156 12.339844 C 14.121094 12.585938 13.992188 12.804688 13.800781 12.960938 C 13.539062 13.269531 13.320312 13.550781 13.410156 13.960938 C 13.640625 14.417969 13.960938 14.828125 14.351562 15.160156 Z M 14.351562 15.160156 "/>
</g>
</svg>
