<?xml version="1.0" encoding="UTF-8"?>
<svg xmlns="http://www.w3.org/2000/svg" xmlns:xlink="http://www.w3.org/1999/xlink" width="30px" height="30px" viewBox="0 0 30 30" version="1.1">
<g id="surface1">
<path style=" stroke:none;fill-rule:nonzero;fill:white;fill-opacity:1;" d="M 14.988281 29.980469 C 6.710938 29.980469 0 23.269531 0 14.988281 C 0 6.710938 6.710938 0 14.988281 0 C 23.269531 0 29.980469 6.710938 29.980469 14.988281 C 29.980469 23.269531 23.269531 29.980469 14.988281 29.980469 Z M 14.988281 1 C 7.261719 1 1 7.261719 1 14.988281 C 1 22.71875 7.261719 28.980469 14.988281 28.980469 C 22.71875 28.980469 28.980469 22.71875 28.980469 14.988281 C 28.980469 7.261719 22.71875 1 14.988281 1 Z M 14.988281 1 "/>
<path style=" stroke:none;fill-rule:nonzero;fill:white;fill-opacity:1;" d="M 22.085938 22.273438 L 18.148438 22.273438 C 17.976562 22.289062 17.8125 22.203125 17.726562 22.054688 C 16.539062 20.304688 15.339844 18.566406 14.140625 16.820312 L 13.992188 16.640625 L 13.800781 16.839844 C 12.300781 18.585938 10.804688 20.328125 9.3125 22.074219 C 9.210938 22.21875 9.039062 22.292969 8.863281 22.273438 L 7.863281 22.273438 L 13.402344 15.808594 L 7.925781 7.746094 L 11.851562 7.746094 C 12.035156 7.734375 12.207031 7.828125 12.300781 7.984375 C 13.410156 9.625 14.53125 11.242188 15.648438 12.871094 C 15.699219 12.949219 15.75 13.023438 15.808594 13.089844 L 17.289062 11.371094 C 18.269531 10.234375 19.242188 9.089844 20.214844 7.945312 C 20.320312 7.8125 20.480469 7.742188 20.644531 7.753906 L 21.644531 7.753906 L 21.347656 8.113281 C 19.757812 9.964844 18.179688 11.8125 16.578125 13.652344 C 16.5 13.722656 16.457031 13.824219 16.457031 13.929688 C 16.457031 14.035156 16.5 14.136719 16.578125 14.210938 C 18.371094 16.800781 20.152344 19.394531 21.925781 21.984375 Z M 9.613281 8.675781 L 9.894531 9.074219 L 13.179688 13.789062 C 14.898438 16.253906 16.621094 18.722656 18.347656 21.1875 C 18.429688 21.285156 18.546875 21.351562 18.675781 21.367188 C 19.15625 21.367188 19.675781 21.367188 20.117188 21.367188 L 20.355469 21.367188 L 20.15625 21.054688 C 18.710938 18.929688 17.234375 16.804688 15.730469 14.679688 L 11.652344 8.84375 C 11.601562 8.761719 11.515625 8.703125 11.421875 8.683594 Z M 9.613281 8.675781 "/>
</g>
</svg>
