<?xml version="1.0" encoding="UTF-8"?>
<svg xmlns="http://www.w3.org/2000/svg" xmlns:xlink="http://www.w3.org/1999/xlink" width="30px" height="30px" viewBox="0 0 30 30" version="1.1">
<g id="surface1">
<path style=" stroke:none;fill-rule:nonzero;fill:white;fill-opacity:1;" d="M 14.988281 29.980469 C 6.710938 29.980469 0 23.269531 0 14.988281 C 0 6.710938 6.710938 0 14.988281 0 C 23.269531 0 29.980469 6.710938 29.980469 14.988281 C 29.980469 23.269531 23.269531 29.980469 14.988281 29.980469 Z M 14.988281 1 C 7.261719 1 1 7.261719 1 14.988281 C 1 22.71875 7.261719 28.980469 14.988281 28.980469 C 22.71875 28.980469 28.980469 22.71875 28.980469 14.988281 C 28.980469 7.261719 22.71875 1 14.988281 1 Z M 14.988281 1 "/>
<path style=" stroke:none;fill-rule:nonzero;fill:white;fill-opacity:1;" d="M 13.5 15.378906 C 14.007812 15.917969 14.265625 16.640625 14.210938 17.378906 C 14.273438 18.277344 13.878906 19.148438 13.160156 19.695312 C 12.289062 20.246094 11.265625 20.511719 10.234375 20.457031 L 7.234375 20.457031 L 7.234375 9.375 L 9.683594 9.375 C 10.730469 9.308594 11.773438 9.554688 12.679688 10.074219 C 13.355469 10.539062 13.734375 11.324219 13.679688 12.140625 C 13.707031 12.742188 13.507812 13.332031 13.121094 13.789062 C 12.734375 14.21875 12.210938 14.496094 11.640625 14.582031 C 12.332031 14.632812 12.988281 14.914062 13.5 15.378906 Z M 8.183594 10.183594 L 8.183594 14.242188 L 10.414062 14.242188 C 11.011719 14.269531 11.605469 14.078125 12.070312 13.699219 C 12.5 13.324219 12.730469 12.769531 12.703125 12.203125 C 12.761719 11.59375 12.492188 11.003906 11.992188 10.652344 C 11.320312 10.296875 10.5625 10.136719 9.804688 10.183594 Z M 13.179688 17.367188 C 13.230469 16.695312 12.957031 16.039062 12.441406 15.597656 C 11.867188 15.175781 11.15625 14.96875 10.441406 15.019531 L 8.183594 15.019531 L 8.183594 19.636719 L 10.234375 19.636719 C 12.210938 19.636719 13.210938 18.878906 13.210938 17.367188 Z M 13.179688 17.367188 "/>
<path style=" stroke:none;fill-rule:nonzero;fill:white;fill-opacity:1;" d="M 22.753906 16.578125 L 17.117188 16.578125 C 17.101562 17.445312 17.378906 18.292969 17.898438 18.988281 C 18.363281 19.515625 19.042969 19.808594 19.746094 19.785156 C 20.144531 19.792969 20.542969 19.722656 20.917969 19.585938 C 21.292969 19.429688 21.652344 19.226562 21.984375 18.988281 L 22.425781 19.585938 C 22.035156 19.910156 21.597656 20.167969 21.125 20.355469 C 20.65625 20.539062 20.160156 20.625 19.65625 20.617188 C 18.652344 20.667969 17.679688 20.246094 17.027344 19.476562 C 16.328125 18.566406 15.972656 17.4375 16.03125 16.289062 C 16.042969 15.496094 16.214844 14.71875 16.527344 13.992188 C 16.761719 13.363281 17.171875 12.820312 17.707031 12.421875 C 18.226562 12.050781 18.851562 11.859375 19.488281 11.871094 C 20.441406 11.785156 21.375 12.175781 21.984375 12.910156 C 22.59375 13.789062 22.886719 14.84375 22.824219 15.910156 C 22.785156 16.140625 22.773438 16.367188 22.753906 16.578125 Z M 21.867188 15.578125 C 21.910156 14.796875 21.703125 14.019531 21.277344 13.359375 C 20.847656 12.851562 20.21875 12.554688 19.550781 12.554688 C 18.886719 12.554688 18.253906 12.851562 17.828125 13.359375 C 17.339844 14.085938 17.089844 14.945312 17.117188 15.820312 L 21.867188 15.820312 Z M 21.867188 15.578125 "/>
<path style=" stroke:none;fill-rule:nonzero;fill:white;fill-opacity:1;" d="M 16.699219 9.523438 L 21.867188 9.523438 L 21.867188 10.464844 L 16.699219 10.464844 Z M 16.699219 9.523438 "/>
</g>
</svg>
