<?xml version="1.0" encoding="UTF-8"?>
<svg xmlns="http://www.w3.org/2000/svg" xmlns:xlink="http://www.w3.org/1999/xlink" width="30px" height="30px" viewBox="0 0 30 30" version="1.1">
<g id="surface1">
<path style=" stroke:none;fill-rule:nonzero;fill:white;fill-opacity:1;" d="M 14.988281 29.980469 C 6.710938 29.980469 0 23.269531 0 14.988281 C 0 6.710938 6.710938 0 14.988281 0 C 23.269531 0 29.980469 6.710938 29.980469 14.988281 C 29.980469 23.269531 23.269531 29.980469 14.988281 29.980469 Z M 14.988281 1 C 7.261719 1 1 7.261719 1 14.988281 C 1 22.71875 7.261719 28.980469 14.988281 28.980469 C 22.71875 28.980469 28.980469 22.71875 28.980469 14.988281 C 28.980469 7.261719 22.71875 1 14.988281 1 Z M 14.988281 1 "/>
<path style=" stroke:none;fill-rule:nonzero;fill:white;fill-opacity:1;" d="M 13.0625 24.0625 C 11.488281 24.066406 9.988281 23.421875 8.902344 22.285156 C 7.714844 21.113281 7.144531 19.453125 7.355469 17.796875 C 7.550781 15.601562 9.035156 13.730469 11.132812 13.042969 C 11.957031 12.738281 12.839844 12.632812 13.710938 12.742188 L 13.859375 12.742188 L 14.25 12.8125 L 14.25 16.417969 L 13.632812 16.308594 L 13.359375 16.257812 C 12.800781 16.175781 12.234375 16.320312 11.78125 16.660156 C 11.339844 16.988281 11.054688 17.488281 10.992188 18.039062 C 10.90625 18.625 11.0625 19.21875 11.421875 19.6875 C 11.757812 20.125 12.253906 20.410156 12.800781 20.476562 C 13.398438 20.550781 14 20.375 14.460938 19.988281 C 14.910156 19.605469 15.171875 19.046875 15.167969 18.457031 C 15.167969 17.457031 15.167969 16.347656 15.167969 15.320312 L 15.167969 6.90625 C 15.167969 6.824219 15.167969 6.746094 15.167969 6.675781 L 15.167969 6.207031 L 18.71875 6.207031 L 18.71875 6.59375 C 18.742188 7.664062 19.199219 8.671875 19.988281 9.394531 C 20.707031 10.105469 21.679688 10.503906 22.695312 10.492188 L 23.09375 10.492188 L 23.09375 14.050781 L 22.683594 14.050781 C 21.871094 14.058594 21.066406 13.925781 20.296875 13.660156 C 19.765625 13.5 19.253906 13.273438 18.777344 12.992188 L 18.777344 14.261719 C 18.777344 15.621094 18.777344 16.988281 18.777344 18.359375 C 18.804688 19.988281 18.121094 21.546875 16.898438 22.625 C 15.84375 23.566406 14.476562 24.078125 13.0625 24.0625 Z M 12.992188 13.5 C 12.445312 13.5 11.90625 13.59375 11.390625 13.78125 C 9.589844 14.382812 8.320312 15.996094 8.15625 17.886719 C 7.972656 19.308594 8.464844 20.730469 9.484375 21.734375 C 11.34375 23.640625 14.375 23.75 16.367188 21.984375 C 17.421875 21.058594 18.015625 19.710938 17.988281 18.308594 C 17.988281 16.9375 17.988281 15.578125 17.988281 14.210938 L 17.988281 11.390625 L 18.617188 11.863281 C 19.207031 12.296875 19.859375 12.632812 20.554688 12.863281 C 21.113281 13.054688 21.695312 13.167969 22.285156 13.203125 L 22.285156 11.203125 C 21.214844 11.144531 20.199219 10.714844 19.40625 9.992188 C 18.585938 9.199219 18.082031 8.132812 17.988281 6.996094 L 15.988281 6.996094 L 15.988281 15.308594 C 15.988281 16.308594 15.988281 17.410156 15.988281 18.46875 C 15.976562 19.28125 15.609375 20.050781 14.988281 20.578125 C 14.351562 21.113281 13.519531 21.359375 12.691406 21.253906 C 11.929688 21.167969 11.238281 20.773438 10.773438 20.167969 C 10.296875 19.546875 10.082031 18.765625 10.171875 17.988281 C 10.277344 17.230469 10.683594 16.550781 11.300781 16.097656 C 11.917969 15.640625 12.691406 15.441406 13.449219 15.550781 L 13.449219 13.550781 Z M 12.992188 13.5 "/>
</g>
</svg>
