<?xml version="1.0" encoding="UTF-8"?>
<svg xmlns="http://www.w3.org/2000/svg" xmlns:xlink="http://www.w3.org/1999/xlink" width="30px" height="30px" viewBox="0 0 30 30" version="1.1">
<g id="surface1">
<path style=" stroke:none;fill-rule:nonzero;fill:white;fill-opacity:1;" d="M 14.988281 29.980469 C 6.710938 29.980469 0 23.269531 0 14.988281 C 0 6.710938 6.710938 0 14.988281 0 C 23.269531 0 29.980469 6.710938 29.980469 14.988281 C 29.980469 23.269531 23.269531 29.980469 14.988281 29.980469 Z M 14.988281 1 C 7.261719 1 1 7.261719 1 14.988281 C 1 22.71875 7.261719 28.980469 14.988281 28.980469 C 22.71875 28.980469 28.980469 22.71875 28.980469 14.988281 C 28.980469 7.261719 22.71875 1 14.988281 1 Z M 14.988281 1 "/>
<path style=" stroke:none;fill-rule:nonzero;fill:white;fill-opacity:1;" d="M 18.726562 23.175781 L 11.273438 23.175781 C 8.820312 23.167969 6.832031 21.179688 6.824219 18.726562 L 6.824219 11.273438 C 6.832031 8.820312 8.820312 6.832031 11.273438 6.824219 L 18.726562 6.824219 C 21.179688 6.832031 23.167969 8.820312 23.175781 11.273438 L 23.175781 18.726562 C 23.167969 21.179688 21.179688 23.167969 18.726562 23.175781 Z M 11.273438 7.65625 C 9.273438 7.65625 7.65625 9.273438 7.65625 11.273438 L 7.65625 18.726562 C 7.660156 20.722656 9.277344 22.339844 11.273438 22.34375 L 18.726562 22.34375 C 20.722656 22.339844 22.339844 20.722656 22.34375 18.726562 L 22.34375 11.273438 C 22.339844 9.277344 20.722656 7.660156 18.726562 7.65625 Z M 11.273438 7.65625 "/>
<path style=" stroke:none;fill-rule:nonzero;fill:white;fill-opacity:1;" d="M 14.988281 20.066406 C 12.195312 20.0625 9.929688 17.792969 9.933594 14.996094 C 9.933594 12.199219 12.199219 9.933594 14.996094 9.933594 C 17.792969 9.929688 20.0625 12.195312 20.066406 14.988281 C 20.070312 16.335938 19.535156 17.628906 18.582031 18.582031 C 17.628906 19.535156 16.335938 20.070312 14.988281 20.066406 Z M 14.988281 10.753906 C 12.644531 10.753906 10.742188 12.65625 10.742188 15.003906 C 10.746094 17.351562 12.648438 19.25 14.996094 19.246094 C 17.34375 19.242188 19.242188 17.335938 19.238281 14.988281 C 19.226562 12.652344 17.328125 10.757812 14.988281 10.753906 Z M 14.988281 10.753906 "/>
<path style=" stroke:none;fill-rule:nonzero;fill:white;fill-opacity:1;" d="M 20.796875 10.171875 C 20.808594 10.390625 20.726562 10.605469 20.570312 10.761719 C 20.417969 10.917969 20.207031 11 19.988281 10.992188 C 19.566406 10.988281 19.226562 10.644531 19.226562 10.222656 C 19.214844 10.011719 19.289062 9.808594 19.429688 9.652344 C 19.574219 9.5 19.777344 9.414062 19.988281 9.414062 C 20.195312 9.402344 20.402344 9.476562 20.554688 9.621094 C 20.707031 9.765625 20.792969 9.964844 20.796875 10.171875 Z M 20.796875 10.171875 "/>
</g>
</svg>
