<?xml version="1.0" encoding="UTF-8"?>
<svg xmlns="http://www.w3.org/2000/svg" xmlns:xlink="http://www.w3.org/1999/xlink" width="30px" height="30px" viewBox="0 0 30 30" version="1.1">
<g id="surface1">
<path style=" stroke:none;fill-rule:nonzero;fill:white;fill-opacity:1;" d="M 15.011719 30.019531 C 6.730469 30.019531 0 23.289062 0 15.011719 C 0 6.730469 6.730469 0 15.011719 0 C 23.289062 0 30.019531 6.730469 30.019531 15.011719 C 30.019531 23.289062 23.289062 30.019531 15.011719 30.019531 Z M 15.011719 1.03125 C 7.300781 1.03125 1.03125 7.300781 1.03125 15.011719 C 1.03125 22.71875 7.300781 28.988281 15.011719 28.988281 C 22.71875 28.988281 28.988281 22.71875 28.988281 15.011719 C 28.988281 7.300781 22.71875 1.03125 15.011719 1.03125 Z M 15.011719 1.03125 "/>
<path style=" stroke:none;fill-rule:nonzero;fill:white;fill-opacity:1;" d="M 24.46875 22.710938 L 19.691406 22.710938 L 19.691406 16.640625 C 19.691406 16.441406 19.691406 16.230469 19.660156 16.03125 C 19.539062 15.261719 19.148438 15.128906 18.828125 15.089844 C 18.210938 15.019531 17.710938 15.320312 17.558594 15.828125 C 17.429688 16.28125 17.359375 16.789062 17.351562 17.351562 C 17.328125 18.398438 17.328125 19.460938 17.339844 20.511719 L 17.339844 22.699219 C 17.339844 22.699219 12.609375 22.699219 12.609375 22.699219 L 12.609375 11.46875 L 17.070312 11.46875 L 17.070312 12.601562 C 18.191406 11.449219 19.640625 11.011719 21.390625 11.269531 C 23.28125 11.558594 24.398438 12.980469 24.460938 15.160156 C 24.5 16.589844 24.488281 18.050781 24.488281 19.460938 C 24.488281 20.089844 24.488281 20.710938 24.488281 21.339844 L 24.488281 22.699219 Z M 20.390625 22.011719 L 23.769531 21.988281 L 23.769531 21.339844 C 23.769531 20.710938 23.769531 20.089844 23.769531 19.460938 C 23.769531 18.058594 23.78125 16.609375 23.738281 15.179688 C 23.699219 13.878906 23.238281 12.261719 21.269531 11.960938 C 19.679688 11.71875 18.441406 12.121094 17.449219 13.199219 C 17.371094 13.289062 17.28125 13.378906 17.171875 13.5 L 16.351562 14.351562 L 16.351562 12.171875 L 13.289062 12.171875 L 13.289062 22 L 16.621094 22 L 16.621094 20.511719 C 16.621094 19.449219 16.621094 18.390625 16.628906 17.328125 C 16.640625 16.71875 16.71875 16.148438 16.871094 15.640625 C 17.109375 14.789062 17.921875 14.289062 18.878906 14.390625 C 19.441406 14.449219 20.148438 14.761719 20.328125 15.921875 C 20.371094 16.148438 20.371094 16.398438 20.371094 16.628906 L 20.371094 20.441406 C 20.371094 20.441406 20.371094 22 20.371094 22 Z M 20.390625 22.011719 "/>
<path style=" stroke:none;fill-rule:nonzero;fill:white;fill-opacity:1;" d="M 10.660156 22.699219 L 5.960938 22.699219 L 5.960938 11.46875 L 10.660156 11.46875 Z M 6.660156 22 L 9.960938 22 L 9.960938 12.171875 L 6.660156 12.171875 Z M 6.660156 22 "/>
<path style=" stroke:none;fill-rule:nonzero;fill:white;fill-opacity:1;" d="M 8.28125 10.441406 C 8.28125 10.441406 8.261719 10.441406 8.25 10.441406 C 6.921875 10.429688 5.878906 9.449219 5.890625 8.21875 C 5.890625 7.011719 6.96875 6.011719 8.28125 6.019531 C 8.960938 6.019531 9.621094 6.300781 10.078125 6.769531 C 10.488281 7.191406 10.710938 7.71875 10.691406 8.269531 C 10.660156 9.46875 9.578125 10.429688 8.28125 10.429688 Z M 8.261719 9.738281 C 9.179688 9.730469 9.96875 9.089844 9.988281 8.261719 C 9.988281 7.898438 9.851562 7.550781 9.578125 7.269531 C 9.25 6.929688 8.769531 6.730469 8.28125 6.730469 C 7.359375 6.730469 6.601562 7.390625 6.589844 8.230469 C 6.589844 9.070312 7.320312 9.730469 8.261719 9.738281 Z M 8.261719 9.738281 "/>
</g>
</svg>
