<?xml version="1.0" encoding="UTF-8"?>
<svg xmlns="http://www.w3.org/2000/svg" xmlns:xlink="http://www.w3.org/1999/xlink" width="30px" height="30px" viewBox="0 0 30 30" version="1.1">
<g id="surface1">
<path style=" stroke:none;fill-rule:nonzero;fill:white;fill-opacity:1;" d="M 16.507812 23.722656 L 12.511719 23.722656 L 12.511719 14.988281 L 10.644531 14.988281 L 10.644531 11.582031 L 12.511719 11.582031 L 12.511719 9.253906 C 12.511719 7.597656 13.855469 6.253906 15.507812 6.253906 L 19.398438 6.253906 L 19.398438 9.753906 L 16.828125 9.753906 C 16.652344 9.753906 16.507812 9.898438 16.507812 10.074219 L 16.507812 11.550781 L 19.417969 11.550781 L 19.046875 14.988281 L 16.507812 14.988281 Z M 13.300781 22.925781 L 15.710938 22.925781 L 15.710938 14.230469 L 18.328125 14.230469 L 18.527344 12.339844 L 15.710938 12.339844 L 15.710938 10.074219 C 15.730469 9.472656 16.226562 8.992188 16.828125 8.992188 L 18.566406 8.992188 L 18.566406 7.074219 L 15.480469 7.074219 C 14.277344 7.074219 13.300781 8.050781 13.300781 9.253906 L 13.300781 12.339844 L 11.433594 12.339844 L 11.433594 14.230469 L 13.300781 14.230469 Z M 13.300781 22.925781 "/>
<path style=" stroke:none;fill-rule:nonzero;fill:white;fill-opacity:1;" d="M 14.988281 29.980469 C 6.710938 29.980469 0 23.269531 0 14.988281 C 0 6.710938 6.710938 0 14.988281 0 C 23.269531 0 29.980469 6.710938 29.980469 14.988281 C 29.980469 23.269531 23.269531 29.980469 14.988281 29.980469 Z M 14.988281 1 C 7.261719 1 1 7.261719 1 14.988281 C 1 22.71875 7.261719 28.980469 14.988281 28.980469 C 22.71875 28.980469 28.980469 22.71875 28.980469 14.988281 C 28.980469 7.261719 22.71875 1 14.988281 1 Z M 14.988281 1 "/>
</g>
</svg>
