<?xml version="1.0" encoding="UTF-8"?>
<svg xmlns="http://www.w3.org/2000/svg" xmlns:xlink="http://www.w3.org/1999/xlink" width="30px" height="30px" viewBox="0 0 30 30" version="1.1">
<g id="surface1">
<path style=" stroke:none;fill-rule:nonzero;fill:white;fill-opacity:1;" d="M 14.988281 29.980469 C 6.710938 29.980469 0 23.269531 0 14.988281 C 0 6.710938 6.710938 0 14.988281 0 C 23.269531 0 29.980469 6.710938 29.980469 14.988281 C 29.980469 23.269531 23.269531 29.980469 14.988281 29.980469 Z M 14.988281 1 C 7.261719 1 1 7.261719 1 14.988281 C 1 22.71875 7.261719 28.980469 14.988281 28.980469 C 22.71875 28.980469 28.980469 22.71875 28.980469 14.988281 C 28.980469 7.261719 22.71875 1 14.988281 1 Z M 14.988281 1 "/>
<path style=" stroke:none;fill-rule:nonzero;fill:white;fill-opacity:1;" d="M 14.988281 20.816406 C 12.816406 20.816406 10.660156 20.738281 8.515625 20.585938 C 7.652344 20.511719 6.960938 19.84375 6.855469 18.988281 C 6.503906 16.039062 6.503906 13.0625 6.855469 10.113281 C 6.945312 9.234375 7.644531 8.546875 8.523438 8.472656 C 12.847656 8.164062 17.191406 8.164062 21.515625 8.472656 C 22.382812 8.554688 23.078125 9.226562 23.183594 10.09375 C 23.535156 13.039062 23.535156 16.019531 23.183594 18.96875 C 23.078125 19.832031 22.382812 20.507812 21.515625 20.585938 C 19.328125 20.734375 17.160156 20.816406 14.988281 20.816406 Z M 14.988281 8.992188 C 12.84375 8.992188 10.707031 9.074219 8.574219 9.234375 C 8.074219 9.261719 7.675781 9.65625 7.636719 10.152344 C 7.296875 13.035156 7.296875 15.945312 7.636719 18.828125 C 7.675781 19.324219 8.074219 19.71875 8.574219 19.746094 C 12.847656 20.058594 17.132812 20.058594 21.40625 19.746094 C 21.90625 19.71875 22.304688 19.324219 22.34375 18.828125 C 22.683594 15.945312 22.683594 13.035156 22.34375 10.152344 C 22.304688 9.65625 21.90625 9.261719 21.40625 9.234375 C 19.289062 9.113281 17.136719 8.992188 14.988281 8.992188 Z M 13.550781 17.089844 C 13.441406 17.089844 13.332031 17.058594 13.242188 17 C 13.050781 16.890625 12.933594 16.6875 12.929688 16.46875 L 12.929688 12.070312 C 12.9375 11.855469 13.054688 11.652344 13.242188 11.542969 C 13.429688 11.433594 13.664062 11.433594 13.851562 11.542969 L 17.726562 13.761719 C 17.917969 13.867188 18.039062 14.070312 18.039062 14.289062 C 18.039062 14.511719 17.921875 14.714844 17.726562 14.820312 L 13.851562 17.046875 C 13.761719 17.097656 13.664062 17.125 13.5625 17.128906 Z M 13.730469 12.351562 L 13.730469 16.148438 L 17.046875 14.25 Z M 17.328125 14.089844 Z M 17.328125 14.089844 "/>
</g>
</svg>
