<?xml version="1.0" encoding="UTF-8"?>
<svg xmlns="http://www.w3.org/2000/svg" xmlns:xlink="http://www.w3.org/1999/xlink" width="30px" height="30px" viewBox="0 0 30 30" version="1.1">
<g id="surface1">
<path style=" stroke:none;fill-rule:nonzero;fill:white;fill-opacity:1;" d="M 14.988281 29.980469 C 6.710938 29.980469 0 23.269531 0 14.988281 C 0 6.710938 6.710938 0 14.988281 0 C 23.269531 0 29.980469 6.710938 29.980469 14.988281 C 29.980469 23.269531 23.269531 29.980469 14.988281 29.980469 Z M 14.988281 1 C 7.261719 1 1 7.261719 1 14.988281 C 1 22.71875 7.261719 28.980469 14.988281 28.980469 C 22.71875 28.980469 28.980469 22.71875 28.980469 14.988281 C 28.980469 7.261719 22.71875 1 14.988281 1 Z M 14.988281 1 "/>
<path style=" stroke:none;fill-rule:nonzero;fill:white;fill-opacity:1;" d="M 9.332031 18.878906 C 7.3125 18.878906 5.675781 17.238281 5.675781 15.214844 C 5.679688 13.195312 7.320312 11.558594 9.339844 11.5625 C 11.363281 11.566406 12.996094 13.207031 12.992188 15.230469 C 12.984375 17.246094 11.351562 18.878906 9.332031 18.878906 Z M 9.332031 12.371094 C 8.175781 12.367188 7.132812 13.0625 6.6875 14.128906 C 6.242188 15.195312 6.484375 16.429688 7.300781 17.246094 C 8.117188 18.066406 9.347656 18.3125 10.414062 17.871094 C 11.484375 17.429688 12.183594 16.386719 12.183594 15.230469 C 12.183594 13.65625 10.910156 12.378906 9.332031 12.371094 Z M 9.332031 12.371094 "/>
<path style=" stroke:none;fill-rule:nonzero;fill:white;fill-opacity:1;" d="M 20.835938 18.878906 C 19.355469 18.882812 18.019531 17.992188 17.449219 16.625 C 16.878906 15.257812 17.191406 13.679688 18.238281 12.632812 C 19.289062 11.585938 20.863281 11.273438 22.230469 11.84375 C 23.597656 12.410156 24.488281 13.75 24.484375 15.230469 C 24.476562 17.242188 22.847656 18.871094 20.835938 18.878906 Z M 20.835938 12.371094 C 19.679688 12.367188 18.632812 13.0625 18.1875 14.128906 C 17.742188 15.195312 17.984375 16.429688 18.800781 17.246094 C 19.617188 18.066406 20.847656 18.3125 21.917969 17.871094 C 22.988281 17.429688 23.683594 16.386719 23.683594 15.230469 C 23.683594 13.65625 22.410156 12.378906 20.835938 12.371094 Z M 20.835938 12.371094 "/>
</g>
</svg>
