<?xml version="1.0" encoding="UTF-8"?>
<svg xmlns="http://www.w3.org/2000/svg" xmlns:xlink="http://www.w3.org/1999/xlink" width="253px" height="101px" viewBox="0 0 252 101" version="1.1">
<g id="surface1">
<path style=" stroke:none;fill-rule:nonzero;fill:rgb(100%,100%,100%);fill-opacity:1;" d="M 94.878906 47.21875 C 95.257812 47.722656 95.382812 47.847656 95.382812 48.101562 C 96.011719 52.644531 96.640625 57.191406 97.273438 61.609375 C 97.648438 64.515625 98.027344 67.417969 98.53125 70.320312 C 98.65625 70.953125 99.414062 71.960938 99.917969 72.089844 C 101.429688 72.339844 102.941406 72.339844 104.453125 72.214844 C 104.707031 72.214844 105.085938 71.710938 105.085938 71.332031 C 105.335938 69.941406 105.460938 68.679688 105.714844 67.292969 C 106.46875 62.242188 107.226562 57.066406 107.980469 52.015625 C 108.359375 49.363281 108.738281 46.710938 109.117188 44.0625 C 109.242188 44.0625 109.367188 44.0625 109.621094 44.0625 C 109.621094 44.945312 109.621094 45.828125 109.621094 46.839844 C 109.621094 53.910156 109.621094 60.851562 109.621094 67.921875 C 109.621094 69.183594 109.242188 71.078125 109.871094 71.710938 C 110.628906 72.46875 112.390625 72.089844 113.777344 72.089844 C 115.792969 72.089844 115.792969 72.089844 115.792969 69.941406 C 115.792969 57.191406 115.792969 44.3125 115.792969 31.5625 C 115.792969 31.058594 115.921875 30.425781 115.667969 29.921875 C 115.542969 29.542969 115.164062 29.164062 114.910156 29.164062 C 112.015625 29.164062 109.117188 29.164062 106.09375 29.164062 C 104.832031 38.253906 103.570312 47.21875 102.4375 56.179688 C 102.3125 56.179688 102.1875 56.179688 102.058594 56.179688 C 101.808594 54.289062 101.683594 52.265625 101.304688 50.375 C 100.421875 43.808594 99.414062 37.242188 98.53125 30.679688 C 98.40625 29.667969 98.152344 29.164062 97.019531 29.289062 C 94.625 29.289062 92.230469 29.417969 89.839844 29.289062 C 88.578125 29.289062 88.324219 29.667969 88.324219 30.804688 C 88.324219 44.0625 88.324219 57.316406 88.324219 70.699219 C 88.324219 71.835938 88.578125 72.339844 89.839844 72.214844 C 90.847656 72.089844 91.855469 72.214844 92.988281 72.214844 C 94.753906 72.214844 94.878906 72.089844 94.878906 70.320312 C 94.878906 63.25 94.878906 56.179688 94.753906 49.109375 C 94.753906 48.734375 94.753906 48.226562 94.878906 47.21875 Z M 94.878906 47.21875 "/>
<path style=" stroke:none;fill-rule:nonzero;fill:rgb(100%,100%,100%);fill-opacity:1;" d="M 26.082031 50.878906 C 26.082031 57.570312 26.082031 64.136719 26.082031 70.828125 C 26.082031 71.960938 26.335938 72.46875 27.59375 72.46875 C 32.761719 72.46875 37.800781 72.46875 42.964844 72.46875 C 43.972656 72.46875 44.476562 72.089844 44.351562 71.078125 C 44.351562 69.941406 44.351562 68.679688 44.351562 67.542969 C 44.351562 66.535156 43.972656 66.15625 42.964844 66.15625 C 40.320312 66.15625 37.675781 66.15625 35.027344 66.15625 C 33.769531 66.15625 33.136719 65.648438 33.136719 64.386719 C 33.136719 61.230469 33.136719 58.203125 33.136719 55.046875 C 33.136719 53.78125 33.640625 53.152344 35.027344 53.152344 C 37.042969 53.152344 38.933594 53.152344 40.949219 53.152344 C 41.832031 53.152344 42.210938 52.773438 42.210938 51.890625 C 42.210938 50.625 42.085938 49.363281 42.210938 48.226562 C 42.335938 47.089844 41.832031 46.585938 40.699219 46.710938 C 38.683594 46.839844 36.539062 46.710938 34.523438 46.710938 C 33.640625 46.710938 33.265625 46.460938 33.265625 45.578125 C 33.265625 43.175781 33.265625 40.90625 33.390625 38.507812 C 33.390625 36.738281 34.144531 35.980469 35.910156 35.855469 C 37.296875 35.730469 38.808594 35.730469 40.195312 35.730469 C 44.605469 35.730469 44.980469 35.222656 44.730469 30.804688 C 44.605469 29.667969 44.226562 29.417969 43.09375 29.417969 C 38.179688 29.417969 33.136719 29.542969 28.222656 29.417969 C 26.839844 29.417969 26.335938 29.796875 26.335938 31.183594 C 26.207031 37.75 26.082031 44.3125 26.082031 50.878906 Z M 26.082031 50.878906 "/>
<path style=" stroke:none;fill-rule:nonzero;fill:rgb(100%,100%,100%);fill-opacity:1;" d="M 124.992188 50.753906 C 124.992188 57.445312 124.992188 64.007812 124.992188 70.699219 C 124.992188 71.835938 125.242188 72.339844 126.628906 72.339844 C 131.671875 72.339844 136.585938 72.339844 141.625 72.339844 C 142.632812 72.339844 143.261719 72.089844 143.261719 70.828125 C 143.136719 69.941406 143.261719 68.933594 143.261719 68.046875 C 143.261719 66.027344 143.261719 66.027344 141.246094 66.027344 C 138.601562 66.027344 136.078125 66.027344 133.433594 66.027344 C 132.425781 66.027344 132.046875 65.648438 132.046875 64.640625 C 132.046875 61.230469 132.046875 57.824219 132.046875 54.414062 C 132.046875 53.277344 132.425781 53.023438 133.558594 53.023438 C 135.574219 53.152344 137.464844 53.023438 139.480469 53.023438 C 140.617188 53.023438 141.121094 52.773438 140.992188 51.511719 C 140.867188 50.375 140.867188 49.363281 140.992188 48.226562 C 141.121094 46.964844 140.742188 46.460938 139.355469 46.585938 C 137.339844 46.710938 135.449219 46.585938 133.433594 46.585938 C 132.425781 46.585938 132.046875 46.332031 132.046875 45.199219 C 132.046875 42.292969 132.175781 39.515625 132.046875 36.613281 C 132.046875 35.476562 132.425781 35.222656 133.433594 35.222656 C 135.199219 35.222656 136.960938 35.222656 138.726562 35.222656 C 143.261719 35.222656 143.261719 35.222656 143.261719 30.679688 C 143.261719 29.289062 142.757812 29.039062 141.496094 29.039062 C 136.585938 29.039062 131.796875 29.039062 126.882812 29.039062 C 124.992188 29.039062 124.992188 29.039062 124.992188 30.929688 C 124.992188 37.75 124.992188 44.3125 124.992188 50.753906 Z M 124.992188 50.753906 "/>
<path style=" stroke:none;fill-rule:nonzero;fill:rgb(100%,100%,100%);fill-opacity:1;" d="M 56.824219 35.980469 C 56.824219 36.613281 56.824219 36.992188 56.824219 37.496094 C 56.824219 45.703125 56.824219 54.035156 56.824219 62.242188 C 56.824219 65.144531 56.824219 68.046875 56.824219 70.953125 C 56.824219 71.960938 57.203125 72.46875 58.339844 72.46875 C 59.597656 72.339844 60.730469 72.46875 61.992188 72.46875 C 63.882812 72.46875 64.007812 72.46875 64.007812 70.574219 C 64.007812 59.464844 64.007812 48.355469 64.007812 37.242188 C 64.007812 36.109375 64.386719 35.601562 65.519531 35.730469 C 66.90625 35.855469 68.292969 35.730469 69.679688 35.730469 C 70.6875 35.730469 71.0625 35.351562 71.0625 34.339844 C 71.0625 33.203125 71.0625 32.066406 71.0625 30.929688 C 71.0625 29.921875 70.6875 29.542969 69.679688 29.542969 C 63.628906 29.542969 57.582031 29.542969 51.535156 29.542969 C 50.527344 29.542969 50.148438 29.921875 50.148438 30.804688 C 50.148438 32.195312 50.148438 33.457031 50.148438 34.84375 C 50.148438 35.730469 50.527344 36.109375 51.535156 36.109375 C 53.046875 35.855469 54.808594 35.980469 56.824219 35.980469 Z M 56.824219 35.980469 "/>
<path style=" stroke:none;fill-rule:nonzero;fill:rgb(100%,100%,100%);fill-opacity:1;" d="M 1.386719 50.878906 C 1.386719 57.570312 1.386719 64.136719 1.386719 70.828125 C 1.386719 71.960938 1.636719 72.46875 2.898438 72.46875 C 7.8125 72.46875 12.601562 72.46875 17.515625 72.46875 C 18.648438 72.46875 19.027344 71.960938 19.027344 70.953125 C 19.027344 69.816406 19.027344 68.554688 19.027344 67.417969 C 19.027344 66.28125 18.648438 65.902344 17.515625 65.902344 C 14.992188 65.902344 12.472656 65.902344 9.953125 65.902344 C 8.695312 65.902344 8.191406 65.648438 8.316406 64.261719 C 8.441406 59.714844 8.316406 55.171875 8.316406 50.5 C 8.316406 44.0625 8.316406 37.496094 8.316406 31.058594 C 8.316406 29.796875 7.9375 29.289062 6.679688 29.417969 C 5.417969 29.542969 4.15625 29.542969 3.023438 29.417969 C 1.765625 29.289062 1.386719 29.796875 1.386719 31.058594 C 1.386719 37.621094 1.386719 44.1875 1.386719 50.878906 Z M 1.386719 50.878906 "/>
<path style=" stroke:none;fill-rule:nonzero;fill:rgb(100%,100%,100%);fill-opacity:1;" d="M 94.878906 47.21875 C 94.753906 48.101562 94.753906 48.605469 94.753906 49.109375 C 94.753906 56.179688 94.753906 63.25 94.878906 70.320312 C 94.878906 72.089844 94.753906 72.214844 92.988281 72.214844 C 91.980469 72.214844 90.972656 72.089844 89.839844 72.214844 C 88.578125 72.339844 88.324219 71.835938 88.324219 70.699219 C 88.324219 57.445312 88.324219 44.1875 88.324219 30.804688 C 88.324219 29.667969 88.578125 29.164062 89.839844 29.289062 C 92.230469 29.417969 94.625 29.417969 97.019531 29.289062 C 98.152344 29.289062 98.40625 29.667969 98.53125 30.679688 C 99.414062 37.242188 100.421875 43.808594 101.304688 50.375 C 101.554688 52.265625 101.808594 54.289062 102.058594 56.179688 C 102.1875 56.179688 102.3125 56.179688 102.4375 56.179688 C 103.699219 47.21875 104.832031 38.253906 106.09375 29.164062 C 109.117188 29.164062 112.015625 29.164062 114.910156 29.164062 C 115.164062 29.164062 115.667969 29.667969 115.667969 29.921875 C 115.792969 30.425781 115.792969 30.929688 115.792969 31.5625 C 115.792969 44.3125 115.792969 57.191406 115.792969 69.941406 C 115.792969 72.089844 115.792969 72.089844 113.777344 72.089844 C 112.390625 72.089844 110.628906 72.46875 109.871094 71.710938 C 109.242188 71.078125 109.621094 69.183594 109.621094 67.921875 C 109.621094 60.851562 109.621094 53.910156 109.621094 46.839844 C 109.621094 45.953125 109.621094 45.070312 109.621094 44.0625 C 109.492188 44.0625 109.367188 44.0625 109.117188 44.0625 C 108.738281 46.710938 108.359375 49.363281 107.980469 52.015625 C 107.226562 57.066406 106.46875 62.242188 105.714844 67.292969 C 105.460938 68.679688 105.335938 70.070312 105.085938 71.332031 C 105.085938 71.710938 104.707031 72.214844 104.453125 72.214844 C 102.941406 72.214844 101.429688 72.339844 99.917969 72.089844 C 99.289062 71.960938 98.65625 70.953125 98.53125 70.320312 C 98.027344 67.417969 97.777344 64.515625 97.273438 61.609375 C 96.640625 57.066406 96.011719 52.519531 95.382812 48.101562 C 95.382812 47.976562 95.128906 47.847656 94.878906 47.21875 Z M 94.878906 47.21875 "/>
<path style=" stroke:none;fill-rule:nonzero;fill:rgb(100%,100%,100%);fill-opacity:1;" d="M 26.082031 50.878906 C 26.082031 44.3125 26.082031 37.75 26.082031 31.308594 C 26.082031 29.921875 26.460938 29.417969 27.972656 29.542969 C 32.886719 29.667969 37.925781 29.542969 42.839844 29.542969 C 43.847656 29.542969 44.351562 29.796875 44.476562 30.929688 C 44.855469 35.351562 44.351562 35.855469 39.941406 35.855469 C 38.554688 35.855469 37.042969 35.855469 35.65625 35.980469 C 33.894531 36.109375 33.265625 36.863281 33.136719 38.632812 C 33.011719 41.03125 33.136719 43.304688 33.011719 45.703125 C 33.011719 46.585938 33.390625 46.964844 34.273438 46.839844 C 36.289062 46.839844 38.429688 46.839844 40.445312 46.839844 C 41.578125 46.839844 42.085938 47.21875 41.957031 48.355469 C 41.832031 49.617188 41.957031 50.753906 41.957031 52.015625 C 41.957031 52.898438 41.578125 53.277344 40.699219 53.277344 C 38.683594 53.277344 36.792969 53.277344 34.777344 53.277344 C 33.515625 53.277344 32.886719 53.78125 32.886719 55.171875 C 32.886719 58.328125 32.886719 61.359375 32.886719 64.515625 C 32.886719 65.902344 33.515625 66.28125 34.777344 66.28125 C 37.421875 66.28125 40.066406 66.28125 42.714844 66.28125 C 43.722656 66.28125 44.101562 66.660156 44.101562 67.671875 C 44.101562 68.804688 44.101562 70.070312 44.101562 71.203125 C 44.101562 72.214844 43.722656 72.59375 42.714844 72.59375 C 37.546875 72.59375 32.507812 72.59375 27.34375 72.59375 C 26.082031 72.59375 25.828125 72.089844 25.828125 70.953125 C 26.082031 64.136719 26.082031 57.570312 26.082031 50.878906 Z M 26.082031 50.878906 "/>
<path style=" stroke:none;fill-rule:nonzero;fill:rgb(100%,100%,100%);fill-opacity:1;" d="M 124.992188 50.753906 C 124.992188 44.3125 124.992188 37.75 124.992188 31.308594 C 124.992188 29.417969 124.992188 29.417969 126.882812 29.417969 C 131.796875 29.417969 136.585938 29.417969 141.496094 29.417969 C 142.757812 29.417969 143.261719 29.667969 143.261719 31.058594 C 143.261719 35.601562 143.261719 35.601562 138.726562 35.601562 C 136.960938 35.601562 135.199219 35.601562 133.433594 35.601562 C 132.425781 35.601562 132.046875 35.855469 132.046875 36.992188 C 132.175781 39.894531 132.175781 42.671875 132.046875 45.578125 C 132.046875 46.710938 132.425781 46.964844 133.433594 46.964844 C 135.449219 46.964844 137.339844 46.964844 139.355469 46.964844 C 140.742188 46.839844 141.121094 47.46875 140.992188 48.605469 C 140.867188 49.742188 140.867188 50.753906 140.992188 51.890625 C 141.121094 53.152344 140.617188 53.402344 139.480469 53.402344 C 137.464844 53.277344 135.574219 53.402344 133.558594 53.402344 C 132.550781 53.402344 132.046875 53.65625 132.046875 54.792969 C 132.046875 58.203125 132.046875 61.609375 132.046875 65.019531 C 132.046875 66.027344 132.425781 66.40625 133.433594 66.40625 C 136.078125 66.40625 138.601562 66.40625 141.246094 66.40625 C 143.261719 66.40625 143.261719 66.40625 143.261719 68.425781 C 143.261719 69.3125 143.136719 70.320312 143.261719 71.203125 C 143.386719 72.46875 142.757812 72.71875 141.625 72.71875 C 136.585938 72.71875 131.671875 72.71875 126.628906 72.71875 C 125.371094 72.71875 124.992188 72.214844 124.992188 71.078125 C 125.117188 64.007812 124.992188 57.445312 124.992188 50.753906 Z M 124.992188 50.753906 "/>
<path style=" stroke:none;fill-rule:nonzero;fill:rgb(100%,100%,100%);fill-opacity:1;" d="M 56.824219 35.980469 C 54.808594 35.980469 53.046875 35.980469 51.28125 35.980469 C 50.273438 35.980469 49.894531 35.601562 49.894531 34.71875 C 49.894531 33.328125 49.894531 32.066406 49.894531 30.679688 C 49.894531 29.796875 50.273438 29.417969 51.28125 29.417969 C 57.328125 29.417969 63.378906 29.417969 69.425781 29.417969 C 70.433594 29.417969 70.9375 29.796875 70.8125 30.804688 C 70.8125 31.941406 70.8125 33.078125 70.8125 34.214844 C 70.8125 35.222656 70.433594 35.601562 69.425781 35.601562 C 68.039062 35.601562 66.652344 35.601562 65.269531 35.601562 C 64.132812 35.601562 63.757812 35.980469 63.757812 37.117188 C 63.757812 48.226562 63.757812 59.335938 63.757812 70.449219 C 63.757812 72.339844 63.757812 72.339844 61.738281 72.339844 C 60.480469 72.339844 59.21875 72.339844 58.085938 72.339844 C 56.953125 72.46875 56.574219 71.960938 56.574219 70.828125 C 56.574219 67.921875 56.574219 65.019531 56.574219 62.113281 C 56.574219 53.910156 56.574219 45.578125 56.574219 37.371094 C 56.824219 36.992188 56.824219 36.613281 56.824219 35.980469 Z M 56.824219 35.980469 "/>
<path style=" stroke:none;fill-rule:nonzero;fill:rgb(100%,100%,100%);fill-opacity:1;" d="M 1.386719 50.878906 C 1.386719 44.3125 1.386719 37.75 1.386719 31.058594 C 1.386719 29.796875 1.765625 29.289062 3.023438 29.417969 C 4.285156 29.542969 5.542969 29.542969 6.679688 29.417969 C 8.0625 29.289062 8.316406 29.796875 8.316406 31.058594 C 8.316406 37.496094 8.316406 44.0625 8.316406 50.5 C 8.316406 55.046875 8.316406 59.589844 8.316406 64.261719 C 8.316406 65.648438 8.695312 65.902344 9.953125 65.902344 C 12.472656 65.777344 14.992188 65.902344 17.515625 65.902344 C 18.648438 65.902344 19.027344 66.28125 19.027344 67.417969 C 19.027344 68.554688 19.027344 69.816406 19.027344 70.953125 C 19.027344 71.960938 18.648438 72.46875 17.515625 72.46875 C 12.601562 72.46875 7.8125 72.46875 2.898438 72.46875 C 1.636719 72.46875 1.386719 71.960938 1.386719 70.828125 C 1.386719 64.136719 1.386719 57.445312 1.386719 50.878906 Z M 1.386719 50.878906 "/>
<path style=" stroke:none;fill-rule:nonzero;fill:rgb(100%,100%,100%);fill-opacity:1;" d="M 182.320312 51.382812 C 182.320312 55.675781 182.320312 59.84375 182.320312 64.136719 C 182.320312 66.28125 180.9375 67.796875 178.667969 67.542969 C 177.28125 67.417969 176.023438 67.164062 175.519531 65.777344 C 175.265625 65.144531 175.265625 64.515625 175.265625 63.882812 C 175.265625 55.800781 175.140625 47.722656 175.265625 39.640625 C 175.265625 38.757812 175.390625 37.875 175.644531 37.117188 C 176.023438 35.855469 177.15625 35.222656 178.414062 35.222656 C 179.296875 35.222656 180.179688 35.476562 180.9375 35.855469 C 181.945312 36.359375 182.195312 37.371094 182.195312 38.378906 C 182.320312 42.671875 182.195312 47.089844 182.320312 51.382812 Z M 182.320312 51.382812 "/>
<path style=" stroke:none;fill-rule:nonzero;fill:rgb(100%,100%,100%);fill-opacity:1;" d="M 198.953125 69.5625 C 198.199219 68.300781 197.695312 66.914062 197.566406 65.398438 C 197.441406 63.25 197.316406 60.980469 197.316406 58.832031 C 197.316406 49.488281 197.316406 40.019531 197.316406 30.679688 C 197.316406 29.921875 197.566406 29.796875 198.199219 29.796875 C 199.585938 29.796875 200.84375 29.796875 202.230469 29.796875 C 203.238281 29.796875 203.488281 30.171875 203.617188 31.058594 C 203.617188 31.816406 203.617188 32.574219 203.617188 33.203125 C 203.617188 42.925781 203.617188 52.644531 203.742188 62.492188 C 203.742188 63.628906 204.121094 64.890625 204.371094 66.027344 C 204.496094 66.40625 204.75 66.660156 205.003906 66.914062 C 206.261719 67.671875 207.523438 67.542969 208.78125 67.039062 C 210.042969 66.660156 210.546875 65.523438 210.546875 64.386719 C 210.671875 63.503906 210.671875 62.746094 210.671875 61.863281 C 210.671875 51.636719 210.671875 41.285156 210.671875 31.058594 C 210.671875 29.921875 210.796875 29.796875 212.058594 29.796875 C 213.316406 29.796875 214.578125 29.796875 215.839844 29.796875 C 216.46875 29.796875 216.71875 29.921875 216.71875 30.679688 C 216.71875 36.359375 216.71875 42.042969 216.71875 47.722656 C 216.71875 52.394531 216.71875 57.066406 216.71875 61.863281 C 221.507812 58.203125 226.421875 54.539062 231.210938 50.878906 C 231.210938 46.207031 231.210938 41.410156 231.210938 36.738281 C 231.210938 36.109375 230.957031 35.980469 230.453125 35.980469 C 228.691406 35.980469 227.050781 35.980469 225.289062 35.980469 C 224.65625 35.980469 224.40625 35.730469 224.40625 35.097656 C 224.40625 33.835938 224.40625 32.445312 224.40625 31.183594 C 224.40625 30.300781 224.65625 30.046875 225.539062 30.046875 C 231.460938 30.046875 237.382812 29.921875 243.433594 29.921875 C 244.1875 29.921875 244.566406 30.171875 244.566406 31.058594 C 244.566406 32.320312 244.566406 33.582031 244.566406 34.84375 C 244.566406 35.855469 244.3125 36.109375 243.304688 36.109375 C 241.667969 36.109375 240.15625 36.109375 238.519531 36.109375 C 237.886719 36.109375 237.636719 36.359375 237.636719 36.992188 C 237.636719 40.019531 237.636719 43.050781 237.636719 46.082031 C 242.171875 42.671875 246.707031 39.265625 251.117188 35.855469 C 251.117188 32.320312 251.117188 28.910156 251.117188 25.375 C 251.117188 24.617188 250.867188 24.492188 250.234375 24.492188 C 224.152344 24.492188 188.875 24.492188 162.792969 24.492188 C 162.539062 24.492188 162.289062 24.492188 161.910156 24.492188 C 161.910156 24.871094 161.910156 25.25 161.910156 25.628906 C 161.910156 42.671875 161.910156 59.589844 161.910156 76.632812 C 161.910156 77.644531 161.910156 77.644531 162.917969 77.644531 C 171.738281 77.644531 185.09375 77.644531 193.789062 77.644531 C 194.542969 77.644531 195.300781 77.644531 195.929688 77.644531 C 198.070312 76.003906 200.339844 74.359375 202.480469 72.59375 C 200.84375 71.835938 199.710938 70.953125 198.953125 69.5625 Z M 188.496094 63.757812 C 188.371094 65.777344 188.117188 68.046875 186.859375 69.816406 C 185.21875 71.960938 183.078125 73.351562 180.304688 73.476562 C 179.171875 73.605469 177.910156 73.476562 176.777344 73.351562 C 174.257812 73.097656 172.242188 71.835938 170.855469 69.816406 C 169.722656 68.175781 169.09375 66.15625 169.09375 64.136719 C 169.09375 59.84375 169.09375 55.675781 169.09375 51.382812 C 169.09375 47.089844 168.964844 42.671875 169.09375 38.378906 C 169.21875 35.097656 170.476562 32.320312 173.503906 30.550781 C 173.628906 30.550781 173.628906 30.425781 173.753906 30.425781 C 176.527344 29.667969 179.425781 28.785156 182.320312 29.796875 C 185.21875 30.679688 186.984375 32.699219 187.867188 35.601562 C 188.371094 36.992188 188.371094 38.632812 188.371094 40.148438 C 188.496094 43.808594 188.621094 47.46875 188.621094 51.003906 C 188.746094 55.171875 188.746094 59.464844 188.496094 63.757812 Z M 188.496094 63.757812 "/>
<path style=" stroke:none;fill-rule:nonzero;fill:rgb(89.411765%,0%,0%);fill-opacity:1;" d="M 213.570312 70.953125 C 219.367188 66.535156 225.160156 62.113281 230.957031 57.824219 C 230.957031 57.066406 230.957031 56.433594 230.957031 55.675781 C 230.957031 54.035156 230.957031 52.519531 230.957031 50.878906 C 226.171875 54.539062 221.257812 58.203125 216.46875 61.863281 C 216.46875 62.621094 216.46875 63.378906 216.46875 64.136719 C 216.46875 66.785156 215.335938 69.183594 213.570312 70.953125 Z M 213.570312 70.953125 "/>
<path style=" stroke:none;fill-rule:nonzero;fill:rgb(89.411765%,0%,0%);fill-opacity:1;" d="M 211.804688 72.214844 C 210.925781 72.71875 209.914062 73.097656 208.90625 73.351562 C 207.144531 73.730469 204.496094 73.476562 202.355469 72.46875 C 200.214844 74.109375 197.945312 75.75 195.804688 77.515625 C 198.828125 77.515625 201.851562 77.515625 205.003906 77.515625 C 207.144531 75.75 209.539062 73.984375 211.804688 72.214844 Z M 211.804688 72.214844 "/>
<path style=" stroke:none;fill-rule:nonzero;fill:rgb(89.411765%,0%,0%);fill-opacity:1;" d="M 237.257812 52.898438 C 241.792969 49.488281 246.328125 46.082031 250.738281 42.671875 C 250.738281 40.398438 250.738281 38 250.738281 35.730469 C 246.203125 39.136719 241.667969 42.546875 237.257812 45.953125 C 237.257812 48.355469 237.257812 50.625 237.257812 52.898438 Z M 237.257812 52.898438 "/>
<path style=" stroke:none;fill-rule:nonzero;fill:rgb(99.607843%,54.901961%,0%);fill-opacity:1;" d="M 230.957031 57.695312 C 225.160156 62.113281 219.367188 66.535156 213.570312 70.828125 C 213.066406 71.332031 212.4375 71.835938 211.804688 72.214844 C 209.539062 73.984375 207.144531 75.75 204.875 77.515625 C 207.898438 77.515625 210.925781 77.515625 214.074219 77.515625 C 219.742188 73.226562 225.289062 68.933594 230.957031 64.765625 C 230.957031 62.367188 230.957031 60.09375 230.957031 57.695312 Z M 230.957031 57.695312 "/>
<path style=" stroke:none;fill-rule:nonzero;fill:rgb(99.607843%,54.901961%,0%);fill-opacity:1;" d="M 237.257812 54.539062 C 237.257812 56.308594 237.257812 58.203125 237.257812 59.96875 C 241.792969 56.558594 246.328125 53.152344 250.738281 49.742188 C 250.738281 48.480469 250.738281 47.089844 250.738281 45.828125 C 250.738281 44.820312 250.738281 43.808594 250.738281 42.796875 C 246.203125 46.207031 241.667969 49.617188 237.257812 53.023438 C 237.257812 53.402344 237.257812 54.035156 237.257812 54.539062 Z M 237.257812 54.539062 "/>
<path style=" stroke:none;fill-rule:nonzero;fill:rgb(0.784314%,50.196078%,12.941176%);fill-opacity:1;" d="M 237.132812 69.691406 C 237.132812 70.574219 237.132812 71.332031 237.132812 72.214844 C 237.132812 72.59375 237.007812 72.847656 236.503906 72.71875 C 234.863281 72.71875 233.226562 72.59375 231.589844 72.59375 C 231.085938 72.59375 230.832031 72.46875 230.832031 71.960938 C 230.832031 71.835938 230.832031 71.710938 230.832031 71.710938 L 230.832031 71.582031 C 228.3125 73.476562 225.664062 75.496094 223.144531 77.390625 C 226.171875 77.390625 229.320312 77.390625 232.34375 77.390625 C 238.390625 72.71875 244.566406 68.175781 250.613281 63.503906 C 250.613281 61.230469 250.613281 58.832031 250.613281 56.558594 C 246.078125 59.96875 241.667969 63.378906 237.132812 66.785156 C 237.132812 67.796875 237.132812 68.804688 237.132812 69.691406 Z M 237.132812 69.691406 "/>
<path style=" stroke:none;fill-rule:nonzero;fill:rgb(0%,29.803922%,99.607843%);fill-opacity:1;" d="M 241.542969 77.265625 C 244.566406 74.992188 247.589844 72.71875 250.613281 70.449219 C 250.613281 68.175781 250.613281 65.777344 250.613281 63.503906 C 244.566406 68.175781 238.390625 72.71875 232.34375 77.390625 C 235.492188 77.265625 238.519531 77.265625 241.542969 77.265625 Z M 241.542969 77.265625 "/>
<path style=" stroke:none;fill-rule:nonzero;fill:rgb(99.607843%,92.941176%,0%);fill-opacity:1;" d="M 237.132812 66.914062 C 241.667969 63.503906 246.078125 60.09375 250.613281 56.6875 C 250.613281 54.414062 250.613281 52.015625 250.613281 49.742188 C 246.078125 53.152344 241.542969 56.558594 237.132812 59.96875 C 237.132812 62.242188 237.132812 64.640625 237.132812 66.914062 Z M 237.132812 66.914062 "/>
<path style=" stroke:none;fill-rule:nonzero;fill:rgb(99.607843%,92.941176%,0%);fill-opacity:1;" d="M 230.957031 64.640625 C 225.289062 68.933594 219.742188 73.226562 214.074219 77.390625 C 217.097656 77.390625 220.121094 77.390625 223.273438 77.390625 C 225.792969 75.496094 228.4375 73.476562 230.957031 71.582031 C 230.957031 69.3125 230.957031 67.039062 230.957031 64.640625 Z M 230.957031 64.640625 "/>
<path style=" stroke:none;fill-rule:nonzero;fill:rgb(46.666667%,0%,52.941176%);fill-opacity:1;" d="M 249.730469 77.265625 C 249.984375 77.265625 250.234375 77.265625 250.613281 77.265625 C 250.613281 77.011719 250.613281 76.761719 250.613281 76.507812 C 250.613281 74.488281 250.613281 72.46875 250.613281 70.449219 C 247.589844 72.71875 244.566406 74.992188 241.542969 77.265625 C 244.441406 77.265625 247.210938 77.265625 249.730469 77.265625 Z M 249.730469 77.265625 "/>
</g>
</svg>
