<?xml version="1.0" encoding="UTF-8"?>
<svg xmlns="http://www.w3.org/2000/svg" xmlns:xlink="http://www.w3.org/1999/xlink" width="300px" height="300px" viewBox="0 0 300 300" version="1.1">
<g id="surface1">
<path style=" stroke:none;fill-rule:nonzero;fill:rgb(50.588235%,50.588235%,50.588235%);fill-opacity:1;" d="M 149.363281 0 L 147.519531 0 C 64.6875 1.609375 -1.253906 69.875 0 152.710938 C 0.4375 192.304688 16.785156 230.058594 45.363281 257.464844 C 93.882812 304.800781 168.113281 313.730469 226.472656 279.253906 C 284.835938 244.777344 312.839844 175.457031 294.796875 110.117188 C 276.753906 44.777344 217.148438 -0.355469 149.363281 0 Z M 150.058594 285.28125 C 75.34375 285.28125 14.773438 224.714844 14.773438 150 C 14.773438 75.285156 75.34375 14.71875 150.058594 14.71875 C 224.773438 14.71875 285.339844 75.285156 285.339844 150 C 285.339844 224.714844 224.773438 285.28125 150.058594 285.28125 Z M 150.058594 285.28125 "/>
<path style=" stroke:none;fill-rule:nonzero;fill:rgb(54.509804%,54.509804%,54.509804%);fill-opacity:1;" d="M 212.621094 116.582031 L 111.390625 116.582031 C 110.066406 116.789062 108.824219 115.886719 108.617188 114.5625 C 105.617188 105.328125 102.5 96.152344 99.382812 86.976562 C 99.160156 85.425781 98.3125 84.03125 97.039062 83.117188 C 95.765625 82.203125 94.175781 81.84375 92.632812 82.128906 L 70.988281 82.128906 C 69.324219 81.890625 67.640625 82.394531 66.375 83.503906 C 65.109375 84.613281 64.394531 86.21875 64.410156 87.898438 C 64.390625 89.59375 65.117188 91.207031 66.394531 92.320312 C 67.671875 93.429688 69.371094 93.925781 71.046875 93.671875 L 87.496094 93.671875 C 88.824219 93.671875 89.398438 94.015625 89.746094 95.285156 C 90.09375 96.554688 90.785156 98.519531 91.304688 100.132812 C 94.191406 108.847656 97.480469 117.449219 99.730469 126.335938 C 104.40625 144.863281 108.503906 163.5625 112.832031 182.203125 C 112.972656 183.796875 113.765625 185.257812 115.023438 186.242188 C 116.28125 187.226562 117.890625 187.644531 119.46875 187.398438 L 199.230469 187.398438 C 200.871094 187.628906 202.535156 187.1875 203.847656 186.179688 C 205.160156 185.167969 206.011719 183.675781 206.214844 182.03125 C 210.675781 162.792969 215.082031 143.710938 219.429688 124.777344 C 220.699219 119.585938 218.277344 116.582031 212.621094 116.582031 Z M 195.304688 175.914062 L 125.183594 175.914062 C 124.257812 175.914062 123.507812 175.914062 123.164062 174.644531 C 119.757812 159.582031 116.238281 144.515625 112.773438 129.453125 C 112.773438 129.453125 112.773438 128.992188 112.773438 128.589844 L 206.386719 128.589844 Z M 195.304688 175.914062 "/>
<path style=" stroke:none;fill-rule:nonzero;fill:rgb(54.509804%,54.509804%,54.509804%);fill-opacity:1;" d="M 188.324219 195.191406 C 175.851562 195.414062 165.898438 205.664062 166.046875 218.136719 C 166.195312 230.609375 176.386719 240.621094 188.859375 240.550781 C 201.332031 240.476562 211.40625 230.347656 211.410156 217.871094 C 211.394531 211.789062 208.945312 205.96875 204.605469 201.707031 C 200.265625 197.445312 194.402344 195.097656 188.324219 195.191406 Z M 188.324219 228.664062 C 185.425781 228.695312 182.636719 227.566406 180.574219 225.527344 C 178.515625 223.488281 177.355469 220.710938 177.355469 217.816406 C 177.324219 211.789062 182.183594 206.882812 188.207031 206.847656 C 194.230469 206.816406 199.140625 211.675781 199.171875 217.699219 C 199.203125 223.722656 194.347656 228.632812 188.324219 228.664062 Z M 188.324219 228.664062 "/>
<path style=" stroke:none;fill-rule:nonzero;fill:rgb(54.509804%,54.509804%,54.509804%);fill-opacity:1;" d="M 130.03125 195.191406 C 117.566406 195.414062 107.617188 205.652344 107.753906 218.117188 C 107.890625 230.582031 118.0625 240.601562 130.527344 240.550781 C 142.996094 240.5 153.082031 230.394531 153.117188 217.929688 C 152.925781 205.316406 142.648438 195.1875 130.03125 195.191406 Z M 130.03125 228.664062 C 125.976562 228.902344 122.128906 226.855469 120.058594 223.355469 C 117.992188 219.859375 118.046875 215.5 120.210938 212.0625 C 122.371094 208.621094 126.273438 206.675781 130.320312 207.023438 C 135.988281 207.503906 140.324219 212.289062 140.246094 217.976562 C 140.171875 223.667969 135.710938 228.332031 130.03125 228.664062 Z M 130.03125 228.664062 "/>
</g>
</svg>
