<?xml version="1.0" encoding="UTF-8"?>
<svg xmlns="http://www.w3.org/2000/svg" xmlns:xlink="http://www.w3.org/1999/xlink" width="30px" height="30px" viewBox="0 0 30 30" version="1.1">
<g id="surface1">
<path style=" stroke:none;fill-rule:nonzero;fill:white;fill-opacity:1;" d="M 25.300781 21.898438 L 20.601562 21.898438 L 20.601562 15.898438 C 20.601562 15.699219 20.601562 15.5 20.601562 15.300781 C 20.5 14.5 20.101562 14.398438 19.699219 14.300781 C 19.101562 14.199219 18.5 14.5 18.398438 15.101562 C 18.300781 15.601562 18.199219 16.101562 18.199219 16.601562 C 18.199219 17.699219 18.199219 18.699219 18.199219 19.800781 L 18.199219 21.898438 L 13.601562 21.898438 L 13.601562 10.800781 L 18 10.800781 L 18 12 C 19.101562 10.800781 20.601562 10.300781 22.398438 10.601562 C 24.300781 10.898438 25.398438 12.300781 25.398438 14.398438 C 25.398438 15.800781 25.398438 17.300781 25.398438 18.699219 C 25.398438 19.300781 25.398438 19.898438 25.398438 20.601562 Z M 21.199219 21.398438 L 24.699219 21.398438 L 24.699219 20.699219 C 24.699219 20.101562 24.699219 19.5 24.699219 18.800781 C 24.699219 17.398438 24.699219 15.898438 24.699219 14.5 C 24.699219 12.601562 23.800781 11.5 22.199219 11.199219 C 20.601562 11 19.300781 11.398438 18.300781 12.398438 C 18.199219 12.5 18.101562 12.601562 18 12.699219 L 17.300781 13.5 L 17.300781 11.398438 L 14.101562 11.398438 L 14.101562 21.300781 L 17.5 21.300781 L 17.5 19.800781 C 17.5 18.699219 17.5 17.699219 17.5 16.601562 C 17.5 16 17.601562 15.398438 17.699219 14.898438 C 17.898438 14.101562 18.699219 13.601562 19.699219 13.699219 C 20.199219 13.800781 20.898438 14.101562 21.101562 15.199219 C 21.101562 15.398438 21.101562 15.699219 21.101562 15.898438 Z M 21.199219 21.398438 "/>
<path style=" stroke:none;fill-rule:nonzero;fill:white;fill-opacity:1;" d="M 11.5 21.898438 L 6.898438 21.898438 L 6.898438 10.800781 L 11.5 10.800781 Z M 7.5 21.300781 L 10.898438 21.300781 L 10.898438 11.398438 L 7.5 11.398438 Z M 7.5 21.300781 "/>
<path style=" stroke:none;fill-rule:nonzero;fill:white;fill-opacity:1;" d="M 9.101562 9.699219 C 7.800781 9.699219 6.800781 8.699219 6.800781 7.5 C 6.800781 6.300781 7.898438 5.398438 9.101562 5.398438 C 9.800781 5.398438 10.398438 5.699219 10.898438 6.101562 C 11.300781 6.5 11.5 7 11.5 7.601562 C 11.5 8.699219 10.398438 9.699219 9.101562 9.699219 Z M 9.101562 9.101562 C 10.101562 9.101562 10.898438 8.398438 10.898438 7.601562 C 10.898438 7.199219 10.800781 6.898438 10.5 6.601562 C 10.101562 6.199219 9.601562 6 9.101562 5.898438 C 8.101562 5.898438 7.398438 6.601562 7.398438 7.5 C 7.398438 8.398438 8.101562 9.101562 9.101562 9.101562 Z M 9.101562 9.101562 "/>
</g>
</svg>
