<?xml version="1.0" encoding="UTF-8"?>
<svg xmlns="http://www.w3.org/2000/svg" xmlns:xlink="http://www.w3.org/1999/xlink" width="30px" height="30px" viewBox="0 0 30 30" version="1.1">
<g id="surface1">
<path style=" stroke:none;fill-rule:nonzero;fill:white;fill-opacity:1;" d="M 22.101562 22.300781 L 18.199219 22.300781 C 18 22.300781 17.898438 22.199219 17.800781 22.101562 C 16.601562 20.300781 15.398438 18.601562 14.199219 16.898438 L 14 16.601562 L 13.800781 16.800781 C 12.300781 18.5 10.800781 20.300781 9.300781 22 C 9.199219 22.101562 9 22.199219 8.898438 22.199219 L 7.898438 22.199219 L 13.398438 15.699219 L 7.898438 7.699219 L 11.800781 7.699219 C 12 7.699219 12.199219 7.800781 12.199219 7.898438 C 13.300781 9.5 14.398438 11.199219 15.5 12.800781 C 15.601562 12.898438 15.601562 13 15.699219 13 L 17.199219 11.300781 C 18.199219 10.199219 19.199219 9 20.101562 7.898438 C 20.199219 7.800781 20.398438 7.699219 20.5 7.699219 L 21.5 7.699219 L 21.199219 8.101562 C 19.601562 10 18 11.800781 16.398438 13.601562 C 16.300781 13.699219 16.300781 13.800781 16.300781 13.898438 C 16.300781 14 16.300781 14.101562 16.398438 14.199219 C 18.199219 16.800781 20 19.398438 21.699219 22 Z M 9.601562 8.699219 L 9.898438 9.101562 L 13.199219 13.800781 C 14.898438 16.300781 16.601562 18.699219 18.398438 21.199219 C 18.5 21.300781 18.601562 21.398438 18.699219 21.398438 C 19.199219 21.398438 19.699219 21.398438 20.101562 21.398438 L 20.300781 21.398438 L 20.101562 21.101562 C 18.699219 19 17.199219 16.898438 15.699219 14.699219 L 11.601562 8.898438 C 11.5 8.800781 11.5 8.800781 11.398438 8.699219 Z M 9.601562 8.699219 "/>
</g>
</svg>
