<?xml version="1.0" encoding="UTF-8"?>
<svg xmlns="http://www.w3.org/2000/svg" xmlns:xlink="http://www.w3.org/1999/xlink" width="30px" height="30px" viewBox="0 0 30 30" version="1.1">
<g id="surface1">
<path style=" stroke:none;fill-rule:nonzero;fill:white;fill-opacity:1;" d="M 15 20.800781 C 12.800781 20.800781 10.699219 20.699219 8.5 20.601562 C 7.699219 20.5 7 19.800781 6.898438 19 C 6.5 16.101562 6.5 13.101562 6.898438 10.101562 C 7 9.199219 7.699219 8.5 8.601562 8.5 C 12.898438 8.199219 17.300781 8.199219 21.601562 8.5 C 22.5 8.601562 23.199219 9.300781 23.300781 10.101562 C 23.699219 13 23.699219 16 23.300781 19 C 23.199219 19.898438 22.5 20.5 21.601562 20.601562 C 19.300781 20.699219 17.199219 20.800781 15 20.800781 Z M 15 9 C 12.898438 9 10.699219 9.101562 8.601562 9.199219 C 8.101562 9.199219 7.699219 9.601562 7.699219 10.101562 C 7.398438 13 7.398438 15.898438 7.699219 18.800781 C 7.699219 19.300781 8.101562 19.699219 8.601562 19.699219 C 12.898438 20 17.199219 20 21.398438 19.699219 C 21.898438 19.699219 22.300781 19.300781 22.300781 18.800781 C 22.601562 15.898438 22.601562 13 22.300781 10.101562 C 22.300781 9.601562 21.898438 9.199219 21.398438 9.199219 C 19.300781 9.101562 17.101562 9 15 9 Z M 13.601562 17.101562 C 13.5 17.101562 13.398438 17.101562 13.300781 17 C 13.101562 16.898438 13 16.699219 13 16.5 L 13 12.101562 C 13 11.898438 13.101562 11.699219 13.300781 11.601562 C 13.5 11.5 13.699219 11.5 13.898438 11.601562 L 17.800781 13.800781 C 18 13.898438 18.101562 14.101562 18.101562 14.300781 C 18.101562 14.5 18 14.699219 17.800781 14.800781 L 13.898438 17 C 13.800781 17.101562 13.699219 17.101562 13.601562 17.101562 Z M 13.699219 12.398438 L 13.699219 16.199219 L 17 14.300781 Z M 13.699219 12.398438 "/>
</g>
</svg>
