<?xml version="1.0" encoding="UTF-8"?>
<svg xmlns="http://www.w3.org/2000/svg" xmlns:xlink="http://www.w3.org/1999/xlink" width="30px" height="30px" viewBox="0 0 30 30" version="1.1">
<g id="surface1">
<path style=" stroke:none;fill-rule:nonzero;fill:white;fill-opacity:1;" d="M 18.699219 23.199219 L 11.199219 23.199219 C 8.699219 23.199219 6.800781 21.199219 6.800781 18.800781 L 6.800781 11.300781 C 6.800781 8.800781 8.800781 6.898438 11.199219 6.898438 L 18.699219 6.898438 C 21.199219 6.898438 23.101562 8.898438 23.101562 11.300781 L 23.101562 18.800781 C 23.199219 21.199219 21.199219 23.199219 18.699219 23.199219 Z M 11.300781 7.699219 C 9.300781 7.699219 7.699219 9.300781 7.699219 11.300781 L 7.699219 18.800781 C 7.699219 20.800781 9.300781 22.398438 11.300781 22.398438 L 18.800781 22.398438 C 20.800781 22.398438 22.398438 20.800781 22.398438 18.800781 L 22.398438 11.300781 C 22.398438 9.300781 20.800781 7.699219 18.800781 7.699219 Z M 11.300781 7.699219 "/>
<path style=" stroke:none;fill-rule:nonzero;fill:white;fill-opacity:1;" d="M 15 20.101562 C 12.199219 20.101562 9.898438 17.800781 9.898438 15 C 9.898438 12.199219 12.199219 9.898438 15 9.898438 C 17.800781 9.898438 20.101562 12.199219 20.101562 15 C 20.101562 16.300781 19.601562 17.601562 18.601562 18.601562 C 17.601562 19.601562 16.300781 20.101562 15 20.101562 Z M 15 10.800781 C 12.699219 10.800781 10.800781 12.699219 10.800781 15 C 10.800781 17.300781 12.699219 19.199219 15.101562 19.199219 C 17.5 19.199219 19.300781 17.300781 19.300781 14.898438 C 19.199219 12.699219 17.300781 10.800781 15 10.800781 Z M 15 10.800781 "/>
<path style=" stroke:none;fill-rule:nonzero;fill:white;fill-opacity:1;" d="M 20.800781 10.199219 C 20.800781 10.398438 20.699219 10.601562 20.601562 10.800781 C 20.398438 10.898438 20.199219 11 20 11 C 19.601562 11 19.199219 10.699219 19.199219 10.199219 C 19.199219 10 19.300781 9.800781 19.398438 9.601562 C 19.5 9.398438 19.699219 9.398438 20 9.398438 C 20.199219 9.398438 20.398438 9.5 20.601562 9.601562 C 20.699219 9.800781 20.800781 10 20.800781 10.199219 Z M 20.800781 10.199219 "/>
</g>
</svg>
