<?xml version="1.0" encoding="UTF-8"?>
<svg xmlns="http://www.w3.org/2000/svg" xmlns:xlink="http://www.w3.org/1999/xlink" width="30px" height="30px" viewBox="0 0 30 30" version="1.1">
<g id="surface1">
<path style=" stroke:none;fill-rule:nonzero;fill:white;fill-opacity:1;" d="M 13.5 15.398438 C 14 15.898438 14.300781 16.699219 14.199219 17.398438 C 14.300781 18.300781 13.898438 19.199219 13.101562 19.699219 C 12.199219 20.300781 11.199219 20.5 10.199219 20.5 L 7.199219 20.5 L 7.199219 9.398438 L 9.601562 9.398438 C 10.601562 9.300781 11.699219 9.601562 12.601562 10.101562 C 13.300781 10.601562 13.699219 11.300781 13.601562 12.199219 C 13.601562 12.800781 13.398438 13.398438 13 13.800781 C 12.601562 14.199219 12.101562 14.5 11.5 14.601562 C 12.300781 14.601562 13 14.898438 13.5 15.398438 Z M 8.199219 10.199219 L 8.199219 14.300781 L 10.398438 14.300781 C 11 14.300781 11.601562 14.101562 12.101562 13.800781 C 12.5 13.398438 12.800781 12.898438 12.699219 12.300781 C 12.800781 11.699219 12.5 11.101562 12 10.699219 C 11.300781 10.300781 10.601562 10.199219 9.800781 10.199219 Z M 13.199219 17.398438 C 13.300781 16.699219 13 16.101562 12.5 15.601562 C 11.898438 15.199219 11.199219 15 10.5 15 L 8.199219 15 L 8.199219 19.601562 L 10.300781 19.601562 C 12.199219 19.601562 13.199219 18.898438 13.199219 17.398438 Z M 13.199219 17.398438 "/>
<path style=" stroke:none;fill-rule:nonzero;fill:white;fill-opacity:1;" d="M 22.800781 16.601562 L 17.199219 16.601562 C 17.199219 17.5 17.5 18.300781 18 19 C 18.5 19.5 19.101562 19.800781 19.800781 19.800781 C 20.199219 19.800781 20.601562 19.699219 21 19.601562 C 21.398438 19.398438 21.699219 19.199219 22.101562 19 L 22.5 19.601562 C 22.101562 19.898438 21.699219 20.199219 21.199219 20.398438 C 20.699219 20.601562 20.199219 20.699219 19.699219 20.699219 C 18.699219 20.800781 17.699219 20.300781 17.101562 19.601562 C 16.398438 18.699219 16 17.601562 16.101562 16.398438 C 16.101562 15.601562 16.300781 14.800781 16.601562 14.101562 C 16.800781 13.5 17.199219 12.898438 17.800781 12.5 C 18.300781 12.101562 18.898438 11.898438 19.601562 11.898438 C 20.601562 11.800781 21.5 12.199219 22.101562 12.898438 C 22.699219 13.800781 23 14.800781 22.898438 15.898438 C 22.800781 16.101562 22.800781 16.398438 22.800781 16.601562 Z M 21.898438 15.601562 C 21.898438 14.800781 21.699219 14 21.300781 13.398438 C 20.898438 12.898438 20.199219 12.601562 19.601562 12.601562 C 18.898438 12.601562 18.300781 12.898438 17.898438 13.398438 C 17.398438 14.101562 17.199219 15 17.199219 15.898438 L 22 15.898438 L 22 15.601562 Z M 21.898438 15.601562 "/>
<path style=" stroke:none;fill-rule:nonzero;fill:white;fill-opacity:1;" d="M 16.699219 9.5 L 21.898438 9.5 L 21.898438 10.398438 L 16.699219 10.398438 Z M 16.699219 9.5 "/>
</g>
</svg>
