<?xml version="1.0" encoding="UTF-8"?>
<svg xmlns="http://www.w3.org/2000/svg" xmlns:xlink="http://www.w3.org/1999/xlink" width="30px" height="30px" viewBox="0 0 30 30" version="1.1">
<g id="surface1">
<path style=" stroke:none;fill-rule:nonzero;fill:rgb(133, 133, 133);fill-opacity:1;" d="M 7.199219 23.101562 L 8.601562 18.800781 C 6.398438 15.5 7 11.101562 10 8.5 C 13 5.898438 17.5 6 20.398438 8.699219 C 23.300781 11.398438 23.699219 15.800781 21.398438 19 C 19.101562 22.199219 14.699219 23.101562 11.300781 21.199219 Z M 15 7.5 L 14.699219 7.5 C 12.199219 7.601562 9.898438 9.101562 8.800781 11.398438 C 7.699219 13.699219 7.898438 16.398438 9.300781 18.5 L 9.398438 18.699219 L 8.5 21.601562 L 11.199219 20.398438 L 11.398438 20.5 C 14.199219 22.199219 17.898438 21.699219 20.101562 19.199219 C 21.898438 17.199219 22.398438 14.199219 21.300781 11.699219 C 20.199219 9.101562 17.699219 7.5 15 7.5 Z M 15 7.5 "/>
<path style=" stroke:none;fill-rule:nonzero;fill:rgb(133, 133, 133);fill-opacity:1;" d="M 14.398438 15.199219 C 14.699219 15.601562 15.199219 15.898438 15.601562 16.101562 C 16 16.199219 16.300781 16 16.601562 15.699219 C 16.800781 15.5 17 15.398438 17.199219 15.300781 C 17.601562 15.199219 18.699219 16 19 16.300781 C 19.300781 16.699219 19.398438 17.199219 19.199219 17.699219 C 19 18.199219 18.5 18.5 18 18.5 C 16.601562 18.601562 14.800781 17.398438 13.5 16.101562 C 12.199219 14.800781 10.898438 13 11 11.601562 C 11 11.101562 11.300781 10.601562 11.800781 10.398438 C 12.300781 10.199219 12.800781 10.300781 13.199219 10.601562 C 13.5 10.898438 14.300781 12 14.199219 12.398438 C 14.199219 12.601562 14 12.898438 13.800781 13 C 13.5 13.300781 13.300781 13.601562 13.398438 14 C 13.601562 14.398438 14 14.800781 14.398438 15.199219 Z M 14.398438 15.199219 "/>
</g>
</svg>
