<?xml version="1.0" encoding="UTF-8"?>
<svg xmlns="http://www.w3.org/2000/svg" xmlns:xlink="http://www.w3.org/1999/xlink" width="30px" height="30px" viewBox="0 0 30 30" version="1.1">
<g id="surface1">
<path style=" stroke:none;fill-rule:nonzero;fill:white;fill-opacity:1;" d="M 13.101562 24.101562 C 11.5 24.101562 10 23.5 8.898438 22.300781 C 7.699219 21.101562 7.101562 19.5 7.398438 17.800781 C 7.601562 15.601562 9.101562 13.699219 11.199219 13 C 12 12.699219 12.898438 12.601562 13.800781 12.699219 L 13.898438 12.699219 L 14.300781 12.800781 L 14.300781 16.398438 L 13.699219 16.300781 L 13.398438 16.199219 C 12.800781 16.101562 12.300781 16.300781 11.800781 16.601562 C 11.300781 17 11.101562 17.5 11 18 C 10.898438 18.601562 11.101562 19.199219 11.398438 19.601562 C 11.699219 20 12.199219 20.300781 12.800781 20.398438 C 13.398438 20.5 14 20.300781 14.5 19.898438 C 14.898438 19.5 15.199219 19 15.199219 18.398438 C 15.199219 17.398438 15.199219 16.300781 15.199219 15.300781 L 15.199219 6.898438 C 15.199219 6.800781 15.199219 6.699219 15.199219 6.699219 L 15.199219 6.199219 L 18.800781 6.199219 L 18.800781 6.601562 C 18.800781 7.699219 19.300781 8.699219 20.101562 9.398438 C 20.800781 10.101562 21.800781 10.5 22.800781 10.5 L 23.199219 10.5 L 23.199219 14.101562 L 22.800781 14.101562 C 22 14.101562 21.199219 14 20.398438 13.699219 C 19.898438 13.5 19.398438 13.300781 18.898438 13 L 18.898438 14.300781 C 18.898438 15.699219 18.898438 17 18.898438 18.398438 C 18.898438 20 18.199219 21.601562 17 22.699219 C 15.800781 23.601562 14.5 24.101562 13.101562 24.101562 Z M 13 13.5 C 12.5 13.5 11.898438 13.601562 11.398438 13.800781 C 9.601562 14.398438 8.300781 16 8.199219 17.898438 C 8 19.300781 8.5 20.699219 9.5 21.699219 C 11.398438 23.601562 14.398438 23.699219 16.398438 21.898438 C 17.5 21 18 19.601562 18 18.199219 C 18 16.800781 18 15.5 18 14.101562 L 18 11.300781 L 18.601562 11.800781 C 19.199219 12.199219 19.800781 12.601562 20.5 12.800781 C 21.101562 13 21.601562 13.101562 22.199219 13.101562 L 22.199219 11.101562 C 21.101562 11 20.101562 10.601562 19.300781 9.898438 C 18.5 9.101562 18 8 17.898438 6.898438 L 15.898438 6.898438 L 15.898438 15.199219 C 15.898438 16.199219 15.898438 17.300781 15.898438 18.398438 C 15.898438 19.199219 15.5 20 14.898438 20.5 C 14.300781 21 13.398438 21.300781 12.601562 21.199219 C 11.800781 21.101562 11.101562 20.699219 10.699219 20.101562 C 10.199219 19.5 10 18.699219 10.101562 17.898438 C 10.199219 17.101562 10.601562 16.5 11.199219 16 C 11.800781 15.5 12.601562 15.300781 13.300781 15.5 L 13.300781 13.5 Z M 13 13.5 "/>
</g>
</svg>
