<?xml version="1.0" encoding="UTF-8"?>
<svg xmlns="http://www.w3.org/2000/svg" xmlns:xlink="http://www.w3.org/1999/xlink" width="30px" height="30px" viewBox="0 0 30 30" version="1.1">
<g id="surface1">
<path style=" stroke:none;fill-rule:nonzero;fill:white;fill-opacity:1;" d="M 9.300781 18.898438 C 7.300781 18.898438 5.601562 17.300781 5.601562 15.199219 C 5.601562 13.199219 7.199219 11.5 9.300781 11.5 C 11.300781 11.5 13 13.101562 13 15.199219 C 13 17.199219 11.398438 18.898438 9.300781 18.898438 Z M 9.300781 12.398438 C 8.101562 12.398438 7.101562 13.101562 6.699219 14.199219 C 6.300781 15.300781 6.5 16.5 7.300781 17.300781 C 8.101562 18.101562 9.300781 18.398438 10.398438 17.898438 C 11.5 17.5 12.199219 16.398438 12.199219 15.300781 C 12.199219 13.699219 10.898438 12.398438 9.300781 12.398438 Z M 9.300781 12.398438 "/>
<path style=" stroke:none;fill-rule:nonzero;fill:white;fill-opacity:1;" d="M 20.800781 18.898438 C 19.300781 18.898438 18 18 17.398438 16.601562 C 16.800781 15.199219 17.101562 13.699219 18.199219 12.601562 C 19.300781 11.601562 20.800781 11.199219 22.199219 11.800781 C 23.601562 12.398438 24.5 13.699219 24.5 15.199219 C 24.5 17.199219 22.800781 18.898438 20.800781 18.898438 Z M 20.800781 12.398438 C 19.601562 12.398438 18.601562 13.101562 18.199219 14.199219 C 17.800781 15.300781 18 16.5 18.800781 17.300781 C 19.601562 18.101562 20.800781 18.398438 21.898438 17.898438 C 23 17.398438 23.699219 16.398438 23.699219 15.300781 C 23.699219 13.699219 22.398438 12.398438 20.800781 12.398438 Z M 20.800781 12.398438 "/>
</g>
</svg>
