<?xml version="1.0" encoding="UTF-8"?>
<svg xmlns="http://www.w3.org/2000/svg" xmlns:xlink="http://www.w3.org/1999/xlink" width="30px" height="30px" viewBox="0 0 30 30" version="1.1">
<g id="surface1">
<path style=" stroke:none;fill-rule:nonzero;fill:white;fill-opacity:1;" d="M 9.332031 11.992188 C 8.175781 11.988281 7.128906 12.683594 6.683594 13.75 C 6.242188 14.820312 6.484375 16.050781 7.304688 16.871094 C 8.121094 17.691406 9.351562 17.933594 10.421875 17.488281 C 11.492188 17.042969 12.1875 15.996094 12.183594 14.839844 C 12.175781 13.269531 10.90625 11.996094 9.332031 11.992188 Z M 9.332031 11.992188 "/>
<path style=" stroke:none;fill-rule:nonzero;fill:white;fill-opacity:1;" d="M 20.835938 11.992188 C 19.679688 11.988281 18.632812 12.683594 18.1875 13.75 C 17.742188 14.820312 17.988281 16.050781 18.804688 16.871094 C 19.625 17.691406 20.855469 17.933594 21.925781 17.488281 C 22.992188 17.042969 23.6875 15.996094 23.683594 14.839844 C 23.679688 13.269531 22.40625 11.996094 20.835938 11.992188 Z M 20.835938 11.992188 "/>
<path style=" stroke:none;fill-rule:nonzero;fill:white;fill-opacity:1;" d="M 14.988281 0.679688 C 7.261719 0.679688 1 6.945312 1 14.671875 C 1 22.398438 7.261719 28.660156 14.988281 28.660156 C 22.71875 28.660156 28.980469 22.398438 28.980469 14.671875 C 28.980469 6.945312 22.71875 0.679688 14.988281 0.679688 Z M 9.332031 18.527344 C 7.3125 18.527344 5.675781 16.890625 5.675781 14.871094 C 5.675781 12.851562 7.3125 11.210938 9.332031 11.210938 C 11.355469 11.210938 12.992188 12.851562 12.992188 14.871094 C 12.992188 16.890625 11.355469 18.527344 9.332031 18.527344 Z M 20.835938 18.527344 C 18.816406 18.53125 17.171875 16.898438 17.167969 14.875 C 17.164062 12.855469 18.800781 11.214844 20.824219 11.210938 C 22.84375 11.210938 24.484375 12.847656 24.484375 14.871094 C 24.484375 16.886719 22.851562 18.523438 20.835938 18.527344 Z M 20.835938 18.527344 "/>
</g>
</svg>
