<?xml version="1.0" encoding="UTF-8"?>
<svg xmlns="http://www.w3.org/2000/svg" xmlns:xlink="http://www.w3.org/1999/xlink" width="30px" height="30px" viewBox="0 0 30 30" version="1.1">
<g id="surface1">
<path style=" stroke:none;fill-rule:nonzero;fill:white;fill-opacity:1;" d="M 21.414062 8.925781 C 19.289062 8.765625 17.136719 8.683594 15 8.683594 C 12.863281 8.683594 10.710938 8.765625 8.585938 8.925781 C 8.089844 8.953125 7.6875 9.339844 7.644531 9.832031 C 7.304688 12.71875 7.304688 15.632812 7.644531 18.519531 C 7.683594 19.015625 8.085938 19.410156 8.585938 19.4375 C 12.855469 19.746094 17.144531 19.746094 21.414062 19.4375 C 21.90625 19.390625 22.296875 19.007812 22.355469 18.519531 C 22.695312 15.632812 22.695312 12.71875 22.355469 9.832031 C 22.3125 9.339844 21.910156 8.953125 21.414062 8.925781 Z M 17.738281 14.46875 L 13.859375 16.6875 C 13.769531 16.746094 13.667969 16.773438 13.5625 16.769531 C 13.453125 16.769531 13.347656 16.742188 13.25 16.6875 C 13.058594 16.582031 12.941406 16.378906 12.941406 16.160156 L 12.941406 11.722656 C 12.941406 11.503906 13.058594 11.300781 13.25 11.191406 C 13.441406 11.082031 13.671875 11.082031 13.859375 11.191406 L 17.738281 13.410156 C 17.929688 13.519531 18.046875 13.722656 18.046875 13.941406 C 18.046875 14.160156 17.929688 14.363281 17.738281 14.46875 Z M 17.738281 14.46875 "/>
<path style=" stroke:none;fill-rule:nonzero;fill:white;fill-opacity:1;" d="M 14.988281 0.679688 C 7.261719 0.679688 1 6.945312 1 14.671875 C 1 22.398438 7.261719 28.660156 14.988281 28.660156 C 22.71875 28.660156 28.980469 22.398438 28.980469 14.671875 C 28.980469 6.945312 22.71875 0.679688 14.988281 0.679688 Z M 23.132812 18.609375 C 23.035156 19.476562 22.335938 20.15625 21.464844 20.226562 C 19.316406 20.386719 17.148438 20.464844 14.988281 20.464844 C 12.832031 20.464844 10.664062 20.386719 8.515625 20.226562 C 7.640625 20.160156 6.9375 19.480469 6.84375 18.609375 C 6.496094 15.664062 6.496094 12.6875 6.84375 9.742188 C 6.941406 8.867188 7.648438 8.1875 8.523438 8.125 C 12.847656 7.804688 17.191406 7.804688 21.515625 8.125 C 22.386719 8.195312 23.085938 8.875 23.183594 9.742188 C 23.519531 12.6875 23.507812 15.664062 23.144531 18.609375 Z M 23.132812 18.609375 "/>
<path style=" stroke:none;fill-rule:nonzero;fill:white;fill-opacity:1;" d="M 13.742188 15.839844 L 17.058594 13.941406 L 13.742188 12.042969 Z M 13.742188 15.839844 "/>
</g>
</svg>
