<?xml version="1.0" encoding="UTF-8"?>
<svg xmlns="http://www.w3.org/2000/svg" xmlns:xlink="http://www.w3.org/1999/xlink" width="30px" height="30px" viewBox="0 0 30 30" version="1.1">
<g id="surface1">
<path style=" stroke:none;fill-rule:nonzero;fill:rgb(37.647059%,37.647059%,37.647059%);fill-opacity:1;" d="M 14.988281 7.125 L 14.710938 7.125 C 12.164062 7.246094 9.886719 8.738281 8.761719 11.027344 C 7.636719 13.3125 7.84375 16.027344 9.304688 18.117188 L 9.421875 18.289062 L 8.496094 21.164062 L 11.253906 19.988281 L 11.433594 20.097656 C 13.632812 21.398438 16.367188 21.394531 18.566406 20.089844 C 20.765625 18.785156 22.074219 16.386719 21.984375 13.832031 C 21.828125 10.082031 18.742188 7.121094 14.988281 7.125 Z M 17.988281 18.117188 C 16.597656 18.238281 14.761719 16.980469 13.460938 15.679688 C 12.160156 14.378906 10.894531 12.5625 10.992188 11.183594 C 10.980469 10.664062 11.277344 10.1875 11.746094 9.96875 C 12.21875 9.75 12.773438 9.835938 13.160156 10.183594 C 13.480469 10.453125 14.242188 11.582031 14.160156 11.992188 C 14.121094 12.234375 13.992188 12.457031 13.800781 12.613281 C 13.507812 12.855469 13.359375 13.234375 13.410156 13.609375 C 13.632812 14.082031 13.945312 14.507812 14.332031 14.859375 C 14.675781 15.25 15.101562 15.558594 15.578125 15.769531 C 15.96875 15.871094 16.25 15.648438 16.578125 15.390625 C 16.730469 15.195312 16.953125 15.0625 17.199219 15.019531 C 17.875 15.160156 18.5 15.496094 18.988281 15.988281 C 19.328125 16.375 19.410156 16.925781 19.191406 17.394531 C 18.976562 17.863281 18.503906 18.15625 17.988281 18.148438 Z M 17.988281 18.117188 "/>
<path style=" stroke:none;fill-rule:nonzero;fill:rgb(37.647059%,37.647059%,37.647059%);fill-opacity:1;" d="M 14.988281 0.679688 C 7.261719 0.679688 1 6.945312 1 14.671875 C 1 22.398438 7.261719 28.660156 14.988281 28.660156 C 22.71875 28.660156 28.980469 22.398438 28.980469 14.671875 C 28.980469 6.945312 22.71875 0.679688 14.988281 0.679688 Z M 20.746094 19.40625 C 18.289062 22.054688 14.339844 22.683594 11.183594 20.925781 L 7.183594 22.734375 L 8.5625 18.476562 C 6.277344 15.09375 6.980469 10.519531 10.179688 7.980469 C 13.378906 5.441406 17.992188 5.792969 20.769531 8.785156 C 23.546875 11.78125 23.550781 16.410156 20.777344 19.40625 Z M 20.746094 19.40625 "/>
</g>
</svg>
