<?xml version="1.0" encoding="UTF-8"?>
<svg xmlns="http://www.w3.org/2000/svg" xmlns:xlink="http://www.w3.org/1999/xlink" width="30px" height="30px" viewBox="0 0 30 30" version="1.1">
<g id="surface1">
<path style=" stroke:none;fill-rule:nonzero;fill:white;fill-opacity:1;" d="M 14.988281 0.679688 C 7.261719 0.679688 1 6.945312 1 14.671875 C 1 22.398438 7.261719 28.660156 14.988281 28.660156 C 22.71875 28.660156 28.980469 22.398438 28.980469 14.671875 C 28.980469 6.945312 22.71875 0.679688 14.988281 0.679688 Z M 23.066406 13.671875 L 22.683594 13.671875 C 21.871094 13.679688 21.066406 13.546875 20.296875 13.28125 C 19.761719 13.101562 19.253906 12.863281 18.777344 12.5625 L 18.777344 13.832031 C 18.777344 15.199219 18.777344 16.570312 18.777344 17.9375 C 18.804688 19.566406 18.121094 21.125 16.898438 22.207031 C 14.589844 24.277344 11.054688 24.152344 8.902344 21.914062 C 7.714844 20.742188 7.140625 19.078125 7.355469 17.417969 C 7.554688 15.222656 9.039062 13.351562 11.132812 12.660156 C 11.957031 12.367188 12.839844 12.265625 13.710938 12.371094 L 13.859375 12.371094 L 14.25 12.441406 L 14.25 16.058594 L 13.632812 15.988281 L 13.359375 15.988281 C 12.800781 15.90625 12.234375 16.046875 11.78125 16.390625 C 11.359375 16.703125 11.074219 17.167969 10.992188 17.6875 C 10.910156 18.273438 11.0625 18.867188 11.421875 19.335938 C 11.753906 19.777344 12.253906 20.058594 12.800781 20.117188 C 13.410156 20.203125 14.023438 20.027344 14.492188 19.625 C 14.941406 19.246094 15.199219 18.6875 15.199219 18.097656 C 15.199219 17.097656 15.199219 16 15.199219 14.96875 C 15.199219 14.582031 15.199219 14.191406 15.199219 13.789062 L 15.199219 6.546875 C 15.199219 6.476562 15.199219 6.394531 15.199219 6.316406 L 15.199219 5.847656 L 18.746094 5.847656 L 18.746094 6.246094 C 18.773438 7.292969 19.21875 8.28125 19.988281 8.992188 C 20.707031 9.710938 21.679688 10.109375 22.695312 10.101562 L 23.09375 10.101562 Z M 23.066406 13.671875 "/>
<path style=" stroke:none;fill-rule:nonzero;fill:white;fill-opacity:1;" d="M 17.988281 6.644531 L 15.988281 6.644531 L 15.988281 14.988281 C 15.988281 15.988281 15.988281 17.089844 15.988281 18.136719 C 15.976562 18.957031 15.613281 19.726562 14.988281 20.257812 C 14.351562 20.792969 13.519531 21.039062 12.691406 20.9375 C 11.929688 20.839844 11.238281 20.445312 10.773438 19.835938 C 10.285156 19.199219 10.070312 18.394531 10.183594 17.597656 C 10.289062 16.84375 10.695312 16.167969 11.3125 15.71875 C 11.925781 15.257812 12.699219 15.058594 13.460938 15.160156 L 13.460938 13.160156 C 13.316406 13.152344 13.167969 13.152344 13.019531 13.160156 C 12.476562 13.15625 11.933594 13.25 11.421875 13.441406 C 9.609375 14.03125 8.328125 15.648438 8.164062 17.546875 C 7.984375 18.964844 8.472656 20.382812 9.484375 21.386719 C 11.34375 23.292969 14.375 23.402344 16.367188 21.636719 C 17.414062 20.714844 18.007812 19.382812 17.988281 17.988281 C 17.988281 16.617188 17.988281 15.25 17.988281 13.890625 L 17.988281 11.042969 L 18.628906 11.511719 C 19.210938 11.949219 19.863281 12.285156 20.554688 12.511719 C 21.113281 12.703125 21.695312 12.820312 22.285156 12.851562 L 22.285156 10.851562 C 21.203125 10.761719 20.191406 10.292969 19.417969 9.535156 C 18.617188 8.769531 18.109375 7.746094 17.988281 6.644531 Z M 17.988281 6.644531 "/>
</g>
</svg>
