<?xml version="1.0" encoding="UTF-8"?>
<svg xmlns="http://www.w3.org/2000/svg" xmlns:xlink="http://www.w3.org/1999/xlink" width="30px" height="30px" viewBox="0 0 30 30" version="1.1">
<g id="surface1">
<path style=" stroke:none;fill-rule:nonzero;fill:rgb(37.647059%,37.647059%,37.647059%);fill-opacity:1;" d="M 15.730469 14.320312 L 11.652344 8.496094 C 11.601562 8.414062 11.515625 8.355469 11.421875 8.335938 C 10.851562 8.335938 10.261719 8.335938 9.625 8.335938 L 9.894531 8.734375 L 13.179688 13.449219 C 14.910156 15.917969 16.617188 18.386719 18.347656 20.847656 C 18.429688 20.945312 18.550781 21.003906 18.675781 21.015625 C 19.15625 21.015625 19.675781 21.015625 20.117188 21.015625 L 20.355469 21.015625 L 20.15625 20.707031 Z M 15.730469 14.320312 "/>
<path style=" stroke:none;fill-rule:nonzero;fill:rgb(37.647059%,37.647059%,37.647059%);fill-opacity:1;" d="M 14.988281 0.679688 C 7.261719 0.679688 1 6.945312 1 14.671875 C 1 22.398438 7.261719 28.660156 14.988281 28.660156 C 22.71875 28.660156 28.980469 22.398438 28.980469 14.671875 C 28.980469 6.945312 22.71875 0.679688 14.988281 0.679688 Z M 21.40625 21.925781 C 20.316406 21.925781 19.226562 21.925781 18.136719 21.925781 C 17.960938 21.9375 17.796875 21.847656 17.707031 21.695312 C 16.527344 19.957031 15.328125 18.207031 14.128906 16.46875 L 13.992188 16.289062 L 13.800781 16.488281 L 9.332031 21.714844 C 9.234375 21.863281 9.0625 21.941406 8.882812 21.925781 C 8.59375 21.925781 8.304688 21.925781 7.882812 21.925781 L 13.421875 15.460938 L 7.925781 7.386719 L 11.851562 7.386719 C 12.035156 7.371094 12.210938 7.464844 12.300781 7.625 L 15.648438 12.511719 C 15.699219 12.585938 15.75 12.65625 15.808594 12.722656 L 17.289062 10.992188 C 18.269531 9.851562 19.242188 8.710938 20.214844 7.566406 C 20.316406 7.425781 20.476562 7.351562 20.644531 7.363281 C 20.945312 7.363281 21.246094 7.363281 21.644531 7.363281 L 21.347656 7.714844 C 19.757812 9.5625 18.179688 11.421875 16.578125 13.261719 C 16.5 13.332031 16.457031 13.429688 16.457031 13.535156 C 16.457031 13.640625 16.5 13.742188 16.578125 13.8125 C 18.371094 16.402344 20.152344 18.996094 21.925781 21.59375 L 22.117188 21.914062 Z M 21.40625 21.925781 "/>
</g>
</svg>
