<?xml version="1.0" encoding="UTF-8"?>
<svg xmlns="http://www.w3.org/2000/svg" xmlns:xlink="http://www.w3.org/1999/xlink" width="30px" height="30px" viewBox="0 0 30 30" version="1.1">
<g id="surface1">
<path style=" stroke:none;fill-rule:nonzero;fill:white;fill-opacity:1;" d="M 12.070312 13.339844 C 12.5 12.96875 12.730469 12.417969 12.703125 11.851562 C 12.761719 11.246094 12.492188 10.652344 11.992188 10.304688 C 11.320312 9.949219 10.5625 9.785156 9.804688 9.832031 L 8.183594 9.832031 L 8.183594 13.890625 L 10.414062 13.890625 C 11.015625 13.921875 11.605469 13.726562 12.070312 13.339844 Z M 12.070312 13.339844 "/>
<path style=" stroke:none;fill-rule:nonzero;fill:white;fill-opacity:1;" d="M 10.523438 14.660156 L 8.183594 14.660156 L 8.183594 19.277344 L 10.234375 19.277344 C 12.230469 19.277344 13.230469 18.527344 13.230469 17.019531 C 13.28125 16.34375 13.007812 15.683594 12.492188 15.238281 C 11.921875 14.828125 11.226562 14.625 10.523438 14.660156 Z M 10.523438 14.660156 "/>
<path style=" stroke:none;fill-rule:nonzero;fill:white;fill-opacity:1;" d="M 14.988281 0.679688 C 7.261719 0.679688 1 6.945312 1 14.671875 C 1 22.398438 7.261719 28.660156 14.988281 28.660156 C 22.71875 28.660156 28.980469 22.398438 28.980469 14.671875 C 28.980469 6.945312 22.71875 0.679688 14.988281 0.679688 Z M 13.160156 19.328125 C 12.289062 19.882812 11.265625 20.148438 10.234375 20.085938 L 7.234375 20.085938 L 7.234375 8.992188 L 9.683594 8.992188 C 10.730469 8.925781 11.773438 9.167969 12.679688 9.695312 C 13.355469 10.15625 13.734375 10.9375 13.679688 11.753906 C 13.707031 12.351562 13.507812 12.941406 13.121094 13.402344 C 12.738281 13.832031 12.214844 14.113281 11.640625 14.199219 C 12.332031 14.253906 12.980469 14.535156 13.492188 15 C 14 15.535156 14.257812 16.261719 14.199219 17 C 14.273438 17.902344 13.882812 18.78125 13.160156 19.328125 Z M 16.699219 9.175781 L 21.867188 9.175781 L 21.867188 10.113281 L 16.699219 10.113281 Z M 22.753906 16.230469 L 17.117188 16.230469 C 17.097656 17.109375 17.371094 17.972656 17.898438 18.675781 C 18.363281 19.207031 19.042969 19.5 19.746094 19.476562 C 20.144531 19.484375 20.542969 19.414062 20.917969 19.277344 C 21.296875 19.105469 21.65625 18.890625 21.984375 18.636719 L 22.425781 19.238281 C 22.035156 19.558594 21.597656 19.820312 21.125 20.007812 C 20.65625 20.183594 20.160156 20.273438 19.65625 20.265625 C 18.648438 20.316406 17.675781 19.890625 17.027344 19.117188 C 16.324219 18.210938 15.972656 17.085938 16.03125 15.9375 C 16.011719 15.136719 16.15625 14.339844 16.449219 13.589844 C 16.695312 12.941406 17.136719 12.382812 17.707031 11.992188 C 18.226562 11.621094 18.851562 11.425781 19.488281 11.433594 C 20.453125 11.371094 21.390625 11.789062 21.984375 12.550781 C 22.589844 13.429688 22.882812 14.484375 22.824219 15.550781 C 22.785156 15.789062 22.773438 15.988281 22.753906 16.230469 Z M 22.753906 16.230469 "/>
<path style=" stroke:none;fill-rule:nonzero;fill:white;fill-opacity:1;" d="M 19.515625 12.242188 C 18.855469 12.222656 18.226562 12.523438 17.828125 13.050781 C 17.335938 13.769531 17.089844 14.628906 17.117188 15.5 L 21.867188 15.5 L 21.867188 15.261719 C 21.910156 14.476562 21.703125 13.699219 21.277344 13.042969 C 20.867188 12.492188 20.203125 12.1875 19.515625 12.242188 Z M 19.515625 12.242188 "/>
</g>
</svg>
