<?xml version="1.0" encoding="UTF-8"?>
<svg xmlns="http://www.w3.org/2000/svg" xmlns:xlink="http://www.w3.org/1999/xlink" width="30px" height="30px" viewBox="0 0 30 30" version="1.1">
<g id="surface1">
<path style=" stroke:none;fill-rule:nonzero;fill:white;fill-opacity:1;" d="M 14.988281 0.679688 C 7.261719 0.679688 1 6.945312 1 14.671875 C 1 22.398438 7.261719 28.660156 14.988281 28.660156 C 22.71875 28.660156 28.980469 22.398438 28.980469 14.671875 C 28.980469 6.945312 22.71875 0.679688 14.988281 0.679688 Z M 18.988281 14.671875 L 16.507812 14.671875 L 16.507812 23.375 L 12.511719 23.375 L 12.511719 14.679688 L 10.644531 14.679688 L 10.644531 11.222656 L 12.511719 11.222656 L 12.511719 8.894531 C 12.511719 7.238281 13.855469 5.894531 15.507812 5.894531 L 19.398438 5.894531 L 19.398438 9.394531 L 16.828125 9.394531 C 16.742188 9.394531 16.660156 9.429688 16.597656 9.492188 C 16.539062 9.554688 16.507812 9.636719 16.507812 9.722656 L 16.507812 11.191406 L 19.417969 11.191406 Z M 18.988281 14.671875 "/>
<path style=" stroke:none;fill-rule:nonzero;fill:white;fill-opacity:1;" d="M 15.710938 9.722656 C 15.710938 9.105469 16.210938 8.605469 16.828125 8.605469 L 18.566406 8.605469 L 18.566406 6.714844 L 15.480469 6.714844 C 14.277344 6.722656 13.304688 7.691406 13.300781 8.894531 L 13.300781 11.992188 L 11.433594 11.992188 L 11.433594 13.878906 L 13.300781 13.878906 L 13.300781 22.585938 L 15.710938 22.585938 L 15.710938 13.890625 L 18.328125 13.890625 L 18.527344 12.003906 L 15.710938 12.003906 Z M 15.710938 9.722656 "/>
</g>
</svg>
