<?xml version="1.0" encoding="UTF-8"?>
<svg xmlns="http://www.w3.org/2000/svg" xmlns:xlink="http://www.w3.org/1999/xlink" width="30px" height="30px" viewBox="0 0 30 30" version="1.1">
<g id="surface1">
<path style=" stroke:none;fill-rule:nonzero;fill:white;fill-opacity:1;" d="M 14.988281 0.679688 C 7.261719 0.679688 1 6.945312 1 14.671875 C 1 22.398438 7.261719 28.660156 14.988281 28.660156 C 22.71875 28.660156 28.980469 22.398438 28.980469 14.671875 C 28.980469 6.945312 22.71875 0.679688 14.988281 0.679688 Z M 23.164062 18.367188 C 23.164062 20.824219 21.171875 22.816406 18.71875 22.816406 L 11.273438 22.816406 C 8.816406 22.816406 6.824219 20.824219 6.824219 18.367188 L 6.824219 10.921875 C 6.824219 8.464844 8.816406 6.476562 11.273438 6.476562 L 18.726562 6.476562 C 21.183594 6.476562 23.175781 8.464844 23.175781 10.921875 Z M 23.164062 18.367188 "/>
<path style=" stroke:none;fill-rule:nonzero;fill:white;fill-opacity:1;" d="M 18.726562 7.304688 L 11.273438 7.304688 C 9.273438 7.304688 7.65625 8.925781 7.65625 10.921875 L 7.65625 18.367188 C 7.660156 20.363281 9.277344 21.980469 11.273438 21.984375 L 18.726562 21.984375 C 20.726562 21.980469 22.34375 20.355469 22.34375 18.359375 L 22.34375 10.921875 C 22.339844 8.925781 20.722656 7.3125 18.726562 7.304688 Z M 14.988281 19.71875 C 12.933594 19.722656 11.082031 18.484375 10.292969 16.585938 C 9.503906 14.691406 9.9375 12.503906 11.390625 11.050781 C 12.84375 9.597656 15.03125 9.164062 16.925781 9.953125 C 18.824219 10.742188 20.0625 12.59375 20.054688 14.648438 C 20.050781 17.445312 17.785156 19.710938 14.988281 19.71875 Z M 19.988281 10.582031 C 19.566406 10.582031 19.226562 10.242188 19.226562 9.824219 C 19.226562 9.402344 19.566406 9.0625 19.988281 9.0625 C 20.40625 9.0625 20.746094 9.402344 20.746094 9.824219 C 20.746094 10.242188 20.40625 10.582031 19.988281 10.582031 Z M 19.988281 10.582031 "/>
<path style=" stroke:none;fill-rule:nonzero;fill:white;fill-opacity:1;" d="M 14.988281 10.402344 C 12.644531 10.398438 10.738281 12.296875 10.734375 14.644531 C 10.730469 16.992188 12.628906 18.894531 14.976562 18.898438 C 17.324219 18.898438 19.226562 16.996094 19.226562 14.648438 C 19.222656 12.3125 17.328125 10.414062 14.988281 10.402344 Z M 14.988281 10.402344 "/>
</g>
</svg>
