<?xml version="1.0" encoding="UTF-8"?>
<svg xmlns="http://www.w3.org/2000/svg" xmlns:xlink="http://www.w3.org/1999/xlink" width="30px" height="30px" viewBox="0 0 30 30" version="1.1">
<g id="surface1">
<path style=" stroke:none;fill-rule:nonzero;fill:white;fill-opacity:1;" d="M 16.5 23.699219 L 12.5 23.699219 L 12.5 15 L 10.601562 15 L 10.601562 11.601562 L 12.5 11.601562 L 12.5 9.300781 C 12.5 7.601562 13.800781 6.300781 15.5 6.300781 L 19.398438 6.300781 L 19.398438 9.800781 L 16.800781 9.800781 C 16.601562 9.800781 16.5 9.898438 16.5 10.101562 L 16.5 11.601562 L 19.398438 11.601562 L 19 15 L 16.5 15 Z M 13.300781 22.898438 L 15.699219 22.898438 L 15.699219 14.199219 L 18.300781 14.199219 L 18.5 12.300781 L 15.699219 12.300781 L 15.699219 10 C 15.699219 9.398438 16.199219 8.898438 16.800781 8.898438 L 18.5 8.898438 L 18.5 7.101562 L 15.398438 7.101562 C 14.199219 7.101562 13.199219 8.101562 13.199219 9.300781 L 13.199219 12.398438 L 11.300781 12.398438 L 11.300781 14.300781 L 13.199219 14.300781 L 13.199219 22.898438 Z M 13.300781 22.898438 "/>
</g>
</svg>
