<?xml version="1.0" encoding="utf-8"?>
<!-- Generator: Adobe Illustrator 25.2.3, SVG Export Plug-In . SVG Version: 6.00 Build 0)  -->
<svg version="1.1" id="Capa_1" xmlns="http://www.w3.org/2000/svg" xmlns:xlink="http://www.w3.org/1999/xlink" x="0px" y="0px"
	 viewBox="0 0 221 131" style="enable-background:new 0 0 221 131;" xml:space="preserve">
<style type="text/css">
	.st0{fill:#FFFFFF;}
</style>
<g id="surface1">
	
		<image style="overflow:visible;opacity:0.5;" width="230" height="119" xlink:href="8783AFC3.png"  transform="matrix(1 0 0 1 -5.3463 5.9921)">
	</image>
	<g>
		<g>
			<path class="st0" d="M19.1,96.1c0.9,0.6,1.3,1.6,1.3,2.9c0,1.3-0.4,2.4-1.3,3c-1,0.7-2.2,1.1-3.5,1h-1.4v4.3h-2.4V95.1h3.6
				C17,95.1,18.2,95.4,19.1,96.1z M17.3,100.8c0.4-0.4,0.6-0.9,0.6-1.8c0-1.5-0.8-2.2-2.5-2.2h-1.3v4.5h1.3
				C16.1,101.4,16.7,101.2,17.3,100.8z"/>
			<path class="st0" d="M51.4,95.1l-0.2,1.7h-4.5v3.4h3.9v1.7h-3.9v3.6h4.8v1.7h-7.2V95.1L51.4,95.1L51.4,95.1z"/>
			<path class="st0" d="M79.7,102.5h-1.5v4.9h-2.3V95.1h3.6c3.2,0,4.9,1.2,4.9,3.6c0,0.7-0.2,1.4-0.6,2c-0.5,0.6-1.1,1-1.9,1.3
				l3.2,5.3h-2.7L79.7,102.5z M78.2,100.8h1.5c0.6,0,1.2-0.1,1.7-0.5c0.4-0.4,0.6-1,0.6-1.6c0-0.6-0.2-1.1-0.6-1.4
				c-0.6-0.4-1.2-0.5-1.9-0.4h-1.3L78.2,100.8z"/>
			<path class="st0" d="M111.1,95.1v12.2h-2.3V95.1H111.1z"/>
			<path class="st0" d="M138.4,95.1v10.3h4.9l-0.3,1.9h-7V95.1L138.4,95.1L138.4,95.1z"/>
			<path class="st0" d="M169.5,95.1v10.3h4.9l-0.3,1.9h-7V95.1L169.5,95.1L169.5,95.1z"/>
			<path class="st0" d="M204.7,107.3l-0.7-2.8h-4.1l-0.7,2.8h-2.4l3.8-12.2h2.9l3.8,12.2H204.7z M200.3,102.7h3.1l-1.6-5.8
				L200.3,102.7z"/>
			<path class="st0" d="M78.9,38.1v29.5c-0.1,3.6,2.7,6.5,6.3,6.6c3.6,0.1,6.5-2.7,6.6-6.3c0-0.1,0-0.2,0-0.3v-1.3l-4.6,0.2
				l-0.1-2.4l4.7-0.2v-8.3l-4.6,0.2l-0.1-2.4l4.7-0.2v-7.5l-4.6,0.2l-0.1-2.4l4.7-0.2v-8.6l-4.6,0.2l-0.1-2.4l4.7-0.2v-8.2
				C84.5,24.7,78.9,30.8,78.9,38.1z"/>
			<path class="st0" d="M91.8,32.5l-4.7,0.2l0.1,2.4l4.6-0.2v8.6l-4.7,0.2l0.1,2.4l4.6-0.2v7.5l-4.7,0.2l0.1,2.4l4.6-0.2v8.3
				l-4.7,0.2l0.1,2.4l4.6-0.2v1.3c0.1,3.6-2.7,6.5-6.3,6.6c-3.6,0.1-6.5-2.7-6.6-6.3c0-0.1,0-0.2,0-0.3V38.1
				c0-7.3,5.6-13.3,12.9-13.9V32.5z"/>
			<path class="st0" d="M197.6,24.3H195v16.4h12.6v-6.4C207.6,28.7,203.2,24.3,197.6,24.3z"/>
			<path class="st0" d="M207.6,40.7H195V24.3h2.6c5.5,0,10,4.5,10,10V40.7z"/>
			<path class="st0" d="M193,42.7V24.3h-15.9v40c0,5.5,4.5,10,10,10h20.6V42.7H193z M192.9,70.8l-0.1-5l2.3,0l0.1,5L192.9,70.8z
				 M192.7,56.5l2.4,0l0.1,5l-2.4,0.1L192.7,56.5z M192.9,52.1l-0.1-5l2.4,0l0.1,5L192.9,52.1z"/>
			<path class="st0" d="M55.5,42.3h-9.9v12.9h9.9c3.6-0.1,6.4-3,6.3-6.6C61.7,45.2,58.9,42.4,55.5,42.3z"/>
			<path class="st0" d="M30.6,73.8c7.3-0.6,12.9-6.6,12.9-13.9V42.3H30.6V73.8z M36.9,47.8c1,0,1.8,0.8,1.8,1.8c0,1-0.8,1.8-1.8,1.8
				c-1,0-1.8-0.8-1.8-1.8C35.1,48.6,35.9,47.8,36.9,47.8z"/>
			<path class="st0" d="M37,24c-3.6,0-6.4,2.9-6.5,6.5v9.8h12.9v-9.8C43.5,26.9,40.6,24,37,24z"/>
			<path class="st0" d="M11.9,55.2h16.6V42.3h-2.8C18.5,42.3,12.4,47.9,11.9,55.2z"/>
			<path class="st0" d="M11.9,55.2h16.6V42.3h-2.8C18.5,42.3,12.4,47.9,11.9,55.2z"/>
			<path class="st0" d="M30.6,73.8c7.3-0.6,12.9-6.6,12.9-13.9V42.3H30.6V73.8z M36.9,47.8c1,0,1.8,0.8,1.8,1.8c0,1-0.8,1.8-1.8,1.8
				c-1,0-1.8-0.8-1.8-1.8C35.1,48.6,35.9,47.8,36.9,47.8z"/>
			<path class="st0" d="M55.5,42.3h-9.9v12.9h9.9c3.6-0.1,6.4-3,6.3-6.6C61.7,45.2,58.9,42.4,55.5,42.3z"/>
			<path class="st0" d="M37,24c-3.6,0-6.4,2.9-6.5,6.5v9.8h12.9v-9.8C43.5,26.9,40.6,24,37,24z"/>
			<path class="st0" d="M108.9,49.2c0,3.6,2.9,6.4,6.5,6.5h9.9V42.7h-9.9C111.7,42.7,108.9,45.6,108.9,49.2z"/>
			<path class="st0" d="M140.2,24.2c-7.3,0.6-12.9,6.6-12.9,13.9v2.6h12.9V24.2z"/>
			<path class="st0" d="M127.3,67.5c-0.1,3.6,2.7,6.5,6.3,6.6c3.6,0.1,6.5-2.7,6.6-6.3c0-0.1,0-0.2,0-0.3v-9.9h-12.9V67.5z"/>
			<path class="st0" d="M127.3,55.6H145c7.3,0,13.3-5.6,13.9-12.9h-31.6V55.6z M134.5,47.4c1,0,1.8,0.8,1.8,1.8c0,1-0.8,1.8-1.8,1.8
				c-1,0-1.8-0.8-1.8-1.8C132.7,48.2,133.5,47.4,134.5,47.4z"/>
			<path class="st0" d="M127.3,67.5c-0.1,3.6,2.7,6.5,6.3,6.6c3.6,0.1,6.5-2.7,6.6-6.3c0-0.1,0-0.2,0-0.3v-9.9h-12.9V67.5z"/>
			<path class="st0" d="M140.2,24.2c-7.3,0.6-12.9,6.6-12.9,13.9v2.6h12.9V24.2z"/>
			<path class="st0" d="M108.9,49.2c0,3.6,2.9,6.4,6.5,6.5h9.9V42.7h-9.9C111.7,42.7,108.9,45.6,108.9,49.2z"/>
			<path class="st0" d="M127.3,42.7v12.9H145c7.3,0,13.3-5.6,13.9-12.9H127.3z M134.5,51c-1,0-1.8-0.8-1.8-1.8s0.8-1.8,1.8-1.8
				c1,0,1.8,0.8,1.8,1.8S135.5,51,134.5,51C134.5,51,134.5,51,134.5,51z"/>
		</g>
	</g>
</g>
</svg>
