<?xml version="1.0" encoding="UTF-8"?>
<svg xmlns="http://www.w3.org/2000/svg" xmlns:xlink="http://www.w3.org/1999/xlink" width="253px" height="95px" viewBox="0 0 252 95" version="1.1">
<g id="surface1">
<path style=" stroke:none;fill-rule:nonzero;fill:white;fill-opacity:1;" d="M 213.917969 49.390625 C 215.683594 45.882812 215.832031 41.773438 214.324219 38.144531 C 212.914062 34.515625 209.835938 32.4375 205.867188 32.4375 C 202.152344 32.308594 198.738281 34.484375 197.277344 37.917969 C 195.691406 41.300781 195.59375 45.195312 197.003906 48.652344 C 198.453125 52.28125 201.242188 54.292969 205.0625 54.457031 C 205.242188 54.457031 205.425781 54.457031 205.628906 54.457031 C 209.417969 54.46875 212.277344 52.722656 213.917969 49.390625 Z M 205.601562 35.789062 L 205.714844 35.789062 C 207.457031 35.808594 209.054688 36.753906 209.910156 38.277344 C 211.929688 41.4375 211.929688 45.488281 209.910156 48.648438 C 209.074219 50.148438 207.5 51.082031 205.789062 51.09375 C 203.964844 51.085938 202.28125 50.101562 201.375 48.511719 C 200.480469 46.980469 200.035156 45.230469 200.09375 43.460938 C 200.0625 41.773438 200.453125 40.109375 201.230469 38.613281 C 202.066406 36.945312 203.742188 35.863281 205.601562 35.789062 Z M 205.601562 35.789062 "/>
<path style=" stroke:none;fill-rule:nonzero;fill:white;fill-opacity:1;" d="M 149.75 93.132812 C 149.421875 91.914062 149.113281 90.757812 148.84375 89.578125 C 148.539062 88.269531 148.113281 86.804688 146.859375 85.679688 L 147.011719 85.578125 C 148.933594 84.375 149.902344 82.09375 149.4375 79.871094 C 149.191406 77.597656 147.40625 75.796875 145.140625 75.539062 C 143.554688 75.324219 141.957031 75.238281 140.359375 75.28125 L 140.28125 75.28125 C 139.601562 75.304688 138.929688 75.378906 138.265625 75.511719 L 137.425781 75.640625 L 137.179688 75.671875 L 137.179688 95.074219 L 140.769531 95.074219 L 140.769531 88.625 C 140.769531 87.773438 140.769531 87.242188 140.945312 87.09375 C 141.121094 86.949219 141.742188 87.015625 142.59375 87.09375 C 143.765625 87.179688 144.746094 88.019531 145.015625 89.167969 C 145.066406 89.328125 145.105469 89.488281 145.144531 89.652344 L 145.476562 90.980469 C 145.738281 92.027344 146.011719 93.097656 146.300781 94.15625 C 146.375 94.417969 146.675781 95.011719 147.078125 95.039062 C 147.484375 95.070312 148.011719 95.085938 148.464844 95.085938 L 150.273438 95.085938 L 150.179688 94.730469 C 150.035156 94.199219 149.894531 93.664062 149.75 93.132812 Z M 140.785156 78.644531 C 140.828125 78.574219 140.886719 78.511719 140.949219 78.460938 L 141.558594 78.460938 C 142.417969 78.441406 143.273438 78.496094 144.121094 78.632812 C 145.066406 78.808594 145.769531 79.605469 145.828125 80.566406 C 146 81.949219 145.601562 82.890625 144.613281 83.421875 C 144.175781 83.675781 143.695312 83.839844 143.195312 83.90625 C 142.582031 83.9375 141.964844 83.9375 141.347656 83.90625 L 140.746094 83.90625 L 140.746094 83.003906 C 140.769531 81.527344 140.769531 80.074219 140.785156 78.644531 Z M 140.785156 78.644531 "/>
<path style=" stroke:none;fill-rule:nonzero;fill:white;fill-opacity:1;" d="M 251.4375 94.777344 C 251.4375 94.714844 251.4375 94.65625 251.4375 94.613281 C 251.4375 94.511719 251.417969 94.414062 251.386719 94.320312 L 249.609375 89.03125 C 248.164062 84.699219 246.726562 80.367188 245.292969 76.03125 C 245.1875 75.589844 244.765625 75.304688 244.320312 75.367188 C 243.65625 75.367188 242.898438 75.40625 242.160156 75.367188 C 241.621094 75.296875 241.121094 75.664062 241.023438 76.199219 C 239.648438 80.386719 238.261719 84.570312 236.871094 88.757812 L 235.167969 93.976562 C 235.113281 94.144531 235.070312 94.3125 235.035156 94.480469 L 234.886719 95.101562 L 236.023438 95.101562 C 236.59375 95.101562 237.160156 95.101562 237.730469 95.101562 L 237.832031 95.101562 C 238.320312 95.125 238.746094 94.78125 238.828125 94.296875 C 239.042969 93.585938 239.269531 92.871094 239.5 92.15625 C 239.765625 91.339844 240.027344 90.527344 240.273438 89.699219 C 240.375 89.363281 240.492188 89.277344 240.867188 89.28125 C 242.574219 89.308594 244.023438 89.308594 245.382812 89.28125 C 245.765625 89.28125 245.894531 89.371094 246.015625 89.761719 C 246.507812 91.351562 247.042969 92.933594 247.542969 94.414062 C 247.601562 94.578125 247.839844 95.050781 248.1875 95.0625 C 248.925781 95.097656 249.648438 95.089844 250.414062 95.0625 L 251.476562 95.0625 Z M 244.910156 86.109375 L 241.351562 86.109375 L 243.113281 80.640625 Z M 244.910156 86.109375 "/>
<path style=" stroke:none;fill-rule:nonzero;fill:white;fill-opacity:1;" d="M 120.855469 91.816406 L 119.378906 91.816406 C 117.828125 91.816406 116.269531 91.816406 114.71875 91.816406 C 114.472656 91.816406 114.394531 91.777344 114.363281 91.746094 C 114.335938 91.71875 114.296875 91.636719 114.300781 91.398438 C 114.300781 90.398438 114.300781 89.390625 114.300781 88.410156 C 114.300781 87.996094 114.300781 87.585938 114.300781 87.167969 C 114.285156 86.941406 114.300781 86.714844 114.347656 86.492188 C 114.566406 86.441406 114.789062 86.425781 115.011719 86.445312 L 116.421875 86.445312 C 117.730469 86.445312 119.03125 86.445312 120.335938 86.445312 C 120.585938 86.445312 121.199219 86.234375 121.222656 85.875 C 121.265625 85.273438 121.261719 84.691406 121.253906 84.078125 L 121.253906 83.179688 L 119.230469 83.179688 C 117.703125 83.179688 116.210938 83.179688 114.722656 83.179688 C 114.472656 83.179688 114.375 83.144531 114.347656 83.117188 C 114.320312 83.089844 114.285156 83.03125 114.289062 82.804688 C 114.332031 81.621094 114.332031 80.394531 114.289062 79.042969 C 114.289062 78.808594 114.324219 78.730469 114.351562 78.699219 C 114.382812 78.671875 114.472656 78.625 114.710938 78.632812 C 115.960938 78.632812 117.207031 78.632812 118.457031 78.632812 L 121.609375 78.632812 L 121.609375 75.449219 L 121.210938 75.402344 C 121.121094 75.386719 121.027344 75.375 120.9375 75.375 L 118.207031 75.375 C 116.007812 75.375 113.800781 75.375 111.59375 75.375 C 111.351562 75.355469 111.109375 75.433594 110.925781 75.597656 C 110.75 75.820312 110.671875 76.101562 110.707031 76.382812 C 110.707031 82.308594 110.707031 88.230469 110.707031 94.15625 C 110.65625 94.425781 110.738281 94.703125 110.929688 94.902344 C 111.121094 95.097656 111.398438 95.1875 111.667969 95.136719 C 113.871094 95.136719 116.070312 95.136719 118.265625 95.136719 L 122.0625 95.136719 L 122.0625 93.105469 C 122.085938 91.945312 121.953125 91.816406 120.855469 91.816406 Z M 120.855469 91.816406 "/>
<path style=" stroke:none;fill-rule:nonzero;fill:white;fill-opacity:1;" d="M 90.683594 75.449219 C 88.632812 75.042969 86.605469 75.21875 84.363281 75.449219 C 83.492188 75.542969 83.183594 75.894531 83.191406 76.777344 C 83.191406 81.15625 83.191406 85.539062 83.191406 89.902344 L 83.191406 95.074219 L 84.230469 95.074219 C 84.800781 95.074219 85.28125 95.074219 85.78125 95.074219 L 85.914062 95.074219 C 86.144531 95.085938 86.367188 95.011719 86.542969 94.863281 C 86.726562 94.648438 86.8125 94.367188 86.785156 94.085938 C 86.785156 92.550781 86.785156 91.015625 86.785156 89.476562 L 86.785156 88.367188 C 86.785156 88.191406 86.785156 88.019531 86.785156 87.835938 L 87.074219 87.835938 C 87.460938 87.867188 87.851562 87.867188 88.238281 87.835938 L 88.648438 87.792969 C 89.453125 87.734375 90.25 87.601562 91.03125 87.398438 C 94.050781 86.507812 95.636719 84.183594 95.488281 80.859375 C 95.390625 77.964844 93.667969 76.03125 90.683594 75.449219 Z M 86.796875 81.542969 C 86.796875 81.28125 86.796875 81.023438 86.796875 80.761719 C 86.796875 80.191406 86.796875 79.621094 86.796875 79.015625 C 86.765625 78.84375 86.792969 78.667969 86.878906 78.519531 C 86.964844 78.460938 87.070312 78.4375 87.171875 78.449219 L 87.273438 78.449219 C 87.589844 78.449219 87.921875 78.449219 88.234375 78.449219 C 88.652344 78.433594 89.074219 78.449219 89.488281 78.5 C 90.898438 78.613281 91.972656 79.804688 91.953125 81.222656 C 92.007812 82.933594 91.132812 84.117188 89.597656 84.449219 C 89.003906 84.550781 88.402344 84.601562 87.800781 84.597656 C 87.558594 84.597656 87.3125 84.597656 87.074219 84.597656 C 87.003906 84.609375 86.929688 84.59375 86.867188 84.554688 C 86.867188 84.554688 86.800781 84.464844 86.800781 84.238281 C 86.800781 83.589844 86.800781 82.941406 86.800781 82.296875 Z M 86.796875 81.542969 "/>
<path style=" stroke:none;fill-rule:nonzero;fill:white;fill-opacity:1;" d="M 115.605469 36.234375 L 117.40625 36.234375 C 118.695312 36.234375 119.914062 36.234375 121.152344 36.234375 C 121.402344 36.234375 121.488281 36.273438 121.515625 36.300781 C 121.546875 36.332031 121.585938 36.429688 121.585938 36.683594 C 121.585938 38.152344 121.585938 39.617188 121.585938 41.085938 L 121.585938 45.417969 C 121.585938 47.933594 121.585938 50.554688 121.585938 53.097656 C 121.550781 53.410156 121.648438 53.722656 121.851562 53.960938 C 122.039062 54.117188 122.277344 54.195312 122.515625 54.175781 L 122.707031 54.175781 C 123.046875 54.15625 123.390625 54.15625 123.734375 54.175781 C 123.90625 54.175781 124.082031 54.175781 124.25 54.175781 C 125.308594 54.175781 125.441406 54.039062 125.441406 52.988281 L 125.441406 37.027344 C 125.441406 36.8125 125.441406 36.59375 125.441406 36.355469 L 125.441406 36.234375 L 131.296875 36.234375 L 131.296875 32.777344 L 115.605469 32.777344 Z M 115.605469 36.234375 "/>
<path style=" stroke:none;fill-rule:nonzero;fill:white;fill-opacity:1;" d="M 166.121094 36.261719 L 171.988281 36.261719 L 171.988281 36.34375 C 171.988281 36.558594 172.015625 36.765625 172.015625 36.96875 C 172.015625 39.632812 172.015625 42.308594 172.015625 45 L 172.015625 48.996094 C 172.015625 50.34375 172.015625 51.734375 172.015625 53.097656 C 171.984375 53.40625 172.078125 53.710938 172.277344 53.941406 C 172.464844 54.101562 172.707031 54.183594 172.953125 54.164062 L 173.109375 54.164062 C 173.683594 54.125 174.265625 54.125 174.84375 54.164062 C 175.121094 54.210938 175.410156 54.136719 175.632812 53.960938 C 175.824219 53.734375 175.914062 53.441406 175.882812 53.148438 C 175.882812 51.550781 175.882812 49.917969 175.882812 48.351562 L 175.882812 44.074219 C 175.882812 41.609375 175.882812 39.140625 175.882812 36.65625 C 175.882812 36.394531 175.921875 36.296875 175.957031 36.261719 C 175.992188 36.230469 176.066406 36.199219 176.308594 36.210938 C 176.816406 36.246094 177.316406 36.238281 177.804688 36.210938 L 181.839844 36.210938 L 181.839844 32.78125 L 166.121094 32.78125 Z M 166.121094 36.261719 "/>
<path style=" stroke:none;fill-rule:nonzero;fill:white;fill-opacity:1;" d="M 195.582031 92.042969 C 195.363281 91.859375 195.082031 91.773438 194.796875 91.804688 C 193.867188 91.804688 192.929688 91.804688 191.996094 91.804688 C 190.902344 91.804688 189.816406 91.804688 188.726562 91.804688 C 188.550781 91.828125 188.375 91.796875 188.21875 91.710938 C 188.136719 91.5625 188.101562 91.390625 188.125 91.222656 C 188.125 87.546875 188.125 83.800781 188.125 80.203125 L 188.125 75.34375 L 187.078125 75.34375 C 186.539062 75.34375 186.027344 75.34375 185.519531 75.34375 C 185.253906 75.308594 184.984375 75.382812 184.773438 75.550781 C 184.585938 75.769531 184.496094 76.054688 184.53125 76.34375 C 184.53125 83.261719 184.53125 88.898438 184.53125 94.121094 C 184.507812 94.394531 184.589844 94.664062 184.761719 94.875 C 184.984375 95.050781 185.261719 95.136719 185.542969 95.109375 L 185.578125 95.109375 C 187.542969 95.109375 189.511719 95.109375 191.472656 95.109375 L 193.59375 95.109375 C 194.671875 95.109375 195.21875 95.109375 195.550781 94.777344 C 195.878906 94.445312 195.867188 93.925781 195.863281 92.832031 C 195.878906 92.542969 195.777344 92.257812 195.582031 92.042969 Z M 195.582031 92.042969 "/>
<path style=" stroke:none;fill-rule:nonzero;fill:white;fill-opacity:1;" d="M 221.515625 92.042969 C 221.296875 91.863281 221.011719 91.777344 220.730469 91.804688 C 219.792969 91.804688 218.859375 91.804688 217.921875 91.804688 C 216.835938 91.804688 215.746094 91.804688 214.660156 91.804688 C 214.484375 91.828125 214.308594 91.796875 214.152344 91.710938 C 214.0625 91.566406 214.027344 91.390625 214.050781 91.222656 C 214.050781 87.546875 214.050781 83.800781 214.050781 80.203125 L 214.050781 75.34375 L 213.007812 75.34375 C 212.46875 75.34375 211.957031 75.34375 211.453125 75.34375 C 211.1875 75.308594 210.917969 75.382812 210.707031 75.550781 C 210.519531 75.769531 210.429688 76.054688 210.457031 76.34375 C 210.457031 83.25 210.457031 88.898438 210.457031 94.121094 C 210.433594 94.394531 210.519531 94.664062 210.695312 94.875 C 210.914062 95.054688 211.195312 95.136719 211.472656 95.109375 L 211.507812 95.109375 C 213.476562 95.109375 215.4375 95.109375 217.40625 95.109375 L 219.484375 95.109375 C 220.570312 95.109375 221.113281 95.109375 221.441406 94.777344 C 221.769531 94.445312 221.765625 93.925781 221.753906 92.832031 C 221.78125 92.546875 221.695312 92.261719 221.515625 92.042969 Z M 221.515625 92.042969 "/>
<path style=" stroke:none;fill-rule:nonzero;fill:white;fill-opacity:1;" d="M 150.609375 33.804688 C 150.609375 33.632812 150.609375 33.464844 150.609375 33.289062 L 150.582031 32.765625 L 146.953125 32.765625 L 146.875 33.089844 C 146.855469 33.148438 146.847656 33.207031 146.847656 33.265625 L 146.847656 38.289062 C 146.847656 43.3125 146.847656 48.332031 146.847656 53.355469 C 146.828125 53.574219 146.902344 53.792969 147.050781 53.953125 C 147.21875 54.101562 147.441406 54.171875 147.664062 54.15625 L 148.039062 54.15625 C 148.519531 54.128906 149 54.128906 149.480469 54.15625 L 149.6875 54.15625 C 149.9375 54.167969 150.183594 54.089844 150.378906 53.933594 C 150.597656 53.671875 150.703125 53.332031 150.667969 52.988281 C 150.667969 48.246094 150.667969 43.511719 150.667969 38.769531 Z M 150.609375 33.804688 "/>
<path style=" stroke:none;fill-rule:nonzero;fill:white;fill-opacity:1;" d="M 164.882812 75.414062 L 168.421875 75.414062 L 168.421875 95.050781 L 164.882812 95.050781 Z M 164.882812 75.414062 "/>
<path style=" stroke:none;fill-rule:nonzero;fill:white;fill-opacity:1;" d="M 62.507812 0 L 60.703125 0 C 45.6875 0 33.5 17.550781 32.691406 32.777344 L 15.207031 32.777344 C 7.078125 32.933594 0.570312 39.597656 0.570312 47.757812 C 0.570312 55.921875 7.078125 62.585938 15.207031 62.742188 L 32.652344 62.742188 L 32.652344 80.011719 C 32.546875 85.4375 35.367188 90.492188 40.03125 93.234375 C 44.691406 95.976562 50.464844 95.976562 55.128906 93.234375 C 59.789062 90.492188 62.613281 85.4375 62.507812 80.011719 L 62.507812 62.777344 C 71.679688 62.683594 80.476562 59.113281 87.140625 52.785156 C 92.492188 47.585938 95.4375 41.132812 95.4375 34.601562 L 95.4375 32.777344 L 62.507812 32.777344 Z M 58.90625 3.722656 L 58.90625 32.777344 L 36.300781 32.777344 C 37.074219 19.90625 47.011719 5.101562 58.90625 3.722656 Z M 15.207031 59.125 C 8.953125 59.125 3.882812 54.035156 3.882812 47.757812 C 3.882812 41.476562 8.953125 36.386719 15.207031 36.386719 L 32.652344 36.386719 L 32.652344 59.132812 Z M 47.574219 91.386719 C 41.328125 91.363281 36.273438 86.285156 36.25 80.011719 L 36.25 62.742188 L 58.90625 62.742188 L 58.90625 80.011719 C 58.886719 86.285156 53.824219 91.367188 47.574219 91.386719 Z M 84.640625 50.164062 C 78.34375 56.144531 69.9375 59.371094 61.273438 59.132812 L 36.253906 59.132812 L 36.253906 36.386719 L 91.753906 36.386719 C 91.253906 41.3125 88.777344 46.140625 84.640625 50.164062 Z M 84.640625 50.164062 "/>
<path style=" stroke:none;fill-rule:nonzero;fill:white;fill-opacity:1;" d="M 51.132812 45.503906 C 52.371094 46.75 52.371094 48.765625 51.132812 50.007812 C 49.894531 51.253906 47.886719 51.253906 46.644531 50.007812 C 45.40625 48.765625 45.40625 46.75 46.644531 45.503906 C 47.886719 44.261719 49.894531 44.261719 51.132812 45.503906 Z M 51.132812 45.503906 "/>
</g>
</svg>
