<?xml version="1.0" encoding="UTF-8"?>
<svg xmlns="http://www.w3.org/2000/svg" xmlns:xlink="http://www.w3.org/1999/xlink" width="200px" height="131px" viewBox="0 0 299 131" version="1.1">
<g id="surface1" class="marcahome">
<path style=" stroke:none;fill-rule:nonzero;fill:white;fill-opacity:1;" d="M 14.039062 111.242188 C 15.335938 112.183594 15.984375 113.660156 15.984375 115.609375 C 15.984375 117.613281 15.335938 119.148438 14.039062 120.152344 C 12.503906 121.214844 10.675781 121.746094 8.847656 121.6875 L 6.722656 121.6875 L 6.722656 128.0625 L 3.183594 128.0625 L 3.183594 109.765625 L 8.554688 109.765625 C 10.914062 109.765625 12.742188 110.238281 14.039062 111.242188 Z M 11.382812 118.265625 C 12.03125 117.734375 12.328125 116.847656 12.328125 115.550781 C 12.328125 113.367188 11.089844 112.304688 8.554688 112.304688 L 6.664062 112.304688 L 6.664062 119.03125 L 8.554688 119.03125 C 9.554688 119.148438 10.558594 118.855469 11.382812 118.265625 Z M 11.382812 118.265625 "/>
<path style=" stroke:none;fill-rule:nonzero;fill:white;fill-opacity:1;" d="M 62.464844 109.765625 L 62.113281 112.363281 L 55.386719 112.363281 L 55.386719 117.4375 L 61.285156 117.4375 L 61.285156 120.035156 L 55.386719 120.035156 L 55.386719 125.40625 L 62.585938 125.40625 L 62.585938 128.003906 L 51.847656 128.003906 L 51.847656 109.707031 L 62.464844 109.707031 Z M 62.464844 109.765625 "/>
<path style=" stroke:none;fill-rule:nonzero;fill:white;fill-opacity:1;" d="M 104.640625 120.742188 L 102.398438 120.742188 L 102.398438 128.0625 L 98.917969 128.0625 L 98.917969 109.765625 L 104.347656 109.765625 C 109.183594 109.765625 111.601562 111.535156 111.601562 115.136719 C 111.660156 116.199219 111.304688 117.261719 110.714844 118.144531 C 110.007812 119.03125 109.007812 119.679688 107.886719 120.09375 L 112.664062 128.0625 L 108.652344 128.0625 Z M 102.457031 118.207031 L 104.640625 118.207031 C 105.527344 118.265625 106.410156 118.027344 107.175781 117.496094 C 107.828125 116.90625 108.121094 116.023438 108.0625 115.136719 C 108.121094 114.308594 107.828125 113.484375 107.175781 113.011719 C 106.351562 112.480469 105.347656 112.246094 104.40625 112.363281 L 102.519531 112.363281 Z M 102.457031 118.207031 "/>
<path style=" stroke:none;fill-rule:nonzero;fill:white;fill-opacity:1;" d="M 151.652344 109.765625 L 151.652344 128.0625 L 148.171875 128.0625 L 148.171875 109.765625 Z M 151.652344 109.765625 "/>
<path style=" stroke:none;fill-rule:nonzero;fill:white;fill-opacity:1;" d="M 192.53125 109.765625 L 192.53125 125.167969 L 199.84375 125.167969 L 199.433594 128.003906 L 188.992188 128.003906 L 188.992188 109.707031 L 192.53125 109.707031 Z M 192.53125 109.765625 "/>
<path style=" stroke:none;fill-rule:nonzero;fill:white;fill-opacity:1;" d="M 238.953125 109.765625 L 238.953125 125.167969 L 246.265625 125.167969 L 245.855469 128.003906 L 235.414062 128.003906 L 235.414062 109.707031 L 238.953125 109.707031 Z M 238.953125 109.765625 "/>
<path style=" stroke:none;fill-rule:nonzero;fill:white;fill-opacity:1;" d="M 291.566406 128.0625 L 290.445312 123.8125 L 284.371094 123.8125 L 283.25 128.0625 L 279.652344 128.0625 L 285.316406 109.765625 L 289.621094 109.765625 L 295.285156 128.0625 Z M 285.078125 121.15625 L 289.738281 121.15625 L 287.378906 112.421875 Z M 285.078125 121.15625 "/>
<path style=" stroke:none;fill-rule:nonzero;fill:white;fill-opacity:1;" d="M 103.578125 24.480469 L 103.578125 68.511719 C 103.460938 73.820312 107.648438 78.25 112.957031 78.425781 C 118.265625 78.542969 122.691406 74.351562 122.867188 69.042969 C 122.867188 68.863281 122.867188 68.746094 122.867188 68.570312 L 122.867188 66.679688 L 115.964844 66.917969 L 115.847656 63.375 L 122.867188 63.140625 L 122.867188 50.6875 L 115.964844 50.921875 L 115.847656 47.378906 L 122.867188 47.144531 L 122.867188 35.988281 L 115.964844 36.226562 L 115.847656 32.683594 L 122.867188 32.449219 L 122.867188 19.582031 L 115.964844 19.816406 L 115.847656 16.277344 L 122.867188 16.039062 L 122.867188 3.707031 C 111.957031 4.53125 103.578125 13.5625 103.578125 24.480469 Z M 103.578125 24.480469 "/>
<path style=" stroke:none;fill-rule:nonzero;fill:white;fill-opacity:1;" d="M 122.867188 16.101562 L 115.847656 16.335938 L 115.964844 19.878906 L 122.867188 19.640625 L 122.867188 32.507812 L 115.847656 32.742188 L 115.964844 36.285156 L 122.867188 36.046875 L 122.867188 47.261719 L 115.847656 47.5 L 115.964844 51.039062 L 122.867188 50.804688 L 122.867188 63.140625 L 115.847656 63.375 L 115.964844 66.917969 L 122.867188 66.679688 L 122.867188 68.570312 C 122.984375 73.882812 118.796875 78.308594 113.488281 78.484375 C 108.179688 78.660156 103.757812 74.414062 103.578125 69.101562 C 103.578125 68.921875 103.578125 68.804688 103.578125 68.628906 L 103.578125 24.480469 C 103.578125 13.5625 112.015625 4.53125 122.867188 3.707031 Z M 122.867188 16.101562 "/>
<path style=" stroke:none;fill-rule:nonzero;fill:white;fill-opacity:1;" d="M 281.007812 3.882812 L 277.058594 3.882812 L 277.058594 28.375 L 295.933594 28.375 L 295.933594 18.816406 C 295.933594 10.550781 289.265625 3.882812 281.007812 3.882812 Z M 281.007812 3.882812 "/>
<path style=" stroke:none;fill-rule:nonzero;fill:white;fill-opacity:1;" d="M 295.933594 28.375 L 277.058594 28.375 L 277.058594 3.882812 L 281.007812 3.882812 C 289.265625 3.882812 295.933594 10.550781 295.933594 18.816406 Z M 295.933594 28.375 "/>
<path style=" stroke:none;fill-rule:nonzero;fill:white;fill-opacity:1;" d="M 274.050781 31.445312 L 274.050781 3.882812 L 250.277344 3.882812 L 250.277344 63.671875 C 250.277344 71.933594 256.941406 78.601562 265.199219 78.601562 L 295.933594 78.601562 L 295.933594 31.445312 Z M 273.929688 73.410156 L 273.753906 65.972656 L 277.234375 65.914062 L 277.410156 73.351562 Z M 273.636719 51.984375 L 277.175781 51.925781 L 277.351562 59.363281 L 273.8125 59.480469 Z M 273.988281 45.492188 L 273.8125 38.054688 L 277.351562 37.996094 L 277.527344 45.433594 Z M 273.988281 45.492188 "/>
<path style=" stroke:none;fill-rule:nonzero;fill:white;fill-opacity:1;" d="M 68.484375 30.796875 L 53.617188 30.796875 L 53.617188 50.09375 L 68.484375 50.09375 C 73.792969 49.976562 78.039062 45.550781 77.863281 40.179688 C 77.742188 35.105469 73.613281 30.914062 68.484375 30.796875 Z M 68.484375 30.796875 "/>
<path style=" stroke:none;fill-rule:nonzero;fill:white;fill-opacity:1;" d="M 31.261719 77.894531 C 42.117188 77.066406 50.550781 68.039062 50.550781 57.117188 L 50.550781 30.796875 L 31.261719 30.796875 Z M 40.699219 39.058594 C 42.175781 39.058594 43.414062 40.238281 43.414062 41.773438 C 43.414062 43.308594 42.234375 44.488281 40.699219 44.488281 C 39.167969 44.488281 37.988281 43.308594 37.988281 41.773438 C 37.988281 40.296875 39.167969 39.058594 40.699219 39.058594 Z M 40.699219 39.058594 "/>
<path style=" stroke:none;fill-rule:nonzero;fill:white;fill-opacity:1;" d="M 40.9375 3.410156 C 35.628906 3.410156 31.320312 7.71875 31.261719 13.089844 L 31.261719 27.726562 L 50.550781 27.726562 L 50.550781 13.089844 C 50.550781 7.777344 46.246094 3.46875 40.9375 3.410156 Z M 40.9375 3.410156 "/>
<path style=" stroke:none;fill-rule:nonzero;fill:white;fill-opacity:1;" d="M 3.304688 50.09375 L 28.195312 50.09375 L 28.195312 30.796875 L 24.066406 30.796875 C 13.152344 30.796875 4.128906 39.234375 3.304688 50.09375 Z M 3.304688 50.09375 "/>
<path style=" stroke:none;fill-rule:nonzero;fill:white;fill-opacity:1;" d="M 3.304688 50.09375 L 28.195312 50.09375 L 28.195312 30.796875 L 24.066406 30.796875 C 13.152344 30.796875 4.128906 39.234375 3.304688 50.09375 Z M 3.304688 50.09375 "/>
<path style=" stroke:none;fill-rule:nonzero;fill:white;fill-opacity:1;" d="M 31.261719 77.894531 C 42.117188 77.066406 50.550781 68.039062 50.550781 57.117188 L 50.550781 30.796875 L 31.261719 30.796875 Z M 40.699219 39.058594 C 42.175781 39.058594 43.414062 40.238281 43.414062 41.773438 C 43.414062 43.308594 42.234375 44.488281 40.699219 44.488281 C 39.167969 44.488281 37.988281 43.308594 37.988281 41.773438 C 37.988281 40.296875 39.167969 39.058594 40.699219 39.058594 Z M 40.699219 39.058594 "/>
<path style=" stroke:none;fill-rule:nonzero;fill:white;fill-opacity:1;" d="M 68.484375 30.796875 L 53.617188 30.796875 L 53.617188 50.09375 L 68.484375 50.09375 C 73.792969 49.976562 78.039062 45.550781 77.863281 40.179688 C 77.742188 35.105469 73.613281 30.914062 68.484375 30.796875 Z M 68.484375 30.796875 "/>
<path style=" stroke:none;fill-rule:nonzero;fill:white;fill-opacity:1;" d="M 40.9375 3.410156 C 35.628906 3.410156 31.320312 7.71875 31.261719 13.089844 L 31.261719 27.726562 L 50.550781 27.726562 L 50.550781 13.089844 C 50.550781 7.777344 46.246094 3.46875 40.9375 3.410156 Z M 40.9375 3.410156 "/>
<path style=" stroke:none;fill-rule:nonzero;fill:white;fill-opacity:1;" d="M 148.289062 41.125 C 148.289062 46.4375 152.597656 50.746094 157.964844 50.804688 L 172.828125 50.804688 L 172.828125 31.445312 L 157.964844 31.445312 C 152.597656 31.445312 148.289062 35.8125 148.289062 41.125 Z M 148.289062 41.125 "/>
<path style=" stroke:none;fill-rule:nonzero;fill:white;fill-opacity:1;" d="M 195.125 3.707031 C 184.273438 4.53125 175.835938 13.5625 175.835938 24.480469 L 175.835938 28.375 L 195.125 28.375 Z M 195.125 3.707031 "/>
<path style=" stroke:none;fill-rule:nonzero;fill:white;fill-opacity:1;" d="M 175.835938 68.511719 C 175.71875 73.820312 179.90625 78.25 185.214844 78.425781 C 190.523438 78.601562 194.949219 74.351562 195.125 69.042969 C 195.125 68.863281 195.125 68.746094 195.125 68.570312 L 195.125 53.8125 L 175.835938 53.8125 Z M 175.835938 68.511719 "/>
<path style=" stroke:none;fill-rule:nonzero;fill:white;fill-opacity:1;" d="M 175.835938 50.746094 L 202.320312 50.746094 C 213.234375 50.746094 222.257812 42.304688 223.085938 31.445312 L 175.835938 31.445312 Z M 186.574219 38.410156 C 188.046875 38.410156 189.285156 39.589844 189.285156 41.125 C 189.285156 42.601562 188.105469 43.839844 186.574219 43.839844 C 185.097656 43.839844 183.859375 42.660156 183.859375 41.125 C 183.917969 39.648438 185.097656 38.410156 186.574219 38.410156 Z M 186.574219 38.410156 "/>
<path style=" stroke:none;fill-rule:nonzero;fill:white;fill-opacity:1;" d="M 175.835938 68.511719 C 175.71875 73.820312 179.90625 78.25 185.214844 78.425781 C 190.523438 78.601562 194.949219 74.351562 195.125 69.042969 C 195.125 68.863281 195.125 68.746094 195.125 68.570312 L 195.125 53.8125 L 175.835938 53.8125 Z M 175.835938 68.511719 "/>
<path style=" stroke:none;fill-rule:nonzero;fill:white;fill-opacity:1;" d="M 195.125 3.707031 C 184.273438 4.53125 175.835938 13.5625 175.835938 24.480469 L 175.835938 28.375 L 195.125 28.375 Z M 195.125 3.707031 "/>
<path style=" stroke:none;fill-rule:nonzero;fill:white;fill-opacity:1;" d="M 148.289062 41.125 C 148.289062 46.4375 152.597656 50.746094 157.964844 50.804688 L 172.828125 50.804688 L 172.828125 31.445312 L 157.964844 31.445312 C 152.597656 31.445312 148.289062 35.8125 148.289062 41.125 Z M 148.289062 41.125 "/>
<path style=" stroke:none;fill-rule:nonzero;fill:white;fill-opacity:1;" d="M 175.835938 31.445312 L 175.835938 50.746094 L 202.320312 50.746094 C 213.234375 50.746094 222.257812 42.304688 223.085938 31.445312 Z M 186.574219 43.839844 C 185.097656 43.839844 183.859375 42.601562 183.859375 41.125 C 183.859375 39.648438 185.097656 38.410156 186.574219 38.410156 C 188.046875 38.410156 189.285156 39.648438 189.285156 41.125 C 189.285156 42.601562 188.105469 43.839844 186.574219 43.839844 C 186.632812 43.839844 186.632812 43.839844 186.574219 43.839844 Z M 186.574219 43.839844 "/>
</g>
</svg>
