<?xml version="1.0" encoding="UTF-8"?>
<svg xmlns="http://www.w3.org/2000/svg" xmlns:xlink="http://www.w3.org/1999/xlink" width="200px" height="80px" viewBox="0 0 199 80" version="1.1">
<g id="surface1">
<path style=" stroke:none;fill-rule:nonzero;fill:white;fill-opacity:1;" d="M 67.648438 61.722656 C 68.800781 61.53125 69.953125 61.433594 71.007812 61.433594 C 72.738281 61.433594 73.988281 61.820312 74.851562 62.589844 C 75.621094 63.363281 76.101562 64.421875 76.007812 65.480469 C 76.101562 66.542969 75.71875 67.601562 74.949219 68.46875 C 73.988281 69.429688 72.449219 70.007812 70.722656 70.007812 C 70.242188 70.007812 69.761719 70.007812 69.28125 69.914062 L 69.28125 75.40625 L 67.550781 75.40625 L 67.550781 61.722656 Z M 69.375 68.371094 C 69.855469 68.46875 70.335938 68.566406 70.816406 68.46875 C 72.929688 68.46875 74.277344 67.410156 74.277344 65.480469 C 74.277344 63.652344 73.027344 62.785156 71.007812 62.785156 C 70.433594 62.785156 69.855469 62.785156 69.375 62.878906 Z M 69.375 68.371094 "/>
<path style=" stroke:none;fill-rule:nonzero;fill:white;fill-opacity:1;" d="M 95.703125 68.855469 L 90.324219 68.855469 L 90.324219 73.765625 L 96.28125 73.765625 L 96.28125 75.308594 L 88.59375 75.308594 L 88.59375 61.53125 L 95.992188 61.53125 L 95.992188 63.074219 L 90.324219 63.074219 L 90.324219 67.410156 L 95.703125 67.410156 Z M 95.703125 68.855469 "/>
<path style=" stroke:none;fill-rule:nonzero;fill:white;fill-opacity:1;" d="M 108.867188 61.722656 C 110.023438 61.53125 111.175781 61.433594 112.230469 61.433594 C 114.152344 61.433594 115.304688 61.820312 116.171875 62.589844 C 116.84375 63.265625 117.226562 64.230469 117.226562 65.191406 C 117.226562 66.832031 116.171875 68.277344 114.632812 68.757812 L 114.632812 68.855469 C 115.691406 69.238281 116.363281 70.203125 116.652344 71.648438 C 117.035156 73.574219 117.421875 74.921875 117.707031 75.40625 L 115.882812 75.40625 C 115.691406 75.019531 115.402344 73.863281 114.921875 72.128906 C 114.539062 70.203125 113.769531 69.527344 112.136719 69.429688 L 110.503906 69.429688 L 110.503906 75.40625 L 108.773438 75.40625 Z M 110.597656 67.988281 L 112.425781 67.988281 C 114.347656 67.988281 115.5 66.925781 115.5 65.386719 C 115.5 63.554688 114.25 62.785156 112.328125 62.785156 C 111.75 62.785156 111.175781 62.785156 110.597656 62.976562 Z M 110.597656 67.988281 "/>
<path style=" stroke:none;fill-rule:nonzero;fill:white;fill-opacity:1;" d="M 131.738281 61.53125 L 131.738281 75.308594 L 130.007812 75.308594 L 130.007812 61.53125 Z M 131.738281 61.53125 "/>
<path style=" stroke:none;fill-rule:nonzero;fill:white;fill-opacity:1;" d="M 145 61.53125 L 146.726562 61.53125 L 146.726562 73.863281 L 152.589844 73.863281 L 152.589844 75.40625 L 145 75.40625 Z M 145 61.53125 "/>
<path style=" stroke:none;fill-rule:nonzero;fill:white;fill-opacity:1;" d="M 164.792969 61.53125 L 166.523438 61.53125 L 166.523438 73.863281 L 172.382812 73.863281 L 172.382812 75.40625 L 164.792969 75.40625 Z M 164.792969 61.53125 "/>
<path style=" stroke:none;fill-rule:nonzero;fill:white;fill-opacity:1;" d="M 186.796875 71.070312 L 185.355469 75.40625 L 183.53125 75.40625 L 188.238281 61.628906 L 190.351562 61.628906 L 195.058594 75.40625 L 193.136719 75.40625 L 191.695312 71.070312 Z M 191.3125 69.625 L 189.96875 65.675781 C 189.679688 64.808594 189.488281 63.941406 189.296875 63.167969 C 189.101562 64.035156 188.910156 64.808594 188.621094 65.675781 L 187.277344 69.625 Z M 191.3125 69.625 "/>
<path style=" stroke:none;fill-rule:nonzero;fill:white;fill-opacity:1;" d="M 96.953125 31.378906 L 92.4375 31.378906 L 92.4375 29.738281 L 103.488281 29.738281 L 103.488281 31.378906 L 98.875 31.378906 L 98.875 44.769531 L 96.953125 44.769531 Z M 96.953125 31.378906 "/>
<path style=" stroke:none;fill-rule:nonzero;fill:white;fill-opacity:1;" d="M 118.09375 29.738281 L 118.09375 44.769531 L 116.171875 44.769531 L 116.171875 29.738281 Z M 118.09375 29.738281 "/>
<path style=" stroke:none;fill-rule:nonzero;fill:white;fill-opacity:1;" d="M 135.390625 31.378906 L 130.871094 31.378906 L 130.871094 29.738281 L 141.921875 29.738281 L 141.921875 31.378906 L 137.40625 31.378906 L 137.40625 44.769531 L 135.484375 44.769531 L 135.484375 31.378906 Z M 135.390625 31.378906 "/>
<path style=" stroke:none;fill-rule:nonzero;fill:white;fill-opacity:1;" d="M 167.484375 37.0625 C 167.484375 42.265625 164.3125 44.960938 160.566406 44.960938 C 156.625 44.960938 153.839844 41.878906 153.839844 37.351562 C 153.839844 32.535156 156.816406 29.449219 160.757812 29.449219 C 164.792969 29.449219 167.484375 32.628906 167.484375 37.0625 Z M 155.855469 37.351562 C 155.855469 40.53125 157.585938 43.421875 160.566406 43.421875 C 163.542969 43.421875 165.367188 40.625 165.367188 37.15625 C 165.367188 34.171875 163.832031 31.089844 160.566406 31.089844 C 157.394531 30.992188 155.855469 33.980469 155.855469 37.351562 Z M 155.855469 37.351562 "/>
<path style=" stroke:none;fill-rule:nonzero;fill:white;fill-opacity:1;" d="M 51.40625 4.015625 L 50.0625 4.015625 C 38.722656 4.015625 29.402344 17.3125 28.828125 28.871094 L 15.566406 28.871094 C 9.417969 29.066406 4.421875 34.074219 4.421875 40.335938 C 4.421875 46.503906 9.320312 51.609375 15.566406 51.707031 L 28.828125 51.707031 L 28.828125 64.808594 C 28.730469 68.949219 30.84375 72.804688 34.398438 74.828125 C 37.957031 76.945312 42.277344 76.945312 45.835938 74.828125 C 49.390625 72.707031 51.503906 68.855469 51.40625 64.808594 L 51.40625 51.707031 C 58.324219 51.609375 65.050781 48.910156 70.144531 44.09375 C 74.179688 40.144531 76.488281 35.230469 76.488281 30.222656 L 76.488281 28.871094 L 51.503906 28.871094 L 51.503906 4.015625 Z M 48.71875 6.8125 L 48.71875 28.871094 L 31.515625 28.871094 C 32.191406 19.144531 39.683594 7.871094 48.71875 6.8125 Z M 15.566406 48.910156 C 10.859375 48.910156 7.015625 45.058594 7.015625 40.242188 C 7.015625 35.425781 10.859375 31.570312 15.566406 31.570312 L 28.828125 31.570312 L 28.828125 48.910156 Z M 40.070312 73.476562 C 35.359375 73.476562 31.515625 69.625 31.515625 64.808594 L 31.515625 51.707031 L 48.71875 51.707031 L 48.71875 64.808594 C 48.71875 69.625 44.875 73.476562 40.070312 73.476562 Z M 68.222656 42.167969 C 63.417969 46.695312 57.078125 49.199219 50.445312 49.007812 L 31.515625 49.007812 L 31.515625 31.667969 L 73.605469 31.667969 C 73.21875 35.425781 71.394531 39.085938 68.222656 42.167969 Z M 68.222656 42.167969 "/>
<path style=" stroke:none;fill-rule:nonzero;fill:white;fill-opacity:1;" d="M 42.855469 38.601562 C 43.816406 39.566406 43.816406 41.109375 42.855469 42.070312 C 41.894531 43.035156 40.355469 43.035156 39.492188 42.070312 C 38.628906 41.109375 38.433594 39.566406 39.394531 38.601562 C 40.355469 37.640625 41.894531 37.640625 42.855469 38.601562 Z M 42.855469 38.601562 "/>
</g>
</svg>
