<?xml version="1.0" encoding="UTF-8"?>
<svg xmlns="http://www.w3.org/2000/svg" xmlns:xlink="http://www.w3.org/1999/xlink" width="500px" height="px" viewBox="0 0 500 500" version="1.1">
<g id="surface1">
<rect x="0" y="0" width="500" height="500" style="fill:rgb(100%,100%,100%);fill-opacity:1;stroke:none;"/>
<path style=" stroke:none;fill-rule:nonzero;fill:rgb(0%,0%,0%);fill-opacity:1;" d="M 377.78125 163.5625 C 386.78125 159.65625 395.90625 155.53125 404.71875 151.5625 L 408.125 150 C 414.082031 147.828125 418.007812 142.121094 417.90625 135.78125 C 417.75 129.632812 413.882812 124.195312 408.125 122.03125 L 373 106.40625 L 337.5 90.625 C 310.832031 78.707031 284.238281 66.792969 257.71875 54.875 C 250.84375 51.265625 242.699219 50.988281 235.59375 54.125 L 134.5625 99.1875 L 82.8125 122.28125 C 77.222656 124.570312 73.574219 130.007812 73.574219 136.046875 C 73.574219 142.085938 77.222656 147.523438 82.8125 149.8125 L 123.4375 167.9375 L 233.84375 217.28125 C 241.320312 220.828125 249.992188 220.828125 257.46875 217.28125 C 271.28125 211.03125 285.105469 204.855469 298.9375 198.75 L 340.625 180.25 C 340.625 181.09375 340.625 181.8125 340.625 182.5 L 340.625 203.84375 C 340.625 225.71875 340.625 252.875 340.625 267.6875 C 341.230469 273.8125 338.644531 279.820312 333.78125 283.59375 C 327.367188 288.570312 320.492188 292.921875 313.25 296.59375 C 297.316406 303.824219 280.1875 308.0625 262.71875 309.09375 C 236.199219 311.789062 209.410156 308.433594 184.375 299.28125 C 175.09375 296.0625 166.46875 291.203125 158.90625 284.9375 C 152.65625 279.59375 150.1875 274.125 150.875 267.1875 C 151.1875 263.875 151.0625 245.625 150.875 235.9375 C 150.875 233.5625 150.875 231.75 150.875 230.90625 L 150.875 221.625 C 150.875 214.167969 150.875 206.675781 150.875 199.15625 C 150.875 195.375 149.09375 193.15625 146 193.125 C 144.742188 193.054688 143.507812 193.503906 142.59375 194.375 C 141.445312 195.632812 140.859375 197.300781 140.96875 199 L 140.96875 202.125 C 140.96875 205.625 140.96875 210.53125 140.96875 216.15625 C 140.96875 233.84375 140.96875 258.0625 140.96875 268.84375 C 140.609375 276.714844 143.542969 284.378906 149.0625 290 C 156.257812 297.390625 164.980469 303.117188 174.625 306.78125 C 217.164062 324.234375 264.628906 325.492188 308.03125 310.3125 C 320.121094 306.605469 331.246094 300.292969 340.625 291.8125 C 347.417969 285.773438 351.117188 276.984375 350.6875 267.90625 C 350.34375 249.15625 350.46875 212.625 350.6875 188.53125 L 350.6875 178.75 C 350.652344 177.683594 350.832031 176.621094 351.21875 175.625 C 355.03125 173.65625 358.90625 171.96875 363 170.1875 L 365.59375 169.03125 C 365.609375 169.292969 365.609375 169.550781 365.59375 169.8125 L 365.59375 196.15625 C 365.59375 226.28125 365.59375 265.5 365.59375 286.375 C 365.59375 288.125 365.03125 288.625 363.5625 289.5 C 359.511719 291.878906 356.644531 295.847656 355.65625 300.4375 C 354.71875 304.519531 355.546875 308.808594 357.9375 312.25 C 360.492188 315.882812 361.609375 320.339844 361.0625 324.75 C 360.96875 326.949219 361.054688 329.15625 361.3125 331.34375 C 363.28125 349.625 370.3125 360.65625 383.4375 366.03125 C 384.578125 366.546875 385.8125 366.824219 387.0625 366.84375 C 389.242188 366.78125 391.273438 365.734375 392.59375 364 C 395.46875 360.875 398.53125 357.75 401.5 354.625 C 402.96875 353.0625 404.46875 351.5 405.96875 349.96875 C 407.777344 348.503906 408.777344 346.261719 408.65625 343.9375 C 408.34375 342.125 406.875 340.625 404.0625 339.21875 C 394.578125 334.972656 387.003906 327.355469 382.8125 317.84375 C 381.890625 316.238281 381.964844 314.25 383 312.71875 C 385.378906 308.828125 386.101562 304.144531 385 299.71875 C 383.960938 295.574219 381.304688 292.015625 377.625 289.84375 C 376.253906 289.222656 375.453125 287.773438 375.65625 286.28125 C 375.65625 257.53125 375.65625 195.65625 375.65625 167.3125 C 375.59375 165.09375 376.0625 164.28125 377.78125 163.5625 Z M 373.53125 308.0625 C 372.6875 308.863281 371.570312 309.3125 370.40625 309.3125 C 369.015625 309.21875 367.71875 308.5625 366.816406 307.496094 C 365.917969 306.429688 365.488281 305.046875 365.625 303.65625 C 365.695312 302.117188 366.367188 300.667969 367.5 299.625 C 368.335938 298.8125 369.457031 298.363281 370.625 298.375 L 370.8125 298.375 C 373.644531 298.71875 375.695312 301.25 375.4375 304.09375 C 375.367188 305.621094 374.679688 307.054688 373.53125 308.0625 Z M 371.5625 320.34375 C 372.09375 320.398438 372.597656 320.617188 373 320.96875 C 377.308594 331.582031 385 340.476562 394.875 346.28125 L 393.28125 348.03125 C 391.09375 350.34375 389.0625 352.53125 387.03125 354.5 C 386.25 354.867188 385.34375 354.867188 384.5625 354.5 C 377.75 350.875 373.65625 344.21875 372.0625 334.09375 C 371.539062 330.21875 371.269531 326.316406 371.25 322.40625 L 371.25 321.5625 C 371.285156 321.140625 371.394531 320.730469 371.5625 320.34375 Z M 243.4375 62.875 C 244.1875 62.6875 244.96875 62.46875 245.71875 62.21875 L 247.90625 62.84375 C 249.542969 63.242188 251.140625 63.777344 252.6875 64.4375 C 296 83.707031 339.300781 103.019531 382.59375 122.375 L 403.8125 131.75 C 406.46875 132.90625 408.03125 133.78125 407.5625 135.8125 C 406.921875 137.644531 405.570312 139.144531 403.8125 139.96875 C 367.28125 156.4375 330.09375 173.03125 294.125 189.09375 L 276.8125 196.875 L 268.75 200.53125 C 263.53125 202.84375 258.34375 205.125 253.125 207.5 C 248.40625 209.78125 242.90625 209.78125 238.1875 207.5 L 191.3125 186.53125 C 156.75 171.09375 122.144531 155.605469 87.5 140.0625 C 85.761719 139.226562 84.414062 137.75 83.75 135.9375 C 83.3125 133.90625 84.9375 133 87.46875 131.875 L 118.28125 118.125 C 158.175781 100.292969 198.175781 82.457031 238.28125 64.625 C 239.984375 63.910156 241.738281 63.328125 243.53125 62.875 Z M 243.4375 62.875 "/>
</g>
</svg>
