<?xml version="1.0" encoding="UTF-8"?>
<svg xmlns="http://www.w3.org/2000/svg" xmlns:xlink="http://www.w3.org/1999/xlink" width="500px" height="px" viewBox="0 0 500 500" version="1.1">
<g id="surface1">
<rect x="0" y="0" width="500" height="500" style="fill:rgb(100%,100%,100%);fill-opacity:1;stroke:none;"/>
<path style=" stroke:none;fill-rule:nonzero;fill:rgb(0%,0%,0%);fill-opacity:1;" d="M 298.28125 325 C 293.21875 335.71875 288.1875 346.25 283.34375 356.875 C 281.5625 360.75 279.5 363.96875 274.71875 363.6875 C 269.9375 363.40625 268.21875 359.75 266.84375 355.875 C 261.96875 342.355469 257.082031 328.8125 252.1875 315.25 C 251.5625 313.5 250.71875 311.8125 249.46875 309 C 246 318.375 242.9375 326.5 240.09375 334.75 C 237.4375 342.03125 234.84375 349.3125 232.21875 356.625 C 230.875 360.34375 229.09375 363.5625 224.40625 363.71875 C 219.71875 363.875 217.78125 361 216.09375 357.28125 C 211.25 346.625 206.21875 336.0625 201 324.875 C 190.3125 329.875 179.96875 334.75 169.5625 339.5 C 167.402344 340.632812 165.027344 341.292969 162.59375 341.4375 C 156.9375 341.4375 154.28125 336.09375 156.625 329.53125 C 163.75 309.625 171.03125 289.75 178.25 269.84375 C 179.8125 265.59375 181.65625 261.40625 182.90625 257.0625 C 184.15625 252.71875 186.03125 248.53125 185.0625 244.84375 C 183.222656 237.554688 178.273438 231.445312 171.53125 228.125 C 167.6875 226.125 163.59375 224.53125 159.9375 222.21875 C 143.976562 212.039062 137.59375 191.890625 144.78125 174.375 C 148.59375 165.824219 148.59375 156.050781 144.78125 147.5 C 140.800781 137.839844 140.832031 126.988281 144.863281 117.347656 C 148.898438 107.710938 156.605469 100.070312 166.28125 96.125 C 174.632812 92.914062 181.292969 86.402344 184.6875 78.125 C 194.0625 56.75 215.0625 47.96875 236.78125 56.46875 C 245.046875 59.804688 254.292969 59.726562 262.5 56.25 C 284.375 47.875 305.28125 56.78125 314.5 78.125 C 317.886719 86.417969 324.5625 92.9375 332.9375 96.125 C 342.675781 100.171875 350.382812 107.949219 354.339844 117.722656 C 358.300781 127.492188 358.175781 138.445312 354 148.125 C 350.390625 156.164062 350.390625 165.367188 354 173.40625 C 358.199219 183.078125 358.339844 194.027344 354.390625 203.804688 C 350.441406 213.582031 342.738281 221.363281 333 225.40625 C 324.125 229.09375 317.375 234.78125 314.5 244.15625 C 313.734375 246.542969 313.734375 249.113281 314.5 251.5 C 323.53125 276.78125 332.78125 301.96875 341.9375 327.1875 C 342.492188 328.144531 342.832031 329.210938 342.9375 330.3125 C 342.5625 333.4375 342.9375 337.75 340.9375 339.4375 C 338.121094 341.179688 334.652344 341.5 331.5625 340.3125 C 321.4375 336.15625 311.65625 331.21875 301.71875 326.5625 C 300.8125 326.125 299.75 325.71875 298.28125 325 Z M 276.09375 257.96875 C 290.59375 257 299.84375 250.875 304.78125 238.78125 C 308.960938 228.285156 317.28125 219.976562 327.78125 215.8125 C 344.21875 208.78125 350.4375 193.15625 343.625 176.5625 C 339.34375 166.5 339.34375 155.125 343.625 145.0625 C 350.65625 127.875 344.25 112.53125 327 105.21875 C 317.226562 101.277344 309.445312 93.578125 305.40625 83.84375 C 297.625 65.75 282.96875 59.625 264.78125 66.84375 C 255.058594 70.875 244.128906 70.875 234.40625 66.84375 C 216.53125 59.71875 201.6875 65.78125 194.09375 83.46875 C 189.9375 93.570312 181.832031 101.53125 171.65625 105.5 C 164.066406 108.234375 157.980469 114.042969 154.898438 121.496094 C 151.816406 128.953125 152.023438 137.363281 155.46875 144.65625 C 159.890625 154.863281 159.890625 166.449219 155.46875 176.65625 C 148.65625 193.1875 154.9375 208.84375 171.4375 215.875 C 181.742188 220.011719 189.953125 228.121094 194.21875 238.375 C 201.5 255.4375 216.09375 261.6875 233.625 254.875 C 243.882812 250.648438 255.402344 250.691406 265.625 255 C 269.054688 256.226562 272.550781 257.257812 276.09375 258.09375 Z M 254.40625 263.4375 L 253.4375 261.6875 C 248.0625 262.84375 242.71875 264.09375 237.34375 265.15625 C 231.53125 266.625 225.621094 267.671875 219.65625 268.28125 C 209.96875 268.8125 201.875 264.125 194 258.03125 L 168.75 328.125 C 179.21875 323.21875 187.9375 319.09375 196.6875 315.09375 C 203.96875 311.78125 207.3125 313.03125 210.6875 320.1875 C 214.875 329.0625 219.03125 337.9375 223.78125 348.09375 C 234.1875 318.9375 244.28125 291.1875 254.40625 263.4375 Z M 275.53125 347.8125 C 280.15625 338 284.1875 329.3125 288.3125 320.65625 C 292.1875 312.46875 295.09375 311.4375 303.5 315.3125 L 330.59375 327.8125 C 321.78125 303.625 313.53125 280.9375 305.03125 257.5625 C 292.9375 268.3125 279.59375 270.0625 265 266.65625 C 259.375 280.71875 251.625 294.0625 261.3125 309.09375 C 261.996094 310.441406 262.507812 311.871094 262.84375 313.34375 C 266.9375 324.46875 271.03125 335.59375 275.53125 347.875 Z M 275.53125 347.8125 "/>
<path style=" stroke:none;fill-rule:nonzero;fill:rgb(0%,0%,0%);fill-opacity:1;" d="M 321.875 161.21875 C 321.773438 190.519531 304.007812 216.863281 276.882812 227.941406 C 249.757812 239.015625 218.628906 232.640625 198.046875 211.785156 C 177.460938 190.933594 171.488281 159.726562 182.917969 132.746094 C 194.347656 105.769531 220.921875 88.347656 250.21875 88.625 C 290.046875 88.898438 322.117188 121.390625 321.875 161.21875 Z M 249.78125 222.40625 C 283.75 222.234375 311.164062 194.59375 311.0625 160.625 C 310.957031 126.65625 283.375 99.183594 249.40625 99.21875 C 215.4375 99.253906 187.910156 126.78125 187.875 160.75 C 188.046875 194.828125 215.703125 222.371094 249.78125 222.40625 Z M 249.78125 222.40625 "/>
<path style=" stroke:none;fill-rule:nonzero;fill:rgb(0%,0%,0%);fill-opacity:1;" d="M 269.53125 205.78125 C 265.332031 203.953125 261.25 201.867188 257.3125 199.53125 C 252.835938 195.890625 246.414062 195.890625 241.9375 199.53125 C 239.179688 201.78125 235.988281 203.441406 232.5625 204.40625 C 228.832031 205.304688 224.921875 205.085938 221.3125 203.78125 C 217.488281 201.703125 215.597656 197.261719 216.75 193.0625 C 216.824219 191.550781 217.066406 190.050781 217.46875 188.59375 C 222 177.8125 218.4375 169.84375 209.28125 163.59375 C 207.929688 162.550781 206.710938 161.34375 205.65625 160 C 202.957031 157.09375 202.089844 152.933594 203.398438 149.191406 C 204.710938 145.453125 207.984375 142.742188 211.90625 142.15625 C 215.777344 141.234375 219.71875 140.648438 223.6875 140.40625 C 229.109375 140.660156 233.933594 136.984375 235.125 131.6875 C 236.472656 128.320312 238.039062 125.042969 239.8125 121.875 C 241.875 117.84375 245.3125 114.875 249.75 115.9375 C 253.417969 116.90625 256.695312 118.992188 259.125 121.90625 C 261.925781 125.949219 264.164062 130.355469 265.78125 135 C 266.742188 137.917969 269.492188 139.871094 272.5625 139.8125 C 277.480469 139.957031 282.359375 140.765625 287.0625 142.21875 C 290.664062 143.402344 293.660156 145.949219 295.40625 149.3125 C 296.050781 153.066406 295.234375 156.921875 293.125 160.09375 C 290.597656 163.640625 287.492188 166.734375 283.9375 169.25 C 280.226562 171.734375 278.703125 176.4375 280.25 180.625 C 281.339844 184.832031 282.105469 189.113281 282.53125 193.4375 C 283.375 200.65625 278.65625 205.875 269.53125 205.78125 Z M 271.6875 194.96875 C 270.65625 188.71875 269.9375 182.96875 268.84375 177.46875 C 267.699219 172.949219 269.269531 168.175781 272.875 165.21875 C 277.03125 161.53125 281.25 157.78125 286.375 153.125 C 279 151.90625 273.875 150.75 268.625 150.3125 C 263.195312 149.988281 258.492188 146.425781 256.71875 141.28125 C 254.65625 136.65625 252.28125 132.1875 249.5625 126.71875 C 246.4375 132.71875 244.03125 137.71875 241.59375 142.84375 C 239.84375 146.898438 235.996094 149.652344 231.59375 150 C 225.9375 150.71875 220.34375 151.78125 214.15625 152.8125 C 218.625 157.34375 222.34375 161.375 226.3125 165.125 C 229.808594 168.167969 231.335938 172.894531 230.28125 177.40625 C 229.1875 182.9375 228.46875 188.5 227.4375 194.90625 C 233.125 191.78125 238.15625 189.40625 243.0625 186.71875 C 247.058594 184.34375 252.035156 184.34375 256.03125 186.71875 C 261 189.46875 266 192 271.6875 194.96875 Z M 271.6875 194.96875 "/>
<path style=" stroke:none;fill-rule:nonzero;fill:rgb(100%,81.960784%,0%);fill-opacity:1;" d="M 271.6875 194.96875 C 266 191.84375 261 189.46875 256.0625 186.78125 C 252.066406 184.40625 247.089844 184.40625 243.09375 186.78125 C 238.15625 189.46875 233.125 192 227.46875 194.96875 C 228.5 188.71875 229.21875 183 230.3125 177.46875 C 231.367188 172.957031 229.839844 168.230469 226.34375 165.1875 C 222.375 161.4375 218.65625 157.40625 214.1875 152.875 C 220.4375 151.84375 225.96875 150.78125 231.625 150.0625 C 236.054688 149.691406 239.914062 146.886719 241.625 142.78125 C 244.0625 137.65625 246.625 132.65625 249.59375 126.65625 C 252.3125 132.125 254.6875 136.59375 256.75 141.21875 C 258.539062 146.390625 263.285156 149.964844 268.75 150.25 C 273.96875 150.6875 279.125 151.84375 286.5 153.0625 C 281.28125 157.78125 277.125 161.53125 273 165.21875 C 269.316406 168.125 267.65625 172.90625 268.75 177.46875 C 269.9375 182.96875 270.65625 188.5625 271.6875 194.96875 Z M 271.6875 194.96875 "/>
</g>
</svg>
