<?xml version="1.0" encoding="UTF-8"?>
<svg xmlns="http://www.w3.org/2000/svg" xmlns:xlink="http://www.w3.org/1999/xlink" width="500px" height="px" viewBox="0 0 500 500" version="1.1">
<g id="surface1">
<rect x="0" y="0" width="500" height="500" style="fill:rgb(100%,100%,100%);fill-opacity:1;stroke:none;"/>
<path style=" stroke:none;fill-rule:nonzero;fill:rgb(0%,0%,0%);fill-opacity:1;" d="M 360.25 101.84375 C 331.222656 72.25 291.453125 55.667969 250 55.875 C 209.53125 55.40625 170.558594 71.164062 141.78125 99.625 C 97.203125 143.210938 83.015625 209.230469 105.753906 267.28125 C 128.492188 325.332031 183.742188 364.15625 246.0625 365.875 L 249.71875 365.875 C 312.351562 366.003906 368.910156 328.429688 393.070312 270.644531 C 417.230469 212.855469 404.242188 146.207031 360.15625 101.71875 Z M 213.03125 154.28125 C 222.820312 144.441406 236.121094 138.898438 250 138.875 C 263.9375 138.921875 277.273438 144.546875 287.03125 154.5 C 296.8125 164.222656 302.285156 177.460938 302.21875 191.25 C 302.292969 205.179688 296.800781 218.5625 286.957031 228.421875 C 277.117188 238.28125 263.742188 243.800781 249.8125 243.75 C 228.589844 243.792969 209.445312 230.996094 201.378906 211.367188 C 193.308594 191.738281 197.914062 169.175781 213.03125 154.28125 Z M 156.25 315.25 C 167.757812 278.738281 201.78125 254.039062 240.0625 254.40625 L 250 254.40625 C 267.1875 253.59375 280.125 255.40625 291.9375 260.28125 C 316.878906 270.039062 336.023438 290.613281 343.96875 316.1875 C 344.972656 318.292969 344.199219 320.816406 342.1875 322 C 288.890625 366.152344 211.796875 366.402344 158.21875 322.59375 C 155.757812 321.027344 154.902344 317.839844 156.25 315.25 Z M 312.875 188.125 C 312.339844 171.121094 304.671875 155.125 291.75 144.0625 C 279.515625 133.054688 263.367188 127.421875 246.9375 128.4375 C 219.195312 129.984375 195.699219 149.429688 188.992188 176.394531 C 182.285156 203.355469 193.933594 231.542969 217.71875 245.90625 C 182.8125 255.03125 158.8125 276.84375 146.34375 310.65625 C 117.53125 283.625 95.25 230.96875 110.25 173.78125 C 126.453125 112.632812 180.539062 69.125 243.742188 66.40625 C 306.941406 63.683594 364.566406 102.378906 385.96875 161.90625 C 407.53125 221.9375 385.34375 279.84375 353.71875 310.84375 C 341 276.46875 317.53125 255.15625 282.03125 245.78125 C 303.40625 231.75 313.78125 212.5 312.875 188.125 Z M 312.875 188.125 "/>
</g>
</svg>
