<?xml version="1.0" encoding="UTF-8"?>
<svg xmlns="http://www.w3.org/2000/svg" xmlns:xlink="http://www.w3.org/1999/xlink" width="500px" height="px" viewBox="0 0 500 500" version="1.1">
<g id="surface1">
<rect x="0" y="0" width="500" height="500" style="fill:rgb(100%,100%,100%);fill-opacity:1;stroke:none;"/>
<path style=" stroke:none;fill-rule:nonzero;fill:rgb(0%,0%,0%);fill-opacity:1;" d="M 349.71875 153.125 L 303.875 120.53125 C 300.476562 118.09375 295.984375 117.816406 292.3125 119.8125 C 288.636719 121.808594 286.429688 125.730469 286.625 129.90625 L 288.9375 193.75 C 289.132812 197.789062 291.535156 201.390625 295.1875 203.125 C 298.78125 204.824219 303.007812 204.453125 306.25 202.15625 L 349.78125 170.90625 C 352.660156 168.859375 354.371094 165.546875 354.371094 162.015625 C 354.371094 158.484375 352.660156 155.171875 349.78125 153.125 Z M 343.46875 163.75 L 302.28125 193.21875 C 301.492188 193.832031 300.417969 193.929688 299.53125 193.46875 C 298.640625 193.039062 298.0625 192.148438 298.03125 191.15625 L 295.84375 130.90625 C 295.785156 129.886719 296.335938 128.929688 297.25 128.46875 C 298.113281 127.902344 299.230469 127.902344 300.09375 128.46875 L 343.34375 159.375 C 344.054688 159.863281 344.476562 160.671875 344.46875 161.53125 C 344.460938 162.378906 344.039062 163.171875 343.34375 163.65625 Z M 343.46875 163.75 "/>
<path style=" stroke:none;fill-rule:nonzero;fill:rgb(0%,0%,0%);fill-opacity:1;" d="M 131.84375 254.4375 C 144.65625 254.4375 157.5 254.4375 170.3125 254.4375 C 182.8125 254.4375 195.09375 254.4375 207.46875 254.4375 C 211.1875 254.4375 215.375 254.4375 215.40625 249.5 C 215.4375 244.5625 211.28125 244.40625 207.5625 244.40625 L 131.9375 244.40625 C 128.34375 244.40625 124.6875 244.6875 124.6875 249.34375 C 124.6875 254 128.125 254.4375 131.84375 254.4375 Z M 131.84375 254.4375 "/>
<path style=" stroke:none;fill-rule:nonzero;fill:rgb(0%,0%,0%);fill-opacity:1;" d="M 129.875 225 C 137.59375 225 145.3125 225 153.03125 225 L 175.34375 225 C 177.59375 225 180.09375 225 180.125 220.0625 C 180.15625 215.125 177.625 214.96875 175.40625 214.96875 L 129.9375 214.96875 C 127.78125 214.96875 125.59375 215.25 125.59375 219.90625 C 125.59375 224.5625 127.65625 225 129.875 225 Z M 129.875 225 "/>
<path style=" stroke:none;fill-rule:nonzero;fill:rgb(0%,0%,0%);fill-opacity:1;" d="M 130.34375 195.21875 C 138.0625 195.21875 145.75 195.21875 153.46875 195.21875 C 160.90625 195.21875 168.34375 195.21875 175.78125 195.21875 C 178.03125 195.21875 180.53125 195.21875 180.5625 190.3125 C 180.59375 185.40625 178.09375 185.1875 175.84375 185.1875 L 130.40625 185.1875 C 128.25 185.1875 126.03125 185.5 126.03125 190.15625 C 126.03125 194.8125 128.125 195.25 130.34375 195.21875 Z M 130.34375 195.21875 "/>
<path style=" stroke:none;fill-rule:nonzero;fill:rgb(0%,0%,0%);fill-opacity:1;" d="M 208.15625 274.03125 L 131.875 274.03125 C 128.3125 274.03125 124.65625 274.375 124.71875 279.0625 C 124.78125 283.75 128.34375 284.03125 132 284.03125 C 144.5 284.03125 157.1875 284.03125 169.78125 284.03125 C 182.625 284.03125 195.4375 284.03125 208.25 284.03125 C 211.9375 284.03125 215.46875 283.53125 215.4375 279.03125 C 215.40625 274.53125 211.71875 274.03125 208.15625 274.03125 Z M 208.15625 274.03125 "/>
<path style=" stroke:none;fill-rule:nonzero;fill:rgb(0%,0%,0%);fill-opacity:1;" d="M 416.21875 124.25 C 416.21875 124.25 393.28125 54.90625 318.75 53.125 C 275.71875 52.09375 233.21875 75.28125 213.875 114.84375 C 212.21875 118.1875 211.28125 120.75 206.15625 119.84375 C 157.492188 111.253906 109.128906 136.445312 88.28125 181.25 C 83.21875 192.3125 80.84375 204.625 77.21875 216.34375 L 77.21875 237.96875 C 77.65625 240.125 78.1875 242.28125 78.5 244.4375 C 81.480469 267.15625 91.871094 288.257812 108.0625 304.46875 C 117.09375 313.34375 127.59375 320.71875 137.875 329.15625 C 131.84375 336.46875 124.84375 344.375 118.5625 352.8125 C 116.40625 355.6875 114.3125 360.71875 115.4375 363.34375 C 116.5625 365.96875 121.6875 367.9375 125.25 368.21875 C 151.371094 370.15625 177.566406 365.683594 201.5625 355.1875 C 204.078125 353.828125 205.75 351.3125 206.03125 348.46875 C 205.28125 344.34375 201.65625 344.4375 197.9375 345.8125 C 190.8125 348.46875 183.625 351.125 176.28125 353.1875 C 160.320312 357.625 143.714844 359.292969 127.1875 358.125 C 133.875 350.0625 139.6875 343.0625 145.53125 336 C 153.53125 326.3125 153.09375 323.5 141.96875 317.71875 C 126.003906 309.695312 112.5625 297.421875 103.125 282.25 C 88.179688 258.769531 83.695312 230.121094 90.75 203.195312 C 97.808594 176.269531 115.769531 153.503906 140.3125 140.375 C 160.804688 129.117188 184.644531 125.558594 207.53125 130.34375 C 199.15625 159.9375 201.03125 188.375 215.625 215.125 C 229.59375 241.125 250.28125 261.3125 275 278.125 C 272.90625 281.4375 271.15625 284.375 269.0625 287.5 C 256.402344 305.347656 240.605469 320.742188 222.4375 332.9375 C 219.3125 334.90625 215.6875 337.21875 218.46875 341.46875 C 221.25 345.71875 225.28125 343.8125 228.21875 341.21875 C 241.46875 329.46875 254.9375 317.90625 267.53125 305.5 C 274 299.25 278.875 291.1875 284.53125 283.84375 L 292.03125 287.4375 C 318.601562 300.027344 348.003906 305.433594 377.3125 303.125 C 380.734375 302.785156 383.832031 300.957031 385.78125 298.125 C 386.84375 296.03125 384.875 291.875 383.5 289.125 C 382.058594 286.855469 380.359375 284.757812 378.4375 282.875 C 373.03125 276.34375 367.65625 269.8125 361.9375 262.84375 C 377.78125 254.625 391.5625 244.5625 400.84375 230.21875 C 400.84375 230.21875 420.25 205.21875 422.90625 176.34375 C 425.84375 143.75 416.21875 124.25 416.21875 124.25 Z M 412.90625 175 C 412.652344 175.925781 412.453125 176.863281 412.3125 177.8125 C 410.496094 190.988281 406.03125 203.65625 399.1875 215.0625 C 389.015625 231.910156 374.238281 245.5 356.59375 254.21875 C 348.6875 258.21875 348.09375 262.1875 353.46875 269.09375 C 355.03125 271 356.59375 272.875 358.21875 274.78125 L 373.5 293.25 C 352.789062 294.574219 332.027344 291.625 312.5 284.59375 C 282.066406 273.644531 255.515625 254.011719 236.125 228.125 C 210.375 194.8125 204.875 158.5625 223.125 119.96875 C 248.875 65.25 319.71875 46.4375 369.5 80.8125 C 390.824219 95.054688 405.714844 117.089844 410.96875 142.1875 C 413.121094 152.984375 413.773438 164.027344 412.90625 175 Z M 412.90625 175 "/>
</g>
</svg>
