<?xml version="1.0" encoding="UTF-8"?>
<svg xmlns="http://www.w3.org/2000/svg" xmlns:xlink="http://www.w3.org/1999/xlink" width="300px" height="300px" viewBox="0 0 300 300" version="1.1">
<g id="surface1">
<path style=" stroke:none;fill-rule:nonzero;fill:rgb(54.901961%,54.901961%,54.901961%);fill-opacity:1;" d="M 182.902344 142.371094 L 157.832031 142.371094 L 157.832031 118.902344 C 157.832031 105.136719 157.832031 90.90625 157.832031 76.964844 C 157.53125 74.472656 156.515625 72.121094 154.90625 70.195312 C 152.925781 68.113281 149.851562 67.492188 147.21875 68.644531 C 143.980469 69.867188 141.914062 73.050781 142.109375 76.507812 L 142.109375 142.371094 L 75.847656 142.371094 C 72.660156 142.128906 69.648438 143.851562 68.246094 146.722656 C 66.84375 149.59375 67.332031 153.027344 69.476562 155.394531 C 71.164062 157.023438 73.445312 157.894531 75.789062 157.800781 C 89.445312 157.800781 103.078125 157.800781 116.695312 157.800781 L 142.167969 157.800781 L 142.167969 182.933594 C 142.167969 196.527344 142.167969 210.070312 142.167969 223.667969 C 142.023438 225.847656 142.804688 227.992188 144.324219 229.566406 C 145.84375 231.140625 147.957031 231.996094 150.144531 231.925781 C 152.28125 231.917969 154.316406 231.023438 155.773438 229.457031 C 157.230469 227.894531 157.972656 225.796875 157.832031 223.667969 L 157.832031 157.800781 L 183.589844 157.800781 C 197.132812 157.800781 210.710938 157.800781 224.324219 157.800781 C 227.484375 157.976562 230.429688 156.210938 231.769531 153.347656 C 233.105469 150.480469 232.566406 147.089844 230.40625 144.777344 C 228.597656 143.125 226.203125 142.257812 223.753906 142.371094 Z M 182.902344 142.371094 "/>
<path style=" stroke:none;fill-rule:nonzero;fill:rgb(54.901961%,54.901961%,54.901961%);fill-opacity:1;" d="M 232.53125 150.515625 C 232.507812 152.65625 231.589844 154.6875 229.996094 156.117188 C 228.402344 157.546875 226.285156 158.242188 224.152344 158.03125 C 210.574219 158.03125 196.996094 158.03125 183.417969 158.03125 L 157.832031 158.03125 L 157.832031 223.667969 C 157.972656 225.796875 157.230469 227.894531 155.773438 229.457031 C 154.316406 231.023438 152.28125 231.917969 150.144531 231.925781 C 147.957031 231.996094 145.84375 231.140625 144.324219 229.566406 C 142.804688 227.992188 142.023438 225.847656 142.167969 223.667969 C 142.167969 210.070312 142.167969 196.527344 142.167969 182.933594 L 142.167969 157.800781 L 116.695312 157.800781 C 103.078125 157.800781 89.445312 157.800781 75.789062 157.800781 C 73.445312 157.894531 71.164062 157.023438 69.476562 155.394531 C 67.332031 153.027344 66.84375 149.59375 68.246094 146.722656 C 69.648438 143.851562 72.660156 142.128906 75.847656 142.371094 L 142.167969 142.371094 L 142.167969 76.507812 C 141.96875 73.050781 144.039062 69.867188 147.273438 68.644531 C 149.890625 67.519531 152.933594 68.136719 154.90625 70.195312 C 156.433594 72.148438 157.367188 74.496094 157.601562 76.964844 C 157.601562 90.90625 157.601562 105.136719 157.601562 118.902344 L 157.601562 142.371094 L 223.753906 142.371094 C 226.183594 142.273438 228.554688 143.136719 230.351562 144.777344 C 231.839844 146.304688 232.632812 148.382812 232.53125 150.515625 Z M 232.53125 150.515625 "/>
<path style=" stroke:none;fill-rule:nonzero;fill:rgb(54.901961%,54.901961%,54.901961%);fill-opacity:1;" d="M 149.167969 1.347656 L 147.332031 1.347656 C 64.945312 2.667969 -0.894531 70.304688 0 152.695312 C 0.460938 191.980469 16.8125 229.398438 45.324219 256.425781 C 73.972656 284.070312 112.402344 299.25 152.207031 298.652344 C 191.953125 298.289062 229.910156 282.082031 257.65625 253.625 C 285.402344 225.167969 300.644531 186.8125 300 147.074219 C 297.511719 65.652344 230.625 1.03125 149.167969 1.347656 Z M 149.742188 284.136719 C 114.011719 284.179688 79.730469 270.023438 54.445312 244.777344 C 29.148438 219.773438 14.914062 185.683594 14.914062 150.113281 C 14.914062 114.546875 29.148438 80.457031 54.445312 55.449219 C 79.835938 30.09375 114.261719 15.875 150.144531 15.921875 C 185.996094 15.792969 220.410156 30.003906 245.726562 55.394531 C 271.140625 80.507812 285.386719 114.785156 285.253906 150.515625 C 284.625 224.722656 224.121094 284.457031 149.914062 284.136719 Z M 149.742188 284.136719 "/>
</g>
</svg>
