<?xml version="1.0" encoding="UTF-8"?>
<svg xmlns="http://www.w3.org/2000/svg" xmlns:xlink="http://www.w3.org/1999/xlink" width="300px" height="300px" viewBox="0 0 300 300" version="1.1">
<g id="surface1">
<path style=" stroke:none;fill-rule:nonzero;fill:rgb(50.588235%,50.588235%,50.588235%);fill-opacity:1;" d="M 149.363281 0 L 147.519531 0 C 64.6875 1.609375 -1.253906 69.875 0 152.710938 C 0.4375 192.304688 16.785156 230.058594 45.363281 257.464844 C 93.882812 304.800781 168.113281 313.730469 226.472656 279.253906 C 284.835938 244.777344 312.839844 175.457031 294.796875 110.117188 C 276.753906 44.777344 217.148438 -0.355469 149.363281 0 Z M 150.058594 285.28125 C 75.34375 285.28125 14.773438 224.714844 14.773438 150 C 14.773438 75.285156 75.34375 14.71875 150.058594 14.71875 C 224.773438 14.71875 285.339844 75.285156 285.339844 150 C 285.339844 224.714844 224.773438 285.28125 150.058594 285.28125 Z M 150.058594 285.28125 "/>
<path style=" stroke:none;fill-rule:nonzero;fill:rgb(50.588235%,50.588235%,50.588235%);fill-opacity:1;" d="M 184.6875 140.417969 C 183.242188 141.6875 181.859375 143.074219 180.53125 144.460938 L 178.105469 146.941406 L 157.328125 168.527344 L 157.042969 160.792969 L 157.042969 130.492188 C 157.042969 115.773438 157.042969 83.742188 157.042969 69.085938 C 157.042969 64.351562 155.769531 58.753906 149.769531 58.695312 C 148.007812 58.5625 146.273438 59.167969 144.980469 60.371094 C 143.011719 62.714844 142.054688 65.746094 142.324219 68.796875 C 142.324219 79.703125 142.324219 102.097656 142.324219 112.949219 L 141.863281 161.601562 L 141.863281 168.527344 L 128.355469 155.828125 C 124.375 151.441406 120.390625 147 116.238281 142.726562 C 114.277344 140.441406 111.5 139.015625 108.503906 138.746094 C 106.730469 138.769531 105.050781 139.546875 103.886719 140.882812 C 100.367188 144.632812 102.675781 149.539062 105.964844 152.828125 C 111.332031 158.253906 116.699219 163.5625 122.125 168.871094 L 135.457031 182.148438 C 142.382812 189.074219 146.363281 193.113281 149.132812 192.941406 C 151.90625 192.765625 156.003906 188.957031 162.984375 181.972656 C 166.679688 178.222656 170.429688 174.527344 174.183594 170.835938 C 180.992188 164.101562 187.785156 157.292969 194.554688 150.402344 C 197.101562 148.855469 198.433594 145.894531 197.90625 142.960938 C 197.375 140.027344 195.097656 137.71875 192.167969 137.15625 C 189.238281 136.59375 186.265625 137.890625 184.6875 140.417969 Z M 184.6875 140.417969 "/>
<path style=" stroke:none;fill-rule:nonzero;fill:rgb(50.588235%,50.588235%,50.588235%);fill-opacity:1;" d="M 182.261719 210.425781 L 117.101562 210.425781 C 113.042969 210.777344 109.925781 214.171875 109.925781 218.246094 C 109.925781 222.320312 113.042969 225.71875 117.101562 226.066406 L 182.261719 226.066406 C 186.320312 225.71875 189.4375 222.320312 189.4375 218.246094 C 189.4375 214.171875 186.320312 210.777344 182.261719 210.425781 Z M 182.261719 210.425781 "/>
</g>
</svg>
