<?xml version="1.0" encoding="UTF-8"?>
<svg xmlns="http://www.w3.org/2000/svg" xmlns:xlink="http://www.w3.org/1999/xlink" width="50px" height="50px" viewBox="0 0 50 51" version="1.1">
<g id="surface1">
<path style=" stroke:none;fill-rule:nonzero;fill:white;fill-opacity:1;" d="M 24.253906 47.355469 L 2.492188 25.757812 L 24.253906 4.15625 C 24.742188 3.675781 25.53125 3.675781 26.019531 4.15625 C 26.253906 4.390625 26.386719 4.707031 26.386719 5.035156 C 26.386719 5.367188 26.253906 5.683594 26.019531 5.914062 L 6.023438 25.757812 L 26.007812 45.601562 C 26.242188 45.832031 26.375 46.148438 26.375 46.476562 C 26.375 46.804688 26.242188 47.121094 26.007812 47.355469 C 25.523438 47.832031 24.738281 47.832031 24.253906 47.355469 Z M 24.253906 47.355469 "/>
<path style=" stroke:none;fill-rule:nonzero;fill:white;fill-opacity:1;" d="M 45.003906 47.355469 L 23.25 25.757812 L 45.003906 4.15625 C 45.492188 3.675781 46.28125 3.675781 46.769531 4.15625 C 47.003906 4.390625 47.136719 4.707031 47.136719 5.035156 C 47.136719 5.367188 47.003906 5.683594 46.769531 5.914062 L 26.785156 25.757812 L 46.769531 45.601562 C 47.003906 45.832031 47.136719 46.148438 47.136719 46.476562 C 47.136719 46.804688 47.003906 47.121094 46.769531 47.355469 C 46.535156 47.585938 46.214844 47.71875 45.886719 47.71875 C 45.554688 47.71875 45.238281 47.585938 45.003906 47.355469 Z M 45.003906 47.355469 "/>
</g>
</svg>
