<?xml version="1.0" encoding="UTF-8"?>
<svg xmlns="http://www.w3.org/2000/svg" xmlns:xlink="http://www.w3.org/1999/xlink" width="50px" height="50px" viewBox="0 0 50 50" version="1.1">
<g id="surface1">
<path style=" stroke:none;fill-rule:nonzero;fill:white;fill-opacity:1;" d="M 25.398438 4.101562 L 46.699219 25.300781 L 25.398438 46.398438 C 24.898438 46.898438 24.101562 46.898438 23.699219 46.398438 C 23.5 46.199219 23.300781 45.898438 23.300781 45.5 C 23.300781 45.199219 23.398438 44.898438 23.699219 44.601562 L 43.300781 25.101562 L 23.601562 5.800781 C 23.398438 5.601562 23.199219 5.300781 23.199219 4.898438 C 23.199219 4.601562 23.300781 4.300781 23.601562 4 C 24.101562 3.601562 24.898438 3.601562 25.398438 4.101562 Z M 25.398438 4.101562 "/>
<path style=" stroke:none;fill-rule:nonzero;fill:white;fill-opacity:1;" d="M 5 4.101562 L 26.300781 25.300781 L 5 46.398438 C 4.5 46.898438 3.699219 46.898438 3.300781 46.398438 C 3.101562 46.199219 2.898438 45.898438 2.898438 45.5 C 2.898438 45.199219 3 44.898438 3.300781 44.601562 L 22.898438 25.101562 L 3.300781 5.800781 C 3.101562 5.601562 2.898438 5.300781 2.898438 4.898438 C 2.898438 4.601562 3 4.300781 3.300781 4 C 3.5 3.800781 3.800781 3.601562 4.199219 3.601562 C 4.5 3.699219 4.800781 3.898438 5 4.101562 Z M 5 4.101562 "/>
</g>
</svg>
