<?xml version="1.0" encoding="UTF-8"?>
<svg xmlns="http://www.w3.org/2000/svg" xmlns:xlink="http://www.w3.org/1999/xlink" width="128px" height="35px" viewBox="0 0 127 35" version="1.1">
<g id="surface1">
<path style=" stroke:none;fill-rule:nonzero;fill:rgb(0%,0%,0%);fill-opacity:1;" d="M 42.449219 10.441406 L 42.449219 29.242188 C 42.304688 31.273438 43.304688 33.214844 45.035156 34.277344 C 46.761719 35.335938 48.9375 35.335938 50.667969 34.277344 C 52.398438 33.214844 53.394531 31.273438 53.253906 29.242188 L 53.253906 0.234375 L 52.601562 0.234375 C 47 0.242188 42.457031 4.808594 42.449219 10.441406 Z M 42.449219 10.441406 "/>
<path style=" stroke:none;fill-rule:nonzero;fill:rgb(0%,0%,0%);fill-opacity:1;" d="M 117.871094 0.328125 L 104.988281 0.328125 L 104.988281 27.175781 C 104.992188 31.417969 108.410156 34.855469 112.628906 34.859375 L 127 34.859375 L 127 11.570312 C 127 6.398438 122.085938 0.328125 117.871094 0.328125 Z M 117.871094 0.328125 "/>
<path style=" stroke:none;fill-rule:nonzero;fill:rgb(0%,0%,0%);fill-opacity:1;" d="M 29.027344 11.835938 L 22.710938 11.835938 L 22.710938 5.585938 C 22.855469 3.554688 21.859375 1.609375 20.128906 0.550781 C 18.398438 -0.507812 16.222656 -0.507812 14.492188 0.550781 C 12.761719 1.609375 11.765625 3.554688 11.910156 5.585938 L 11.910156 11.859375 C 6.363281 12.1875 0 16.605469 0 22.042969 L 0 22.699219 L 11.917969 22.699219 L 11.917969 34.582031 L 12.566406 34.582031 C 15.023438 34.582031 17.445312 33.433594 19.382812 31.347656 C 21.550781 29 22.753906 25.90625 22.738281 22.699219 L 29.027344 22.699219 C 31.863281 22.5 34.0625 20.128906 34.0625 17.269531 C 34.0625 14.410156 31.863281 12.039062 29.027344 11.835938 Z M 29.027344 11.835938 "/>
<path style=" stroke:none;fill-rule:nonzero;fill:rgb(0%,0%,0%);fill-opacity:1;" d="M 84.160156 12.117188 L 84.160156 0.234375 L 83.503906 0.234375 C 78.089844 0.234375 73.664062 6.589844 73.367188 12.117188 L 67.050781 12.117188 C 65.023438 11.960938 63.082031 12.960938 62.019531 14.707031 C 60.957031 16.449219 60.957031 18.644531 62.019531 20.390625 C 63.082031 22.132812 65.023438 23.132812 67.050781 22.976562 L 73.367188 22.976562 L 73.367188 29.242188 C 73.226562 31.273438 74.222656 33.214844 75.953125 34.277344 C 77.683594 35.335938 79.855469 35.335938 81.585938 34.277344 C 83.316406 33.214844 84.316406 31.273438 84.171875 29.242188 L 84.171875 22.980469 C 87.492188 22.949219 90.675781 21.652344 93.085938 19.351562 C 95.019531 17.46875 96.085938 15.125 96.085938 12.761719 L 96.085938 12.117188 Z M 84.160156 12.117188 "/>
</g>
</svg>
