<?xml version="1.0" encoding="UTF-8"?>
<svg xmlns="http://www.w3.org/2000/svg" xmlns:xlink="http://www.w3.org/1999/xlink" width="50px" height="50px" viewBox="0 0 50 51" version="1.1">
<g id="surface1">
<path style=" stroke:none;fill-rule:nonzero;fill:rgb(100%,100%,100%);fill-opacity:1;" d="M 4.667969 34.492188 C 2.054688 37.136719 2.070312 41.378906 4.710938 44 C 7.351562 46.625 11.628906 46.640625 14.292969 44.042969 L 21.601562 36.785156 L 11.980469 27.230469 Z M 4.667969 34.492188 "/>
<path style=" stroke:none;fill-rule:nonzero;fill:rgb(100%,100%,100%);fill-opacity:1;" d="M 21.601562 14.636719 L 14.195312 7.28125 C 11.535156 4.644531 7.226562 4.644531 4.570312 7.28125 C 1.910156 9.921875 1.914062 14.199219 4.570312 16.839844 L 11.980469 24.195312 Z M 21.601562 14.636719 "/>
<path style=" stroke:none;fill-rule:nonzero;fill:rgb(100%,100%,100%);fill-opacity:1;" d="M 46.585938 11.984375 C 40.949219 7.550781 30.457031 9.578125 24.683594 14.660156 L 34.285156 24.195312 Z M 46.585938 11.984375 "/>
<path style=" stroke:none;fill-rule:nonzero;fill:rgb(100%,100%,100%);fill-opacity:1;" d="M 13.507812 25.714844 L 24.136719 36.269531 C 27.71875 40.023438 32.652344 42.210938 37.859375 42.355469 C 41.320312 42.410156 44.417969 41.425781 46.710938 39.5625 L 23.140625 16.164062 Z M 25.039062 24.925781 C 25.785156 25.664062 25.785156 26.863281 25.039062 27.601562 C 24.296875 28.34375 23.089844 28.34375 22.34375 27.601562 C 21.597656 26.863281 21.597656 25.664062 22.34375 24.925781 C 23.089844 24.1875 24.296875 24.1875 25.039062 24.925781 Z M 25.039062 24.925781 "/>
<path style=" stroke:none;fill-rule:nonzero;fill:rgb(0%,0%,0%);fill-opacity:1;" d="M 49.6875 11.941406 L 48.925781 11.195312 C 42.542969 4.859375 29.9375 7.09375 23.152344 13.152344 L 15.714844 5.769531 C 12.1875 2.449219 6.636719 2.523438 3.203125 5.9375 C -0.230469 9.347656 -0.304688 14.859375 3.039062 18.359375 L 10.449219 25.714844 L 3.140625 32.972656 C -0.363281 36.449219 -0.363281 42.085938 3.140625 45.5625 C 6.640625 49.039062 12.320312 49.039062 15.824219 45.5625 L 23.128906 38.328125 C 27.0625 42.15625 32.3125 44.367188 37.820312 44.519531 C 42.289062 44.589844 46.277344 43.121094 49.035156 40.378906 L 49.800781 39.617188 L 35.796875 25.730469 Z M 46.585938 11.984375 L 34.285156 24.195312 L 24.683594 14.660156 C 30.457031 9.578125 40.949219 7.550781 46.585938 11.984375 Z M 4.566406 16.839844 C 1.910156 14.199219 1.910156 9.921875 4.566406 7.28125 C 7.226562 4.640625 11.535156 4.640625 14.195312 7.28125 L 21.601562 14.636719 L 11.980469 24.195312 Z M 14.289062 44.042969 C 11.625 46.640625 7.351562 46.625 4.710938 44 C 2.070312 41.378906 2.050781 37.136719 4.667969 34.492188 L 11.976562 27.230469 L 21.597656 36.785156 Z M 46.707031 39.5625 C 44.40625 41.425781 41.332031 42.394531 37.859375 42.355469 C 32.652344 42.210938 27.71875 40.023438 24.136719 36.269531 L 13.507812 25.714844 L 23.132812 16.15625 Z M 46.707031 39.5625 "/>
<path style=" stroke:none;fill-rule:nonzero;fill:rgb(0%,0%,0%);fill-opacity:1;" d="M 22.34375 27.601562 C 23.089844 28.34375 24.296875 28.34375 25.039062 27.601562 C 25.785156 26.863281 25.785156 25.664062 25.039062 24.925781 C 24.296875 24.1875 23.089844 24.1875 22.34375 24.925781 C 21.601562 25.664062 21.601562 26.863281 22.34375 27.601562 Z M 22.34375 27.601562 "/>
</g>
</svg>
