<svg xmlns="http://www.w3.org/2000/svg" viewBox="0 0 368 152"><defs><style>.cls-1{fill:#1d1d1b;}</style></defs><g id="Diseño"><path class="cls-1" d="M53,44.67c4.6,0,6.75,3.79,9,6.68,6,7.75,7.85,16.9,7.52,26.58-.1,2.79.28,5.62,0,8.39-.69,7.63-6.2,19.54-15.85,20.62a10.65,10.65,0,0,1-4.61-.56C39.84,103.12,37,95.59,36.55,86.78c-.33-6.48-.38-13-.24-19.49.15-6.92,1.88-13.34,6.84-18.59C45.79,45.91,49.74,44.13,53,44.67Zm11.9,44.77c.09-3.54.25-6.63.22-9.72,0-5.34.75-10.77-1.55-15.92-1.94-4.34-5.09-7.59-8.69-10.55-2.16-1.77-4.16-1.83-6,.09a27.3,27.3,0,0,0-7.67,21c.24,5.4.24,10.84,1,16.17.66,4.61,1.71,9.3,6,12.36a5.59,5.59,0,0,0,6.49.51C60.31,100.16,62.36,94.36,64.89,89.44Z"/><path class="cls-1" d="M139.17,76.87c-1.36-8.4-2.74-16.93-4.08-25.47,0-.24.46-.57,1.35-1.58,1.52,3.63,3.18,6.69,4.09,10,1.59,5.76,2.51,11.71,4.11,17.47,2.08,7.44,4.59,14.76,6.82,22.15.62,2.06.9,4.21,1.34,6.32l-1.27.58-6.71-10.87c-1.32,3.55-3.81,5.21-7.72,4.9-1.39-.11-3,1.06-4.26.77-6.28-1.35-13.08-9.88-10.85-16.73,1.6-4.88,5.67-9.78,11.29-9.56C135.29,74.89,137.25,76.16,139.17,76.87Zm.76,2.33c-.78,2.18-1.54,2.72-2.9,1.12-1.83-2.15-4-1.7-5.83-.2-4.07,3.37-4.78,7.83-2.27,12.55,2.33,4.38,10.06,5,12.9,1,.62-.88,1.46-2.11,1.27-3C142.28,87,141.12,83.37,139.93,79.2Z"/><path class="cls-1" d="M77.7,73.38l2.13,5.68c1.47-2.82,2.69-5.5,4.26-8,.61-1,2.26-2.21,3-2,1,.37,1.94,1.83,2.4,3A40.15,40.15,0,0,1,90.79,78c1.42-3.27,2.47-6.08,3.88-8.69.59-1.08,2-1.72,3-2.57.75,1.17,2,2.26,2.19,3.52q2.63,14,4.87,28.16c.35,2.22,0,4.54,0,7.15-4-3-6.62-14-8.43-31.17-1,4.81-2.12,9.63-3.16,14.44-.1.49.1,1.12-.15,1.48a24.53,24.53,0,0,1-2,2.43c-.68-.64-1.83-1.19-2-1.94-.79-3.69-1.31-7.44-1.92-11.17A15.5,15.5,0,0,0,86.2,76c-2.56,4.91-6.78,9.15-4.82,15.4a14.1,14.1,0,0,1,.34,5.07c0,.82-.85,1.59-1.32,2.39-.61-.69-1.67-1.32-1.77-2.08-.7-5-1.23-10.12-1.74-15.19-.27-2.63-.4-5.27-.6-7.91Z"/><path class="cls-1" d="M112.54,70.55c.65,1.37,1.7,2.68,1.88,4.11.82,6.37,1.44,12.77,2,19.17a47,47,0,0,1,.17,7.41c-.05.85-1.11,1.62-1.71,2.43-.79-.73-2.18-1.39-2.27-2.2-.54-4.65-.81-9.34-1.08-14-.23-3.86-.37-7.73-.47-11.6,0-1.65.1-3.31.16-5Z"/><path class="cls-1" d="M110.26,63.18c-3.14-.53-3.59-1.29-2.56-4.2.5-1.41.64-3.07,1.5-4.19,1-1.3,2.58-2.85,4-2.93,1-.07,2.81,1.86,3.22,3.22C117.91,60,114.74,64,110.26,63.18Z"/><path class="cls-1" d="M226.49,111c-1.7-2.19-3.5-4.32-5.1-6.59C215.6,96.18,210,87.84,204.07,79.72a24.29,24.29,0,0,0-5.82-5.12c-2.14-1.49-2.15-2.92-.61-4.72a36.65,36.65,0,0,1,4.13-4.71c2.87-2.36,3.92-5.5,4.39-8.93a4.63,4.63,0,0,0-.72-2.79c-2.56-4.2-9.53-5.43-13.23-2.31a3,3,0,0,0-.84,2.3c.66,4.65,1.61,9.26,2.2,13.92.92,7.21,1.89,14.43,2.31,21.67.2,3.5-.7,7.09-1.32,10.6-.19,1.12-1.08,2.12-1.64,3.18l-.83-.24c-.52-7.92-.79-15.85-1.61-23.73s-2.2-16-3.44-24.67L182,58.73l-.7-.28c.25-1.4.06-3.16.84-4.16,3.67-4.68,8.31-8.25,14.34-9.08,5.18-.72,12.13,3.55,13.16,8.62.61,3-.45,6.7-1.63,9.74s-3.41,5.35-4.79,7.41l13.6,19.42c4.34,6.2,9.56,11.94,11.23,19.58Z"/><path class="cls-1" d="M253.14,85.65c4.38-.45,8.75-1,13.15-1.28a4.19,4.19,0,0,1,3,1.36c1.52,1.82.68,3.54-1.72,3.65-3.7.17-7.42.13-11.12.25-2.49.08-5,.4-7.45.41-2.65,0-3.41-1.89-2.68-3.91a26,26,0,0,1,3.51-6.21c1.69-2.35,3.68-4.47,5.92-7.15-5.66-.89-11,2.79-16.59-.59a21.39,21.39,0,0,1,2.65-1.68,36.33,36.33,0,0,1,17.1-2.33c1.16.1,2.56,1.5,3.19,2.66.39.73-.14,2.36-.77,3.19-2.81,3.68-5.81,7.22-8.73,10.81Z"/><path class="cls-1" d="M288.43,72.07,286,74.66a15.83,15.83,0,0,1-1.09-2.87,4,4,0,0,0-4.45-3.6A5.13,5.13,0,0,0,277,71.3a14.18,14.18,0,0,0-.33,7c1.32,5.52,5.71,6.55,9.84,2.61.58-.55,1.15-1.11,1.77-1.59.19-.15.56-.06.85-.08.13,3.14-1.49,5.23-5.2,6.81a7.46,7.46,0,0,1-8.06-1.81c-3.85-3.67-4.83-13.7-.77-18.12a6.26,6.26,0,0,1,9.09-.64c1.37,1.14,2,4,4.86,2.54.19-.1,1.18,1,1.54,1.68q3.94,7.44,7.77,14.94a4,4,0,0,1,.51,1.72,10.43,10.43,0,0,1-.4,2.18c-.7-.2-1.77-.17-2.06-.62-2.37-3.79-4.68-7.62-6.83-11.54C288.9,75.26,288.85,73.8,288.43,72.07Z"/><path class="cls-1" d="M235.37,85.7C234.2,86.9,233.18,88,232.1,89a6.82,6.82,0,0,1-10.52-.93,13.46,13.46,0,0,1,.14-15.87c2.09-2.71,5.21-2.93,8.21-2.65,2.59.24,4,2.15,4.25,4.74,0,.2,0,.48.1.58,4.81,4.2,4.41,11.41,9.11,15.73.66.61.37,2.26.53,3.44-1-.37-2.34-.44-3-1.14C239,90.75,237.38,88.35,235.37,85.7Zm-2.19-4.63a8.51,8.51,0,0,1-.24-3.16c.62-2.46-.32-4-2.44-4.68a4.79,4.79,0,0,0-6,2.07,21.78,21.78,0,0,0-2.26,5.46c-.52,1.91,2.73,6.76,4.32,6.55C229.55,86.92,232.67,85.07,233.18,81.07Z"/><path class="cls-1" d="M301.32,66.5c4.33,5.66,5.58,12.85,9.12,20.09.68-2.55,1.12-4.32,1.64-6.07,1.52-5.17,3-10.36,4.72-15.46.3-.9,1.8-1.39,2.74-2.07.21,1.07.81,2.24.57,3.2-1.85,7.38-3.84,14.73-5.86,22.06a9.85,9.85,0,0,1-1.48,3c-1.27,1.78-2.87,1.91-4.23.19a14.14,14.14,0,0,1-2.12-4q-3-8.59-5.74-17.26a16.16,16.16,0,0,1-.37-3.36Z"/><path class="cls-1" d="M326.06,64.49c.8,4.35,1.58,8.71,2.42,13.06.44,2.24,1.18,4.43,1.43,6.69.11,1.07-.62,2.23-1,3.35-1.07-.57-2.83-1-3.08-1.77a42,42,0,0,1-1.4-8.15c-.32-3.55-.43-7.13-.5-10.69a8.51,8.51,0,0,1,.79-2.58Z"/><path class="cls-1" d="M326.89,46.27c3.14.45,5,2.87,4.54,4.91-.43,1.79-1.21,3.5-3.59,3.16-1.89-.27-4.32-3.74-3.63-5.85C324.58,47.37,326.32,46.71,326.89,46.27Z"/></g></svg>