<svg xmlns="http://www.w3.org/2000/svg" viewBox="0 0 368 152"><defs><style>.cls-1{fill:#fff;}.cls-2{fill:none;}.cls-3{fill:#050505;}.cls-4{fill:#747474;}.cls-5{fill:#1e1e1e;}.cls-6{fill:#5c5c5c;}.cls-7{fill:#8f8f8f;}.cls-8{fill:#343434;}.cls-9{fill:#686868;}</style></defs><g id="Diseño"><path class="cls-1" d="M336.87,88.78l-.35-.53c-2-3-4-6.42-5.8-9.43l-2.38-4-1.47-2.42L316.33,55.06c-1.64-2.71-3.5-5.78-5.3-9l-.18-.34,0,0a7.62,7.62,0,0,0-13.47.15c-.52,1-1,2.07-1.24,2.64v0c-.1.22-.32.73-.44,1-3.09,6.21-6.39,12.63-9.29,18.3l-.05.08,0,.06-.59,1.16c.09-4,.18-8.21.34-12.26,0-.25.05-.71.07-1,.07-.84.1-2.15.08-3.25a11.74,11.74,0,0,0-.81-4.83,7,7,0,0,0-6.49-4.19,11.65,11.65,0,0,0-1.77.16,10.87,10.87,0,0,1-1.28.12l-1,0c-2,0-3.92-.14-5.6-.27-1.41-.1-2.62-.19-3.73-.19h0a9.05,9.05,0,0,0-5.87,1.73,6.8,6.8,0,0,0-2.46,4.3,21.36,21.36,0,0,0-2.07-1.85c-5.23-4.09-12.55-6.16-21.76-6.16a79.76,79.76,0,0,0-10.81.8c-3.84.53-6.38.88-8.51,2.81-2.74,2.49-2.7,5.64-2.58,8.46l-.1-.12c-.36-.4-.72-.78-1.1-1.15s-.76-.75-1.15-1.1-.72-.63-1.08-.93l-.1-.09A32.47,32.47,0,0,0,192.16,43L192,43l-1.38-.18-.27,0-1.3-.1-.36,0c-.55,0-1.11,0-1.67,0h0c-.55,0-1.11,0-1.66,0l-.36,0-1.31.1-.27,0q-.69.08-1.38.18L182,43a32.47,32.47,0,0,0-15.74,7.09l-.1.09q-.54.45-1.08.93c-.39.36-.77.72-1.15,1.1s-.74.75-1.1,1.15-.61.69-.9,1l-.12.14a32.48,32.48,0,0,0-6.08,11.33c.48-7,1.12-13.29,1.13-13.36a2,2,0,0,0,0-.27,8.93,8.93,0,0,0-2.1-7.11,7.24,7.24,0,0,0-5.22-1.93c-.7,0-1.4.06-2,.11-.47,0-.95.08-1.45.1-2.34.1-4.75.13-7.09.16-1.73,0-3.31,0-4.9.09h0a7.62,7.62,0,0,0-5.38,2.46c-.12.12-.22.26-.33.39l-.61-.33a33.28,33.28,0,0,0-12.79-3.63c-1-.08-2-.12-3-.12A36,36,0,0,0,89.78,50l0,0-.11.09A28,28,0,0,0,86.55,48l-.37-.22A34,34,0,0,0,72.41,43h0a37.43,37.43,0,0,0-4.73-.3c-.65,0-1.3,0-1.94,0a33.31,33.31,0,0,0-18.14,6.56A32.39,32.39,0,0,0,39,58.52l0,0A31.26,31.26,0,0,0,35.8,83.67a32.15,32.15,0,0,0,6,11.13A33.81,33.81,0,0,0,51.49,103l0,0a36.05,36.05,0,0,0,12.61,4.12h0a37,37,0,0,0,4.46.28,34.92,34.92,0,0,0,9-1.18h0a41.77,41.77,0,0,0,6.22-2.29,16.51,16.51,0,0,0,4.29-2.65,32.53,32.53,0,0,0,4.16,2.6,33.34,33.34,0,0,0,12.79,3.64h0c1,.08,2,.12,3,.12a35.78,35.78,0,0,0,20.25-6.22,7.15,7.15,0,0,0,4.31,4.89,10.36,10.36,0,0,0,3.9.55c1.35,0,2.91-.09,3.75-.14l1.4-.08,5.18-.14h0c5.24-.14,10.66-.29,15.9-.36l1,0h0c.42,0,1,0,1.75,0a10.27,10.27,0,0,0,6.37-1.69,32.27,32.27,0,0,0,9.88,3.22l.12,0c.45.07.91.13,1.37.18l.28,0,1.3.1.36,0c.55,0,1.11.05,1.67.05h0c.55,0,1.11,0,1.66-.05l.36,0,1.3-.1c.09,0,.18,0,.28,0,.46,0,.92-.1,1.37-.18l.12,0a32.37,32.37,0,0,0,15.74-7.08l.14-.11c.35-.3.7-.6,1-.91s.78-.72,1.15-1.1.74-.75,1.1-1.15l.54-.62a10.15,10.15,0,0,0,2.86,6.36,10.4,10.4,0,0,0,7.39,3.13c.26,0,.54,0,.8,0H223l1-.07c.9,0,1.81,0,2.77,0h2c1.1,0,2,0,3,0a8.26,8.26,0,0,0,6-2.37l.06-.07a6.69,6.69,0,0,0,1.63-3.8c1,1.47,2.08,3,3.09,4.45a8.81,8.81,0,0,0,6,4.28,5.52,5.52,0,0,0,.81.06,9.49,9.49,0,0,0,6.4-3.28c.27-.26.56-.53.87-.8.63-.57,1.29-1.12,2-1.67a6.81,6.81,0,0,0,1.07,1.48,4.27,4.27,0,0,0,.38.36l.06.05a5.73,5.73,0,0,0,1,.73,10.72,10.72,0,0,0,5.34,1.13c.87,0,1.69,0,2.35-.08l1.16-.06h.46c1,0,2,0,3,.06h.09c1.08,0,2.25.07,3.39.07H277a8.86,8.86,0,0,0,5.06-1.35l.23-.18.41.12c2.25.73,4.89,1.6,7.52,2.58h0a8.35,8.35,0,0,0,11-5.45c.12-.41.23-.82.33-1.18l.17-.61c1.28,0,3.1.05,6.15.16h0l2,.07h2.55c.53,0,.91,0,1.2,0,.26.5.54,1.15.75,1.6l0,0h0a9.17,9.17,0,0,0,12.13,4.6,9.87,9.87,0,0,0,1.42-.79L329.6,105l0,0,1-.69c.81-.54,1.62-1,2.45-1.52l.08,0h0l1.79-1.08a8.39,8.39,0,0,0,4.12-5.3A9.61,9.61,0,0,0,336.87,88.78Z"/><path class="cls-2" d="M203.09,89.47c-2.36,2.7-.35,2.33-.17,3.2,1.07-1.82,1.93-2.74,2.87-4.38C204.73,88.67,204.66,87.66,203.09,89.47Z"/><path class="cls-3" d="M213.29,70.17c-.07-.1-.15-.19-.23-.29-1-1.25-1.86-2.55-2.85-3.78a8.59,8.59,0,0,0-1.71-1.53,2.33,2.33,0,0,0-.71-.34l-.34.11a1.49,1.49,0,0,0-1,1.87,1.07,1.07,0,0,0,.07.19c.18.5.47,1,.69,1.44.34.72.28,1.1-.44,1.39A12,12,0,0,1,204,70,2.85,2.85,0,0,1,203,70l-.22,0a2.64,2.64,0,0,1-1.72-.3,3.29,3.29,0,0,1-1-1c-.4-.58-.72-1.22-1.11-1.82a5.44,5.44,0,0,0-.84-1.13,1.9,1.9,0,0,0-.44-.3,1.41,1.41,0,0,0-.72,1,6.57,6.57,0,0,0,0,2.34,6.81,6.81,0,0,0,3.41,5.2,5,5,0,0,0,1.51.51,4.58,4.58,0,0,0,.66.08h.13c.36,0,.82-.16,1.11,0h.16c.47,0,1.13-.26,1.32.3a1.74,1.74,0,0,1-.41,1.31c-.81,1-1.71,2-2.56,2.95-.6.69-1.2,1.37-1.77,2.07a5.57,5.57,0,0,0-1.28,3.61c0,.59,0,1.18,0,1.77a3.43,3.43,0,0,1-1.21,2.49c-.34.29-.69.59-1,.87a8.05,8.05,0,0,0-2.32,2.8q-.36.72-.75,1.41a4.08,4.08,0,0,1-2.8,2,2.4,2.4,0,0,1-1.22,0h0a1.91,1.91,0,0,1-2.4-1.14,15.07,15.07,0,0,1-1.07-3.54c-.17-1-.28-2-.38-3.07s-.22-2.27-.38-3.39A12.22,12.22,0,0,0,183,78.84,7.09,7.09,0,0,0,178,76l-.44,0c-.6.09-1.19.3-1.78.44a3.1,3.1,0,0,1-1.42,0,2.52,2.52,0,0,1-2.88-1.28,6.52,6.52,0,0,1-.86-4.21,9.46,9.46,0,0,1,3-5.91,16.08,16.08,0,0,1,9-4.55,4.26,4.26,0,0,1,.71,0,1.23,1.23,0,0,1,.39.06l.17,0a4.18,4.18,0,0,1,.71,0,.8.8,0,0,1,.88.71v0c.33,1.61,1.09,2.48,2.36,2.68l.38,0a10,10,0,0,0,1.55-.39,3.12,3.12,0,0,1,1.71-.12,3.53,3.53,0,0,1,2.08.24,9.45,9.45,0,0,0,1.55.53,2.17,2.17,0,0,0,1.52-2.67A4.88,4.88,0,0,0,192,57.75a15.13,15.13,0,0,1-6.37-1.55,6.78,6.78,0,0,0-2.11-.59,6.61,6.61,0,0,0-2.12.61c-.73.34-1.48.63-2.24.92-1.44.56-1.07-.91-.91-1.22s.17-.3,1.14-.73a27.34,27.34,0,0,1,2.65-1,9.68,9.68,0,0,0,3.85-2.43q.38-.39.72-.81c.47-.58.95-1.16,1.45-1.72a4.86,4.86,0,0,1,.58-.53c-.51,0-1,0-1.52,0A26.65,26.65,0,0,0,171,54a8.36,8.36,0,0,1-1.57,4.27,7.53,7.53,0,0,1-2.68,1.81,19.85,19.85,0,0,0-2.2.89,26.74,26.74,0,0,0-4.09,17.18A10.94,10.94,0,0,0,163.23,80l.59.29a6,6,0,0,1,3.23,3.2c1.91.16,3.43.56,3.64,2.28a66.6,66.6,0,0,1,.68,11.2,26.73,26.73,0,0,0,41.92-26.82Zm-10.37,22.5c-.18-.87-2.19-.5.17-3.2,1.57-1.81,1.64-.8,2.69-1.18C204.84,89.93,204,90.85,202.92,92.67Z"/><path class="cls-1" d="M168.84,94.77l0,0,0-.07Z"/><path class="cls-4" d="M177.75,116.5l0,.08-.06-.15Z"/><path class="cls-5" d="M82.25,91.42c-.15-.29-.31-.64-.49-1-.5-1.07-1.53-3.3-2.35-3.34a8.6,8.6,0,0,0-1.8.44,16,16,0,0,1-2.63.62,15.55,15.55,0,0,1-3.41-.06h0a14.2,14.2,0,0,1-9.24-4.88A12.4,12.4,0,0,1,59.6,78a11.81,11.81,0,0,1,5-12.61,13.88,13.88,0,0,1,13.85-1.23c3,1.33,3,1.33,4.94-1.79.27-.43.69-1,1.15-1.64a17.19,17.19,0,0,0,2.58-4.24c.05-1-2.81-2.76-3.76-3.33L83,52.94A28.24,28.24,0,0,0,71.59,49,30.51,30.51,0,0,0,66,48.8a27.28,27.28,0,0,0-14.86,5.38,26.24,26.24,0,0,0-6.93,7.5A25.23,25.23,0,0,0,41.64,81.9a26.15,26.15,0,0,0,4.84,9,28.07,28.07,0,0,0,8,6.71A29.81,29.81,0,0,0,64.94,101,29,29,0,0,0,76,100.3c3.41-.93,7.88-2.91,8.33-4,.32-.75-.91-2.83-1.5-3.83C82.63,92.11,82.41,91.74,82.25,91.42Z"/><path class="cls-6" d="M131.23,75.46l-.29-9.19c-.05-1.59-.09-3.21-.13-4.84,0-1.89-.09-3.82-.15-5.73a25.36,25.36,0,0,0-5.76-4.1,27.26,27.26,0,0,0-10.48-3,30.09,30.09,0,0,0-21,6.19,30.54,30.54,0,0,0-7.35,8,26.74,26.74,0,0,0-3.88,10.1,25.19,25.19,0,0,0-.31,4.83,23.57,23.57,0,0,0,5.41,14.39,25.12,25.12,0,0,0,7.83,6.32,27.34,27.34,0,0,0,10.47,3,30,30,0,0,0,21-6.19,31.36,31.36,0,0,0,5.08-4.89q-.15-6.1-.36-12.22C131.28,77.23,131.26,76.35,131.23,75.46ZM115,84.58a13.48,13.48,0,0,1-8.3,2.85c-.39,0-.78,0-1.18-.05a11.9,11.9,0,0,1-8.45-4.29,10.83,10.83,0,0,1-2.26-4.85,11.41,11.41,0,0,1-.09-4.12h0a12.67,12.67,0,0,1,5.07-8.22,13.53,13.53,0,0,1,9.5-2.8,11.54,11.54,0,0,1,8.42,4.3,10.82,10.82,0,0,1,2.4,9,13.58,13.58,0,0,1-.51,2A12.72,12.72,0,0,1,115,84.58Z"/><path class="cls-7" d="M168.5,93.44c0-1.28,0-2.47,0-3.68V87.89A2.45,2.45,0,0,0,166,85.47h0a25.33,25.33,0,0,0-2.67.21c-.55.06-1.07.12-1.51.14-2.68.17-5.14.32-7.82.56a4.77,4.77,0,0,1-4.08-1c-2.37-2.51.8-33.5.8-33.5.11-1.87-.19-2.32-.29-2.41a1.58,1.58,0,0,0-.93-.18c-.45,0-1,.05-1.53.09s-1.07.09-1.68.11c-2.43.11-4.85.14-7.27.17q-2.42,0-4.83.09h0a1.45,1.45,0,0,0-1.41,1.5v.05l0,.29,0,.48c.08,1.42.13,2.87.18,4.31,0,.62,0,1.23.07,1.85s0,1.28.05,1.93c0,1,0,2,.07,2.95,0,1.61.08,3.24.13,4.83l.29,9.18c0,.8.05,1.6.07,2.4a2.82,2.82,0,0,0,0,.41c.09,2.39.18,4.79.22,7.18,0,1.28.06,2.57.1,3.85l.06,1.94c0,.94.06,1.87.08,2.8,0,.36,0,.78,0,1.22,0,1.4-.11,3.32.77,3.65a23.5,23.5,0,0,0,5.1,0c.64,0,1.2-.08,1.61-.09l5.17-.13c5.38-.15,10.78-.3,16.1-.36l1.28,0c1.14,0,3.81.17,4.26-.48a14.24,14.24,0,0,0,.14-4.83C168.55,94.24,168.51,93.79,168.5,93.44Z"/><path class="cls-8" d="M331.78,92.14l-.36-.53c-2-3.09-4-6.43-5.95-9.66q-1.19-2-2.36-3.93l-1.46-2.42L311.1,58.22c-1.77-2.92-3.6-5.94-5.43-9.24l-.2-.36,0,0a1.5,1.5,0,0,0-2-.61,1.53,1.53,0,0,0-.63.63c-.46.9-.88,1.85-1.12,2.38s-.4.92-.55,1.22c-3.05,6.13-6.19,12.27-9.33,18.39l-.08.14q-2.25,4.41-4.5,8.79l-2.08,4.14c-1.23,2.46-2.48,4.93-3.75,7.34l-.7,1.34c-.13.25-.32.55-.52.9l0,0,0,0c-.56.93-.94,1.63-1.2,2.18a9.57,9.57,0,0,0-.42,1,.87.87,0,0,0,.42,1h0a9.12,9.12,0,0,0,1.2.53h0l1.19.41c.78.25,1.53.46,2,.59l1.22.36c2.48.81,5.14,1.68,7.8,2.68h0a2.25,2.25,0,0,0,2.89-1.31,1,1,0,0,1,.05-.16c.1-.34.2-.7.29-1,.57-2.06,1.2-4.4,3.32-5a59,59,0,0,1,9.11,0l2,.07c.33,0,.73,0,1.17,0h1.21a8,8,0,0,1,5,1,12.54,12.54,0,0,1,2.52,4.19v0a3.07,3.07,0,0,0,4.06,1.54,2.37,2.37,0,0,0,.47-.26c.67-.46,1.29-.9,1.68-1.18l1.16-.81c.94-.63,1.85-1.17,2.76-1.71.57-.34,1.13-.67,1.71-1s1.28-.9,1.39-1.41C333.29,94.42,332.59,93.36,331.78,92.14Zm-20.2-9.55a3.43,3.43,0,0,1-3.2,1.28c-.6,0-1.24-.05-1.9-.09l-.82-.06c-2.19-.13-3.68-.31-4.46-1.51s-.27-2.8.59-5.11l.18-.51c1.59-4.62,2.29-5.89,3.74-5.91s3.3,3.62,4.67,6.25L311,78C311.76,79.51,312.46,81.22,311.58,82.59Z"/><path class="cls-8" d="M276.48,98.75c-1.17-1.79.43-4.48,1.6-6.43.2-.33.38-.62.51-.86l.42-.82c.06-2.21.12-4.42.19-6.59.06-1.91.12-3.82.17-5.71q.09-3.47.16-7c0-.53,0-1,.05-1.58.1-4.41.19-8.83.36-13.2,0-.34,0-.77.08-1.26a20,20,0,0,0-.2-5.07c-.52-1.13-1.31-.41-3.83-.35-6.28.15-11.36-1-12.58,0a1.27,1.27,0,0,0-.29.93c0,.79,0,1.77.06,2.73,0,.67.05,1.34.06,1.93l.15,12.8c0,.49,0,1,0,1.47q.15,12.42.26,24.84c0,.36,0,.79,0,1.27-.05,1.12-.16,3.73.37,4.27l.06.06a10.74,10.74,0,0,0,4.37.28c.54,0,1-.06,1.44-.06,1.28,0,2.55,0,3.81.06,1.1,0,2.21.06,3.28.06a3.12,3.12,0,0,0,1.62-.29A4.73,4.73,0,0,1,276.48,98.75Z"/><path class="cls-9" d="M259.51,90.58c-6.15-5.74-7.29-7.17-7.6-7.78-1.16-2.26.89-4,2.25-5.17a12.38,12.38,0,0,0,1-.92,11.79,11.79,0,0,0,2.6-5.5,17.17,17.17,0,0,0,.36-2.66,13,13,0,0,0-.15-2.92,18.51,18.51,0,0,0-6.65-13.26c-5.75-4.5-15.16-5.89-28-4.12-6,.83-6,.83-5.81,5.28,0,.92.09,2,.1,3.24l.09,8.53c0,1.33,0,2.65,0,4,0,.44,0,.89,0,1.34.09,7.92.18,15.85.19,23.76v.07c0,.29,0,.64,0,1,0,.1,0,.22,0,.35a4.17,4.17,0,0,0,4.06,4.3,2.26,2.26,0,0,0,.45,0h0c.49,0,.93-.07,1.28-.08,1.36,0,2.72,0,4.08,0s2.49,0,3.73,0,1.6-.29,1.67-.37c.24-.27.15-1.23.07-2.15,0-.45-.09-.93-.11-1.44l0-1c-.56-10.09-.42-10.45-.24-10.85a1.41,1.41,0,0,1,1.19-.9h.14c.92,0,1.73.82,3.32,3.32l.15.23,3.68,5.19c2.08,2.91,4.15,5.82,6.19,8.81,1,1.45,1.51,1.65,1.69,1.67.42.06,1.35-.77,2.29-1.64.3-.28.62-.58,1-.88,1.51-1.35,3.1-2.61,4.63-3.82,1-.79,2-1.58,3-2.39s1.09-1.21,1.09-1.28C261.21,92.17,260.23,91.25,259.51,90.58ZM238.6,71.22a9.73,9.73,0,0,1-2.09.27,4.25,4.25,0,0,1-2-.44A2.62,2.62,0,0,1,233.11,69a9.63,9.63,0,0,1-.13-1.61c0-.34,0-.68,0-1-.11-1.52-.23-3.05-.36-4.56l-.12-1.54a1.36,1.36,0,0,1,1.24-1.45h.07a18.92,18.92,0,0,1,5.35.67A10.25,10.25,0,0,1,243,61.37a5,5,0,0,1,1.85,3.83v0a5.25,5.25,0,0,1-1.2,3.35,8.9,8.9,0,0,1-5,2.65Z"/></g></svg>