<svg xmlns="http://www.w3.org/2000/svg" viewBox="0 0 368 152"><defs><style>.cls-1{fill:#1d1d1b;}</style></defs><g id="Diseño"><path d="M53.45,63.82a5.84,5.84,0,0,1-4.69,2,5.9,5.9,0,0,1-4.71-2,8.13,8.13,0,0,1-1.71-5.47V34.59A8.13,8.13,0,0,1,44,29.13a5.74,5.74,0,0,1,4.62-2,5.12,5.12,0,0,1,3.8,1.48c.42.41.73.62.95.62s.43-.26.54-.78l.19-.89a.29.29,0,0,1,.32-.27h.16a.19.19,0,0,1,.22.22V39.74a.19.19,0,0,1-.22.22h-.16a.29.29,0,0,1-.32-.27l-.73-4.15a17.64,17.64,0,0,0-1.71-5.67,3.15,3.15,0,0,0-2.82-1.56q-3.21,0-3.21,4.53V60.13c0,3,1.14,4.53,3.42,4.51A4.4,4.4,0,0,0,52.76,63a7.58,7.58,0,0,0,1.31-4.78V53a.38.38,0,0,1,.43-.43h.22a.38.38,0,0,1,.43.43v5.36A8.12,8.12,0,0,1,53.45,63.82Z"/><path d="M58.79,65.26c-.14,0-.21-.07-.21-.22v-.11a.36.36,0,0,1,.29-.35l.49-.1a1.28,1.28,0,0,0,.71-.3.88.88,0,0,0,.18-.62V29.41a.93.93,0,0,0-.18-.63,1.21,1.21,0,0,0-.71-.31l-.49-.11a.32.32,0,0,1-.29-.32v-.11a.22.22,0,0,1,.21-.24h7c.15,0,.22.08.22.24V28a.29.29,0,0,1-.27.32l-.73.16a3.67,3.67,0,0,0-1.24.42.8.8,0,0,0-.24.64V63.37q0,.84,1.05.84H66.7a4.22,4.22,0,0,0,3.15-.95,8.14,8.14,0,0,0,1.43-3.85L72,55.82a.29.29,0,0,1,.32-.27h.16a.21.21,0,0,1,.24.21v9.07c0,.28-.15.43-.46.43Z"/><path d="M74.49,65.26a.22.22,0,0,1-.24-.22v-.11a.35.35,0,0,1,.24-.35l.54-.16a1.65,1.65,0,0,0,.8-.48,2.87,2.87,0,0,0,.41-1.22l6.42-34.79c.07-.45.22-.67.43-.67h.22c.22,0,.37.22.46.67l6.5,35.39a1.43,1.43,0,0,0,.34.83,1.5,1.5,0,0,0,.77.33l.51.1a.32.32,0,0,1,.27.35V65a.2.2,0,0,1-.22.22H85.63a.2.2,0,0,1-.22-.22v-.11a.35.35,0,0,1,.27-.35l.52-.1q.78-.17.75-.6a3.65,3.65,0,0,0,0-.46L85.41,55H78.78l-1.43,8a2,2,0,0,0,0,.43c0,.49.31.82.94,1l.54.16a.36.36,0,0,1,.24.35V65c0,.15-.08.22-.24.22ZM79,53.93H85.2l-3-17.18H82Z"/><path d="M105.43,63.87a6.34,6.34,0,0,1-9.11,0,7.8,7.8,0,0,1-1.68-5.3V29.41a.93.93,0,0,0-.18-.63,1.21,1.21,0,0,0-.71-.31l-.51-.11A.29.29,0,0,1,93,28v-.11a.22.22,0,0,1,.21-.24h6.21q.21,0,.21.24V28a.29.29,0,0,1-.27.32l-.51.11a1.35,1.35,0,0,0-.72.3,1,1,0,0,0-.17.64V60.3q0,4.37,3.42,4.34a4,4,0,0,0,3.4-1.71A7.85,7.85,0,0,0,106,58.25V30a2.31,2.31,0,0,0-.16-1,1.12,1.12,0,0,0-.7-.46l-.57-.16c-.14,0-.21-.14-.21-.32v-.11a.22.22,0,0,1,.21-.24h4q.21,0,.21.24V28c0,.18-.07.29-.21.32l-.57.16a1.18,1.18,0,0,0-.72.48,2.24,2.24,0,0,0-.17,1V58.57A7.85,7.85,0,0,1,105.43,63.87Z"/><path d="M111.79,65.26c-.14,0-.21-.07-.21-.22v-.11a.36.36,0,0,1,.29-.35l.49-.1a1.28,1.28,0,0,0,.71-.3.88.88,0,0,0,.18-.62V29.41a.93.93,0,0,0-.18-.63,1.21,1.21,0,0,0-.71-.31l-.49-.11a.32.32,0,0,1-.29-.32v-.11a.22.22,0,0,1,.21-.24h7.85c2.36,0,4.11.64,5.25,1.94s1.71,3.28,1.71,6V57.36q0,4-1.71,6t-5.25,1.93Zm5.83-1.05h1.48a4.15,4.15,0,0,0,3.25-1.06,5.4,5.4,0,0,0,.93-3.58V33.38a5.43,5.43,0,0,0-.93-3.59,4.18,4.18,0,0,0-3.25-1.05h-2.53V63.37Q116.57,64.21,117.62,64.21Z"/><path d="M130.94,65.26c-.14,0-.21-.07-.21-.22v-.11a.35.35,0,0,1,.29-.35l.49-.1a1.28,1.28,0,0,0,.71-.3.88.88,0,0,0,.18-.62V29.41a.93.93,0,0,0-.18-.63,1.21,1.21,0,0,0-.71-.31l-.49-.11a.32.32,0,0,1-.29-.32v-.11a.22.22,0,0,1,.21-.24h6.21q.21,0,.21.24V28a.29.29,0,0,1-.27.32l-.51.11a1.24,1.24,0,0,0-.7.3,1,1,0,0,0-.16.64V63.56a.94.94,0,0,0,.16.62,1.24,1.24,0,0,0,.7.3l.51.1a.32.32,0,0,1,.27.35V65c0,.15-.07.22-.21.22Z"/><path d="M139.57,65.26a.22.22,0,0,1-.24-.22v-.11a.35.35,0,0,1,.24-.35l.54-.16a1.6,1.6,0,0,0,.8-.48,3,3,0,0,0,.42-1.22l6.41-34.79c.08-.45.22-.67.44-.67h.21c.22,0,.37.22.46.67l6.5,35.39a1.14,1.14,0,0,0,1.11,1.16l.51.1a.32.32,0,0,1,.27.35V65a.19.19,0,0,1-.22.22h-6.31c-.14,0-.21-.07-.21-.22v-.11a.35.35,0,0,1,.27-.35l.51-.1q.78-.17.75-.6a2.4,2.4,0,0,0-.05-.46L150.5,55h-6.64l-1.43,8a3,3,0,0,0-.05.43c0,.49.31.82.94,1l.54.16a.35.35,0,0,1,.24.35V65c0,.15-.08.22-.24.22Zm4.48-11.33h6.23l-3.05-17.18h-.11Z"/><path d="M51.81,128.26a8.94,8.94,0,0,1-6.54-2.5,1.87,1.87,0,0,0-1.2-.7c-.41,0-.69.44-.84,1.31L43,127.64a.43.43,0,0,1-.46.39h-.24a.27.27,0,0,1-.3-.31V109.89a.27.27,0,0,1,.3-.31h.24A.43.43,0,0,1,43,110l.81,5.77q.76,5.94,2.75,8.46a6.32,6.32,0,0,0,5.22,2.52,5.09,5.09,0,0,0,4.48-2c.94-1.35,1.41-3.47,1.41-6.38a16.56,16.56,0,0,0-3-9.12L46.19,96.57A22.55,22.55,0,0,1,42,83.79q0-5.13,2.29-7.92a7.43,7.43,0,0,1,6.06-2.79,7.23,7.23,0,0,1,5.35,2c.64.64,1.12,1,1.43,1s.61-.38.77-1.12l.27-1.27a.43.43,0,0,1,.46-.39h.23a.28.28,0,0,1,.31.31V89.1a.27.27,0,0,1-.31.31h-.23a.43.43,0,0,1-.46-.39l-.73-4.35q-1-5.58-2.56-7.8a5.35,5.35,0,0,0-4.61-2.21c-3.31,0-5,2.29-5,6.85a16.76,16.76,0,0,0,3,9.25l8.43,12.59a22.74,22.74,0,0,1,4.24,12.86c0,4-.79,7-2.35,9A8,8,0,0,1,51.81,128.26Z"/><path d="M83.83,125.14a8.84,8.84,0,0,1-7.12,3.12,8.94,8.94,0,0,1-7.15-3.1q-2.66-3.1-2.65-8.41V84.59a12.52,12.52,0,0,1,2.65-8.39,9.72,9.72,0,0,1,14.27,0,12.57,12.57,0,0,1,2.64,8.39v32.16A12.57,12.57,0,0,1,83.83,125.14Zm-11,0a4.4,4.4,0,0,0,3.91,1.68,4.4,4.4,0,0,0,3.89-1.66c.75-1.1,1.13-3,1.13-5.62V81.82q0-3.93-1.13-5.58a4.4,4.4,0,0,0-3.89-1.66,4.44,4.44,0,0,0-3.91,1.66q-1.15,1.65-1.16,5.58v37.7C71.64,122.14,72,124,72.8,125.12Z"/><path d="M92.67,127.49a.27.27,0,0,1-.31-.31V127a.48.48,0,0,1,.42-.5l.69-.16a2,2,0,0,0,1-.42,1.33,1.33,0,0,0,.25-.89V76.32a1.41,1.41,0,0,0-.25-.91,1.87,1.87,0,0,0-1-.44l-.69-.16a.47.47,0,0,1-.42-.46V74.2a.32.32,0,0,1,.31-.35h10.66c3.42,0,5.94.93,7.57,2.77s2.44,4.69,2.44,8.51v3.16q0,8.59-6.62,10.09v.15q5.43,2.13,6.08,10.51L114,124.33a2,2,0,0,0,1.77,2l.69.16a.45.45,0,0,1,.39.5v.15a.28.28,0,0,1-.31.31h-6a.73.73,0,0,1-.77-.62,21.89,21.89,0,0,1-.61-4.58l-1-13.55q-.39-5.85-1.89-7.74t-5.7-1.89H99.48v26a1.4,1.4,0,0,0,.23.89,1.84,1.84,0,0,0,1,.42l.74.16a.45.45,0,0,1,.38.5v.15a.27.27,0,0,1-.31.31Zm6.81-29.88h3q3.39,0,4.74-1.46T108.61,91V82c0-2.47-.45-4.19-1.33-5.16s-2.47-1.47-4.76-1.47h-3Z"/><path d="M120.08,127.49a.28.28,0,0,1-.31-.31V127a.49.49,0,0,1,.43-.5l.69-.16a2,2,0,0,0,1-.42,1.28,1.28,0,0,0,.25-.89V76.32a1.36,1.36,0,0,0-.25-.91,1.87,1.87,0,0,0-1-.44l-.69-.16a.48.48,0,0,1-.43-.46V74.2a.32.32,0,0,1,.31-.35h8.86c.2,0,.31.12.31.35v.15a.43.43,0,0,1-.39.46l-.73.16a1.8,1.8,0,0,0-1,.42,1.41,1.41,0,0,0-.23.93v48.74a1.34,1.34,0,0,0,.23.89,1.8,1.8,0,0,0,1,.42l.73.16a.45.45,0,0,1,.39.5v.15a.28.28,0,0,1-.31.31Z"/><path d="M132.4,127.49a.31.31,0,0,1-.34-.31V127a.47.47,0,0,1,.34-.5l.77-.23a2.21,2.21,0,0,0,1.14-.7,4.3,4.3,0,0,0,.6-1.73l9.16-49.67c.1-.64.31-1,.62-1h.3q.47,0,.66,1l9.28,50.52a2.15,2.15,0,0,0,.48,1.19,2.18,2.18,0,0,0,1.1.46l.73.16a.45.45,0,0,1,.38.5v.15c0,.21-.1.31-.3.31h-9a.27.27,0,0,1-.31-.31V127a.48.48,0,0,1,.38-.5l.73-.16c.75-.15,1.11-.43,1.08-.85a3.89,3.89,0,0,0-.07-.65L148,112.82h-9.47l-2.05,11.43a3.42,3.42,0,0,0-.07.62c0,.69.45,1.17,1.34,1.43l.78.23c.2,0,.32.21.34.5v.15c0,.21-.11.31-.34.31Zm6.39-16.17h8.9l-4.35-24.53h-.16Z"/><polygon class="cls-1" points="226.94 29.89 232.67 29.89 232.67 63.64 239.93 63.64 239.93 29.89 245.66 29.89 245.66 27.83 226.94 27.83 226.94 29.89"/><path class="cls-1" d="M260.78,27.48c-9.2,0-10.27,3.46-10.27,6.05v25c0,1.36,0,5.48,10.21,5.48a15.64,15.64,0,0,0,7.7-1.63,4.23,4.23,0,0,0,2.47-3.9v-25C270.89,30.9,269.84,27.48,260.78,27.48Zm3.11,31.44c0,1.29-.83,2.66-3.16,2.66s-3.22-1.37-3.22-2.66V32.48c0-1.29.84-2.67,3.22-2.67s3.16,1.38,3.16,2.67Z"/><path class="cls-1" d="M296.64,50.34c0-1.64-.53-4-5.17-4.89l-6.6-1.29,6.53-1.64c4.67-1.17,5.21-3.22,5.21-4.66V33.21a4,4,0,0,0-2.39-3.89,14.82,14.82,0,0,0-6.85-1.49H276.2V63.64h7.26V45H285c4.23,0,4.69,2.43,4.69,3.48,0,.07,0,1.73-.1,5l-.07,2.34c0,5.06.55,7.08.94,7.88h6.91a34,34,0,0,1-.85-9.06ZM283.46,29.81H285c4.2,0,4.66,2.48,4.66,3.54v6.4c0,1.07-.46,3.56-4.66,3.56h-1.5Z"/><path class="cls-1" d="M313,27.48c-9.2,0-10.27,3.46-10.27,6.05v25c0,1.36,0,5.48,10.21,5.48a15.64,15.64,0,0,0,7.7-1.63,4.21,4.21,0,0,0,2.47-3.9v-25C323.08,30.9,322,27.48,313,27.48Zm3.12,31.44c0,1.29-.83,2.66-3.16,2.66s-3.23-1.37-3.23-2.66V32.48c0-1.29.85-2.67,3.23-2.67s3.16,1.38,3.16,2.67Z"/><path class="cls-1" d="M246.7,95.19a13.67,13.67,0,0,1,6.27,5.89q1.72,3.53,1.72,9.69,0,9.41-3.16,14t-9.79,4.61H229.56c-.5,0-.75-.38-.75-1.15V126a1.55,1.55,0,0,1,.68-1.38,3.39,3.39,0,0,0,1.42-2.94V76.82a2.74,2.74,0,0,0-.2-1.26,5.15,5.15,0,0,0-1.2-1,1.21,1.21,0,0,1-.58-.74,12.88,12.88,0,0,1-.09-2,4.59,4.59,0,0,1,.26-1.89.94.94,0,0,1,.91-.49h13.65a8.69,8.69,0,0,1,7.57,3.76,16.22,16.22,0,0,1,2.64,9.55,14.87,14.87,0,0,1-2.08,8.11A10.37,10.37,0,0,1,246.7,95.19Zm-6.53-21.61V93.11h1.32a2.24,2.24,0,0,0,2-1.08,7.53,7.53,0,0,0,.82-3.59c.07-1.67.11-3.79.11-6.34q0-5.35-.69-6.94a2.29,2.29,0,0,0-2.2-1.58Zm0,23.77v27.77c1.53,0,2.55-.31,3.08-.93a6.54,6.54,0,0,0,.92-3.68q.14-2.74.13-9.29c0-.9,0-2.92-.07-6.08a41.92,41.92,0,0,0-.3-5.71,3.13,3.13,0,0,0-.78-1.53,2.28,2.28,0,0,0-1.66-.55Z"/><path class="cls-1" d="M268,125.2h1.42a1.73,1.73,0,0,0,1.62-1.3,39.29,39.29,0,0,0,1.37-6,4.42,4.42,0,0,1,.73-2.21,2.1,2.1,0,0,1,1.44-.39,2.38,2.38,0,0,1,1.44.28,1.29,1.29,0,0,1,.33,1,15.6,15.6,0,0,1-.13,1.67l-.87,8.89a6.13,6.13,0,0,1-.38,1.82,1,1,0,0,1-1,.45H257.58c-.7,0-1.05-.64-1.05-1.93a8.17,8.17,0,0,1,.14-1.92,1.1,1.1,0,0,1,.59-.65q1.41-.68,1.41-3.9V76.82a2.18,2.18,0,0,0-.89-2,2,2,0,0,1-.95-1.08,8.16,8.16,0,0,1-.17-2,7.84,7.84,0,0,1,.15-2c.1-.26.36-.39.79-.39h11.49a.9.9,0,0,1,.88.47,7.43,7.43,0,0,1,.24,2.51A5.29,5.29,0,0,1,270,74a1.49,1.49,0,0,1-.83.76A2.5,2.5,0,0,0,268,77.23Z"/><path class="cls-1" d="M288,106l3.82-28.72a5,5,0,0,0,0-.78,2.78,2.78,0,0,0-1.27-2.39c-.53-.39-.79-.77-.79-1.14,0-.17,0-.35,0-.52v-.59a11.62,11.62,0,0,1,.11-2.08.56.56,0,0,1,.61-.43h6.16a.46.46,0,0,1,.51.35,10.59,10.59,0,0,1,.09,1.83c0,1.16,0,1.87,0,2.14a1.07,1.07,0,0,1-.35.67,4,4,0,0,0-.95,1.28,18.15,18.15,0,0,0-.5,2.73L289,126.72l-.4,2.94c0,.27-.21.41-.52.41h-5c-.21,0-.38-.15-.49-.45a18.14,18.14,0,0,1-.5-2.9L275.54,77.3a4.12,4.12,0,0,0-1.2-2.71,2.66,2.66,0,0,1-.61-.68,3.05,3.05,0,0,1-.11-1c0-.17,0-.34,0-.52s0-.53,0-.77a3.64,3.64,0,0,0,0-.48V70.6c0-.81.2-1.22.6-1.22h11.33c.38,0,.57.52.57,1.55,0,0,0,.74-.05,2.14a1.12,1.12,0,0,1-.52.81,2.85,2.85,0,0,0-1.1,2.49,6.74,6.74,0,0,0,.08.93Z"/><path class="cls-1" d="M316,86.24l6.45,35.53a3.82,3.82,0,0,0,1.25,2.5q.6.45.6,2c0,.12,0,.87-.08,2.23a.91.91,0,0,1-1,.89h-9.92a.77.77,0,0,1-.72-.3,4.29,4.29,0,0,1-.17-1.63c0-.15,0-.8,0-1.94a1.18,1.18,0,0,1,.59-1,1.45,1.45,0,0,0,.8-1.38,5.6,5.6,0,0,0-.05-.63l-3.49-18.77-.84,2.8v15.18a3.7,3.7,0,0,0,1.12,2.91,2.55,2.55,0,0,1,.47,1.86,8.42,8.42,0,0,1-.2,2.28.9.9,0,0,1-1,.58H299.39a.85.85,0,0,1-.79-.36,5,5,0,0,1-.23-2,7.09,7.09,0,0,1,.18-2.08,1.77,1.77,0,0,1,.67-.77,2.15,2.15,0,0,0,.92-2V77.56a3.25,3.25,0,0,0-.89-2.49,2.76,2.76,0,0,1-.73-.91,5.57,5.57,0,0,1-.12-1.47,17.91,17.91,0,0,1,.12-2.92c.09-.26.33-.39.73-.39H310.6c.53,0,.8.32.8,1,0,2,0,3.17-.08,3.48a1.89,1.89,0,0,1-.72,1,2.9,2.9,0,0,0-1.19,2.38v19l5.41-18.43a8.74,8.74,0,0,0,.45-2.27,1.86,1.86,0,0,0-.6-1.14,3,3,0,0,1-.79-1.15,12.64,12.64,0,0,1-.14-2.46c0-1,.24-1.45.72-1.45h6.63q.57,0,.69.33a7.68,7.68,0,0,1,.13,1.92,7.24,7.24,0,0,1-.16,2.07,2.62,2.62,0,0,1-1,.89,3.3,3.3,0,0,0-.82.59,3.87,3.87,0,0,0-.43,1Z"/><path d="M198.09,87.51H195L189.9,79.1a7.12,7.12,0,0,1-.5-1.08h-.06l-.52,1.08-5.21,8.41h-3.15l7.35-11L181,65.56h3.15l4.49,7.71q.44.77.78,1.53h.06a17.1,17.1,0,0,1,.86-1.59l4.67-7.65H198l-6.9,10.88Z"/></g></svg>